<svg xmlns="http://www.w3.org/2000/svg" viewBox="0 0 406.157 63.596"><g fill="#067346"><path d="M29.52 46.137s.882-23.49 13.861-37.548C31.938 25.77 32.357 46.853 32.357 46.853l-2.837-.716z"/><path d="M29.316 50.784s.724-19.926 11.691-31.849c-9.666 14.57-9.287 32.456-9.287 32.456l-2.404-.607z"/><path d="M28.549 48.783s-3.958-26.896 8.083-43.537c-9.603 20.145-4.646 44.232-4.646 44.232l-3.437-.695z"/><path d="M26.618 48.362s-6.425-16.24-1.395-26.745c-2.997 12.56 3.633 27.061 3.633 27.061l-2.238-.316z"/><path d="M27.87 51.576s-5.469-13.774-1.23-22.682c-2.515 10.65 3.125 22.952 3.125 22.952l-1.895-.27z"/><path d="M26.723 50.246s-10.902-18.283-7.315-30.509c-.795 14.485 9.973 30.771 9.973 30.771l-2.658-.262zM37.158 51.564s.884-23.49 13.864-37.548c-11.444 17.181-11.025 38.26-11.025 38.26l-2.839-.712z"/><path d="M36.958 56.211s.721-19.926 11.691-31.851c-9.668 14.572-9.29 32.458-9.29 32.458l-2.401-.607z"/><path d="M36.188 54.21s-3.957-26.898 8.084-43.537c-9.602 20.142-4.647 44.232-4.647 44.232l-3.437-.695z"/><path d="M34.257 53.787s-6.424-16.238-1.393-26.745c-3 12.56 3.631 27.061 3.631 27.061l-2.238-.316z"/><path d="M35.51 57.003s-5.47-13.774-1.23-22.682c-2.516 10.65 3.126 22.95 3.126 22.95l-1.896-.268z"/><path d="M34.363 55.673s-10.9-18.283-7.315-30.509c-.795 14.485 9.972 30.771 9.972 30.771l-2.657-.262zM41.214 51.115s6.576-16.06 18.797-25.004C48.015 37.279 42.919 51.756 42.919 51.756l-1.705-.641z"/><path d="M39.894 54.289s5.562-13.624 15.901-21.212c-10.147 9.476-14.456 21.758-14.456 21.758l-1.445-.546z"/><path d="M39.894 52.878s4.225-18.654 16.479-29.421c-11.526 13.3-14.371 30.08-14.371 30.08l-2.108-.659z"/><path d="M38.714 52.485s-.133-11.48 5.894-18.414c-5.199 8.453-4.483 18.749-4.483 18.749l-1.411-.335z"/><path d="M38.729 54.758s-.126-9.741 4.965-15.619c-4.388 7.168-3.771 15.902-3.771 15.902l-1.194-.283z"/><path d="M38.304 53.783s-2.591-13.12 2.914-21.312c-4.223 9.89-1.212 21.633-1.212 21.633l-1.702-.321zM44.913 55.244s6.578-16.06 18.798-25.006C51.715 41.41 46.618 55.885 46.618 55.885l-1.705-.641z"/><path d="M43.593 58.42s5.563-13.626 15.9-21.213c-10.147 9.475-14.457 21.757-14.457 21.757l-1.443-.544z"/><path d="M43.592 57.007s4.225-18.656 16.48-29.419c-11.526 13.298-14.37 30.078-14.37 30.078l-2.11-.659z"/><path d="M42.415 56.616s-.134-11.479 5.893-18.413c-5.198 8.451-4.483 18.747-4.483 18.747l-1.41-.334z"/><path d="M42.429 58.887s-.127-9.741 4.964-15.619c-4.389 7.168-3.771 15.902-3.771 15.902l-1.193-.283z"/><path d="M42.004 57.912s-2.591-13.12 2.913-21.31c-4.222 9.89-1.211 21.634-1.211 21.634l-1.702-.324zM14.13 46.21S7.279 23.234 15.649 8.623c-5.804 17.552 1.559 38.09 1.559 38.09l-3.078-.503z"/><path d="M15.459 50.758S9.62 31.268 16.681 18.88c-4.884 14.884 1.384 32.305 1.384 32.305l-2.606-.427z"/><path d="M14.03 48.86S1.207 22.895 7.787 5.827c-2.983 20.315 9.915 43.472 9.915 43.472l-3.672-.439z"/><path d="M11.959 48.58S.171 33.182 1.752 22.585c1.131 12.46 12.55 26.147 12.55 26.147l-2.343-.152z"/><path d="M14.271 51.633S4.253 38.571 5.565 29.589C6.555 40.151 16.26 51.76 16.26 51.76l-1.989-.127z"/><path d="M12.681 50.415S-4.259 33.331-4.694 21.157C-.72 35.342 15.431 50.485 15.431 50.485l-2.75-.07zM23.571 50.976s-6.853-22.975 1.518-37.587c-5.802 17.552 1.561 38.09 1.561 38.09l-3.079-.503z"/><path d="M24.899 55.524s-5.839-19.489 1.223-31.878c-4.884 14.882 1.385 32.303 1.385 32.303l-2.608-.425z"/><path d="M23.472 53.627s-12.826-25.965-6.245-43.033c-2.984 20.315 9.914 43.469 9.914 43.469l-3.669-.436z"/><path d="M21.399 53.346s-11.786-15.4-10.207-25.995c1.132 12.46 12.552 26.147 12.552 26.147l-2.345-.152z"/><path d="M23.713 56.398s-10.018-13.062-8.706-22.042c.988 10.562 10.691 22.171 10.691 22.171l-1.985-.129z"/><path d="M22.124 55.181S5.183 38.095 4.747 25.923C8.722 40.108 24.874 55.25 24.874 55.25l-2.75-.069zM27.484 50.26s1.299-16.123 10.595-25.691c-8.338 11.722-8.674 26.199-8.674 26.199l-1.921-.508z"/><path d="M27.209 53.446s1.085-13.673 8.943-21.79c-7.046 9.943-7.318 22.223-7.318 22.223l-1.625-.433z"/><path d="M26.743 52.07S24.83 33.581 33.56 22.23C26.395 36 29.074 52.568 29.074 52.568l-2.331-.498z"/><path d="M25.433 51.768s-3.914-11.19-.163-18.372c-2.423 8.605 1.686 18.603 1.686 18.603l-1.523-.231z"/><path d="M26.196 53.983s-3.335-9.493-.171-15.579c-2.036 7.295 1.46 15.775 1.46 15.775l-1.289-.196z"/><path d="M25.45 53.063s-6.916-12.619-4.102-20.99c-.972 9.941 5.913 21.185 5.913 21.185l-1.811-.195zM32.551 54.033s1.3-16.123 10.594-25.693c-8.336 11.724-8.675 26.2-8.675 26.2l-1.919-.507z"/><path d="M32.275 57.221s1.084-13.675 8.941-21.794c-7.045 9.945-7.315 22.227-7.315 22.227l-1.626-.433z"/><path d="M31.81 55.842s-1.912-18.489 6.817-29.838c-7.165 13.771-4.489 30.336-4.489 30.336l-2.328-.498z"/><path d="M30.5 55.54s-3.915-11.19-.162-18.37c-2.422 8.605 1.685 18.6 1.685 18.6l-1.523-.23z"/><path d="M31.262 57.755s-3.334-9.491-.172-15.579c-2.034 7.295 1.461 15.773 1.461 15.773l-1.289-.194z"/><path d="M30.516 56.836s-6.917-12.619-4.1-20.99c-.974 9.94 5.911 21.185 5.911 21.185l-1.811-.195z"/></g><g fill="#01904b"><path d="M90.594 46.53s-.459-25.024-11.962-41.056c10.073 19.217 9.392 41.576 9.392 41.576l2.57-.52z"/><path d="M90.709 51.484s-.364-21.227-10.087-34.82c8.51 16.297 7.912 35.261 7.912 35.261l2.175-.441z"/><path d="M91.43 49.424s3.959-28.234-6.663-46.927c8.371 22.209 3.554 47.372 3.554 47.372l3.109-.445z"/><path d="M93.178 49.14s6.03-16.707 1.645-28.292c2.524 13.594-3.666 28.436-3.666 28.436l2.021-.144z"/><path d="M92.003 52.449s5.132-14.169 1.438-23.99c2.115 11.527-3.152 24.113-3.152 24.113l1.714-.123z"/><path d="M93.056 51.135s10.098-18.499 7.038-31.789c.509 15.456-9.439 31.841-9.439 31.841l2.401-.052zM83.625 51.647s-.46-25.024-11.962-41.058c10.074 19.22 9.392 41.576 9.392 41.576l2.57-.518z"/><path d="M83.738 56.602s-.363-21.228-10.083-34.82c8.507 16.295 7.908 35.261 7.908 35.261l2.175-.441z"/><path d="M84.46 54.542s3.958-28.234-6.662-46.93c8.37 22.209 3.553 47.374 3.553 47.374l3.109-.444z"/><path d="M86.208 54.257s6.031-16.708 1.644-28.293C90.376 39.56 84.185 54.4 84.185 54.4l2.023-.143z"/><path d="M85.033 57.567s5.133-14.17 1.437-23.99c2.115 11.525-3.15 24.111-3.15 24.111l1.713-.121z"/><path d="M86.088 56.249s10.096-18.497 7.037-31.785c.508 15.454-9.439 31.839-9.439 31.839l2.402-.054zM79.975 50.829s-5.702-17.616-16.596-28.152c10.66 12.879 15.048 28.688 15.048 28.688l1.548-.536z"/><path d="M81.117 54.311s-4.82-14.942-14.036-23.876C76.098 41.358 79.808 54.77 79.808 54.77l1.309-.459z"/><path d="M81.14 52.813s-3.542-20.172-14.442-32.647C76.903 35.27 79.226 53.335 79.226 53.335l1.914-.522z"/><path d="M82.208 52.495s.284-12.182-5.051-20.057c4.567 9.417 3.773 20.293 3.773 20.293l1.278-.236z"/><path d="M82.162 54.907s.255-10.333-4.254-17.01c3.855 7.986 3.173 17.211 3.173 17.211l1.081-.201z"/><path d="M82.56 53.908s2.525-13.715-2.32-22.882c3.667 10.863.78 23.079.78 23.079l1.54-.197zM76.577 54.901S70.875 37.287 59.981 26.75c10.66 12.879 15.047 28.686 15.047 28.686l1.549-.535z"/><path d="M77.721 58.384s-4.82-14.941-14.036-23.878C72.7 45.43 76.411 58.841 76.411 58.841l1.31-.457z"/><path d="M77.742 56.884s-3.541-20.17-14.441-32.643C73.505 39.342 75.83 57.406 75.83 57.406l1.912-.522z"/><path d="M78.81 56.568s.286-12.183-5.049-20.06c4.567 9.419 3.772 20.293 3.772 20.293l1.277-.233z"/><path d="M78.765 58.98s.255-10.334-4.252-17.012c3.856 7.986 3.173 17.213 3.173 17.213l1.079-.201z"/><path d="M79.163 57.982s2.526-13.717-2.32-22.884c3.667 10.862.781 23.08.781 23.08l1.539-.196zM104.474 47.911s6.513-23.823-.828-40.051c4.984 19.134-1.955 40.325-1.955 40.325l2.783-.274z"/><path d="M103.209 52.63s5.549-20.207-.641-33.963c4.19 16.222-1.716 34.195-1.716 34.195l2.357-.232z"/><path d="M104.524 50.734s11.944-26.493 6.253-45.177c2.398 21.83-9.568 45.332-9.568 45.332l3.315-.155z"/><path d="M106.399 50.615s10.854-15.358 9.583-26.747c-1.203 13.14-11.7 26.71-11.7 26.71l2.117.037z"/><path d="M104.268 53.658s9.224-13.024 8.17-22.676c-1.044 11.136-9.962 22.646-9.962 22.646l1.792.03z"/><path d="M105.72 52.499s15.528-16.711 16.096-29.604c-3.79 14.731-18.578 29.447-18.578 29.447l2.482.157zM95.889 52.175s6.513-23.825-.827-40.055c4.982 19.136-1.956 40.327-1.956 40.327l2.783-.272z"/><path d="M94.625 56.894s5.549-20.208-.642-33.965c4.189 16.222-1.716 34.195-1.716 34.195l2.358-.23z"/><path d="M95.941 54.998s11.943-26.495 6.251-45.179c2.4 21.83-9.567 45.333-9.567 45.333l3.316-.154z"/><path d="M97.815 54.879s10.854-15.361 9.582-26.749c-1.203 13.139-11.7 26.709-11.7 26.709l2.118.04z"/><path d="M95.684 57.922s9.225-13.026 8.169-22.678c-1.044 11.137-9.962 22.648-9.962 22.648l1.793.03z"/><path d="M97.135 56.763s15.528-16.712 16.095-29.607c-3.788 14.733-18.575 29.449-18.575 29.449l2.48.158zM92.37 51.082s-.939-17.235-9.186-28.187c7.351 13.159 7.446 28.563 7.446 28.563l1.74-.376z"/><path d="M92.572 54.494s-.779-14.62-7.751-23.906c6.21 11.158 6.279 24.226 6.279 24.226l1.472-.32z"/><path d="M93.012 53.068s1.993-19.478-5.719-32.273c6.266 15.233 3.611 32.603 3.611 32.603l2.108-.33z"/><path d="M94.198 52.858s3.692-11.553.412-19.5c2.061 9.344-1.789 19.615-1.789 19.615l1.377-.115z"/><path d="M93.479 55.147s3.145-9.798.378-16.534c1.731 7.923-1.544 16.631-1.544 16.631l1.166-.097z"/><path d="M94.166 54.234s6.419-12.822 4.001-21.951c.734 10.642-5.639 22.004-5.639 22.004l1.638-.053zM87.746 54.659s-.941-17.233-9.187-28.185c7.353 13.157 7.447 28.562 7.447 28.562l1.74-.377z"/><path d="M87.948 58.071s-.781-14.618-7.751-23.906c6.21 11.16 6.277 24.226 6.277 24.226l1.474-.32z"/><path d="M88.388 56.646s1.993-19.478-5.719-32.273c6.264 15.235 3.61 32.603 3.61 32.603l2.109-.33z"/><path d="M89.573 56.435s3.693-11.553.41-19.499c2.063 9.346-1.786 19.617-1.786 19.617l1.376-.118z"/><path d="M88.854 58.724s3.145-9.798.379-16.534c1.731 7.923-1.545 16.633-1.545 16.633l1.166-.099z"/><path d="M89.54 57.811s6.421-12.818 4.001-21.949c.735 10.64-5.637 22.002-5.637 22.002l1.636-.053z"/></g><g fill="#01904b"><path d="M174.192 46.456S173.734 21.434 162.23 5.4c10.073 19.218 9.392 41.576 9.392 41.576l2.57-.52z"/><path d="M174.307 51.411s-.365-21.227-10.088-34.821c8.51 16.298 7.911 35.261 7.911 35.261l2.177-.44z"/><path d="M175.028 49.351s3.96-28.234-6.664-46.93c8.371 22.211 3.553 47.374 3.553 47.374l3.111-.444z"/><path d="M176.776 49.066s6.03-16.707 1.643-28.292c2.524 13.596-3.667 28.436-3.667 28.436l2.024-.144z"/><path d="M175.601 52.376s5.132-14.169 1.438-23.99c2.114 11.525-3.152 24.113-3.152 24.113l1.714-.123z"/><path d="M176.655 51.06s10.096-18.497 7.038-31.787c.508 15.455-9.439 31.839-9.439 31.839l2.401-.052zM167.222 51.574s-.458-25.024-11.962-41.056c10.075 19.218 9.392 41.574 9.392 41.574l2.57-.518z"/><path d="M167.337 56.526s-.364-21.227-10.085-34.818c8.507 16.295 7.908 35.261 7.908 35.261l2.177-.443z"/><path d="M168.058 54.466s3.959-28.232-6.662-46.927c8.37 22.209 3.553 47.374 3.553 47.374l3.109-.447z"/><path d="M169.806 54.182s6.031-16.706 1.645-28.291c2.523 13.596-3.669 28.437-3.669 28.437l2.024-.146z"/><path d="M168.63 57.491s5.134-14.169 1.438-23.988c2.114 11.525-3.151 24.111-3.151 24.111l1.713-.123z"/><path d="M169.686 56.175s10.096-18.497 7.037-31.788c.508 15.454-9.439 31.841-9.439 31.841l2.402-.053zM163.572 50.754s-5.7-17.616-16.596-28.15c10.66 12.879 15.048 28.687 15.048 28.687l1.548-.537z"/><path d="M164.716 54.24s-4.821-14.944-14.037-23.881c9.017 10.926 12.727 24.335 12.727 24.335l1.31-.454z"/><path d="M164.738 52.739s-3.543-20.172-14.442-32.646c10.206 15.102 12.53 33.167 12.53 33.167l1.912-.521z"/><path d="M165.805 52.421s.286-12.183-5.049-20.058c4.565 9.417 3.772 20.294 3.772 20.294l1.277-.236z"/><path d="M165.759 54.833s.256-10.334-4.254-17.01c3.857 7.986 3.174 17.213 3.174 17.213l1.08-.203z"/><path d="M166.158 53.835s2.525-13.715-2.321-22.882c3.667 10.862.781 23.079.781 23.079l1.54-.197zM160.174 54.825s-5.7-17.614-16.595-28.148c10.66 12.877 15.047 28.688 15.047 28.688l1.548-.54z"/><path d="M161.319 58.311s-4.821-14.942-14.036-23.878c9.016 10.924 12.726 24.335 12.726 24.335l1.31-.457z"/><path d="M161.339 56.811s-3.542-20.171-14.441-32.645c10.204 15.103 12.529 33.167 12.529 33.167l1.912-.522z"/><path d="M162.407 56.495s.287-12.185-5.049-20.059c4.566 9.417 3.774 20.293 3.774 20.293l1.275-.234z"/><path d="M162.363 58.907s.255-10.334-4.253-17.012c3.855 7.986 3.173 17.213 3.173 17.213l1.08-.201z"/><path d="M162.761 57.908s2.525-13.717-2.321-22.884c3.667 10.864.781 23.081.781 23.081l1.54-.197zM188.071 47.838s6.512-23.823-.827-40.051c4.982 19.134-1.956 40.323-1.956 40.323l2.783-.272z"/><path d="M186.807 52.556s5.548-20.206-.641-33.963c4.19 16.222-1.715 34.195-1.715 34.195l2.356-.232z"/><path d="M188.123 50.661s11.944-26.493 6.251-45.177c2.4 21.83-9.568 45.331-9.568 45.331l3.317-.154z"/><path d="M189.997 50.544s10.854-15.361 9.584-26.751c-1.203 13.141-11.702 26.711-11.702 26.711l2.118.04z"/><path d="M187.866 53.585s9.224-13.024 8.169-22.676c-1.044 11.137-9.963 22.646-9.963 22.646l1.794.03z"/><path d="M189.318 52.425s15.527-16.71 16.095-29.605c-3.79 14.731-18.576 29.449-18.576 29.449l2.481.156zM179.487 52.1s6.512-23.823-.827-40.051c4.981 19.134-1.956 40.325-1.956 40.325l2.783-.274z"/><path d="M178.223 56.818s5.55-20.206-.641-33.963c4.19 16.222-1.716 34.195-1.716 34.195l2.357-.232z"/><path d="M179.538 54.922s11.944-26.491 6.252-45.176c2.398 21.83-9.569 45.334-9.569 45.334l3.317-.158z"/><path d="M181.413 54.803s10.853-15.358 9.581-26.747c-1.201 13.14-11.699 26.709-11.699 26.709l2.118.038z"/><path d="M179.282 57.847s9.225-13.024 8.17-22.676c-1.044 11.136-9.964 22.646-9.964 22.646l1.794.03z"/><path d="M180.732 56.687s15.527-16.71 16.095-29.605c-3.788 14.733-18.576 29.447-18.576 29.447l2.481.158zM175.968 51.006s-.939-17.232-9.187-28.184c7.353 13.159 7.447 28.563 7.447 28.563l1.74-.379z"/><path d="M176.17 54.419s-.78-14.616-7.751-23.905c6.211 11.158 6.279 24.226 6.279 24.226l1.472-.321z"/><path d="M176.61 52.993s1.992-19.476-5.72-32.271c6.265 15.233 3.611 32.603 3.611 32.603l2.109-.332z"/><path d="M177.797 52.783s3.691-11.553.411-19.497c2.061 9.346-1.788 19.615-1.788 19.615l1.377-.118z"/><path d="M177.077 55.073s3.145-9.8.378-16.536c1.732 7.922-1.545 16.633-1.545 16.633l1.167-.097z"/><path d="M177.764 54.16s6.42-12.822 4-21.951c.735 10.64-5.637 22.005-5.637 22.005l1.637-.054zM171.344 54.585s-.941-17.232-9.187-28.184c7.352 13.157 7.446 28.562 7.446 28.562l1.741-.378z"/><path d="M171.545 57.998s-.78-14.62-7.751-23.907c6.211 11.158 6.278 24.226 6.278 24.226l1.473-.319z"/><path d="M171.986 56.572s1.992-19.478-5.72-32.274c6.265 15.236 3.61 32.605 3.61 32.605l2.11-.331z"/><path d="M173.172 56.364s3.693-11.555.41-19.501c2.062 9.346-1.787 19.615-1.787 19.615l1.377-.114z"/><path d="M172.453 58.65s3.143-9.798.378-16.534c1.73 7.922-1.544 16.633-1.544 16.633l1.166-.099z"/><path d="M173.139 57.737s6.421-12.82 4-21.951c.736 10.642-5.637 22.005-5.637 22.005l1.637-.054z"/></g><path d="M309.541 49.17s-.164-25.03 11.272-41.347C310.93 27.29 312.2 49.625 312.2 49.625l-2.659-.455z" fill="#01904b"/><path d="M309.548 54.124s-.165-21.23 9.502-35.064c-8.348 16.508-7.251 35.45-7.251 35.45l-2.251-.386z" fill="#01904b"/><path d="M308.754 52.082S303.961 23.957 314.423 5c-8.055 22.416-2.458 47.449-2.458 47.449l-3.211-.367z" fill="#09703b"/><path d="M306.947 51.842s-6.631-16.548-2.41-28.24c-2.254 13.655 4.498 28.333 4.498 28.333l-2.088-.093z" fill="#01904b"/><path d="M308.241 55.119s-5.643-14.033-2.087-23.942c-1.885 11.575 3.855 24.023 3.855 24.023l-1.768-.081z" fill="#01904b"/><path d="M307.122 53.833s-10.864-18.235-8.052-31.599c-.133 15.464 10.524 31.591 10.524 31.591l-2.472.008zM316.847 54.107s-.164-25.028 11.273-41.348c-9.884 19.47-8.615 41.8-8.615 41.8l-2.658-.452z" fill="#01904b"/><path d="M316.855 59.061s-.165-21.228 9.499-35.064c-8.347 16.508-7.247 35.452-7.247 35.452l-2.252-.388z" fill="#01904b"/><path d="M316.061 57.021s-4.794-28.125 5.667-47.085c-8.055 22.416-2.457 47.452-2.457 47.452l-3.21-.367z" fill="#09703b"/><path d="M314.252 56.781s-6.634-16.55-2.41-28.24c-2.253 13.653 4.498 28.331 4.498 28.331l-2.088-.091z" fill="#01904b"/><path d="M315.547 60.058s-5.645-14.033-2.089-23.942c-1.884 11.573 3.856 24.023 3.856 24.023l-1.767-.081z" fill="#01904b"/><path d="M314.428 58.77s-10.866-18.235-8.052-31.597c-.132 15.461 10.524 31.588 10.524 31.588l-2.472.009zM320.583 53.196s5.422-17.755 16.37-28.563c-10.646 13.145-14.763 29.062-14.763 29.062l-1.607-.499z" fill="#01904b"/><path d="M319.494 56.707s4.582-15.059 13.844-24.226c-9.005 11.148-12.482 24.651-12.482 24.651l-1.362-.425z" fill="#01904b"/><path d="M319.433 55.208s3.136-20.256 14.04-33.002c-10.122 15.356-12.056 33.475-12.056 33.475l-1.984-.473z" fill="#01904b"/><path d="M318.326 54.919s-.602-12.173 4.689-20.179c-4.461 9.528-3.368 20.383-3.368 20.383l-1.321-.204z" fill="#01904b"/><path d="M318.436 57.326s-.526-10.322 3.946-17.111c-3.767 8.079-2.831 17.286-2.831 17.286l-1.115-.175z" fill="#01904b"/><path d="M318.001 56.34s-2.949-13.647 1.806-22.934c-3.497 10.952-.215 23.093-.215 23.093l-1.591-.159zM324.185 57.179s5.421-17.752 16.37-28.563c-10.647 13.146-14.764 29.062-14.764 29.062l-1.606-.499z" fill="#01904b"/><path d="M323.095 60.693s4.583-15.061 13.844-24.228c-9.004 11.148-12.483 24.651-12.483 24.651l-1.361-.423z" fill="#01904b"/><path d="M323.035 59.192s3.134-20.253 14.038-33c-10.123 15.357-12.058 33.473-12.058 33.473l-1.98-.473z" fill="#09703b"/><path d="M321.928 58.903s-.605-12.17 4.688-20.178c-4.462 9.53-3.369 20.383-3.369 20.383l-1.319-.205z" fill="#01904b"/><path d="M322.034 61.312s-.524-10.322 3.947-17.111c-3.767 8.08-2.83 17.286-2.83 17.286l-1.117-.175z" fill="#01904b"/><path d="M321.601 60.324s-2.95-13.646 1.807-22.932c-3.498 10.954-.217 23.092-.217 23.092l-1.59-.16z" fill="#09703b"/><path d="M295.286 50.903s-7.307-23.652-.165-40.061c-4.643 19.255 3.039 40.262 3.039 40.262l-2.874-.201z" fill="#01904b"/><path d="M296.708 55.586s-6.225-20.058-.201-33.967c-3.901 16.323 2.634 34.139 2.634 34.139l-2.433-.172z" fill="#01904b"/><path d="M295.306 53.725s-12.968-26.181-7.583-45.004c-1.914 21.884 11.002 45.076 11.002 45.076l-3.419-.072z" fill="#01904b"/><path d="M293.372 53.654S281.81 38.575 282.83 27.157c1.569 13.104 12.722 26.406 12.722 26.406l-2.18.091z" fill="#01904b"/><path d="M295.644 56.641s-9.825-12.786-8.985-22.461c1.357 11.106 10.832 22.386 10.832 22.386l-1.847.075z" fill="#01904b"/><path d="M294.121 55.52s-16.412-16.311-17.322-29.187c4.276 14.63 19.873 28.966 19.873 28.966l-2.551.221z" fill="#09703b"/><path d="M304.234 54.944s-7.311-23.65-.165-40.059c-4.645 19.253 3.037 40.261 3.037 40.261l-2.872-.202z" fill="#01904b"/><path d="M305.654 59.629s-6.226-20.06-.201-33.967c-3.902 16.321 2.635 34.14 2.635 34.14l-2.434-.173z" fill="#01904b"/><path d="M304.252 57.767s-12.969-26.182-7.585-45.004c-1.915 21.885 11.004 45.075 11.004 45.075l-3.419-.071z" fill="#09703b"/><path d="M302.32 57.696s-11.565-15.079-10.544-26.495c1.571 13.104 12.723 26.403 12.723 26.403l-2.179.092z" fill="#01904b"/><path d="M304.59 60.683s-9.828-12.786-8.986-22.459c1.357 11.106 10.832 22.384 10.832 22.384l-1.846.075z" fill="#01904b"/><path d="M303.068 59.562s-16.41-16.312-17.321-29.187c4.274 14.632 19.87 28.966 19.87 28.966l-2.549.221zM307.829 53.763s.528-17.252 8.741-28.411c-7.233 13.339-6.942 28.744-6.942 28.744l-1.799-.333z" fill="#01904b"/><path d="M307.706 57.178s.432-14.632 7.372-24.093c-6.108 11.313-5.848 24.376-5.848 24.376l-1.524-.283z" fill="#01904b"/><path d="M307.218 55.764s-2.547-19.42 5.068-32.406c-6.065 15.386-2.891 32.685-2.891 32.685l-2.177-.279z" fill="#01904b"/><path d="M305.992 55.586s-4.095-11.456-.92-19.482c-1.885 9.394 2.34 19.563 2.34 19.563l-1.42-.081z" fill="#09703b"/><path d="M306.79 57.856s-3.486-9.719-.81-16.52c-1.581 7.964 2.014 16.587 2.014 16.587l-1.204-.067z" fill="#01904b"/><path d="M306.06 56.959s-6.937-12.653-4.676-21.842c-.486 10.658 6.363 21.855 6.363 21.855l-1.687-.013zM312.68 57.223s.531-17.252 8.741-28.411c-7.233 13.342-6.939 28.742-6.939 28.742l-1.802-.331z" fill="#01904b"/><path d="M312.558 60.637s.434-14.634 7.372-24.095c-6.109 11.315-5.846 24.376-5.846 24.376l-1.526-.281z" fill="#01904b"/><path d="M312.071 59.224s-2.546-19.42 5.067-32.407c-6.062 15.386-2.889 32.685-2.889 32.685l-2.178-.278z" fill="#09703b"/><path d="M310.843 59.046s-4.096-11.456-.918-19.484c-1.886 9.394 2.338 19.563 2.338 19.563l-1.42-.079z" fill="#09703b"/><path d="M311.641 61.314s-3.486-9.715-.81-16.52c-1.581 7.964 2.012 16.589 2.012 16.589l-1.202-.069z" fill="#01904b"/><path d="M310.912 60.417s-6.936-12.651-4.678-21.838c-.485 10.654 6.362 21.852 6.362 21.852l-1.684-.014z" fill="#01904b"/><g><path d="M277.007 48.965s-.163-25.028 11.273-41.347c-9.884 19.47-8.613 41.802-8.613 41.802l-2.66-.455z" fill="#01904b"/><path d="M277.015 53.92s-.165-21.229 9.5-35.065c-8.348 16.51-7.25 35.452-7.25 35.452l-2.25-.387z" fill="#01904b"/><path d="M276.22 51.879s-4.793-28.124 5.668-47.082c-8.055 22.414-2.456 47.449-2.456 47.449l-3.212-.367z" fill="#09703b"/><path d="M274.413 51.639s-6.631-16.547-2.413-28.24c-2.251 13.653 4.498 28.333 4.498 28.333l-2.085-.093z" fill="#01904b"/><path d="M275.706 54.919s-5.643-14.035-2.087-23.946c-1.886 11.575 3.855 24.025 3.855 24.025l-1.768-.079z" fill="#01904b"/><path d="M274.588 53.63s-10.863-18.235-8.052-31.599c-.132 15.462 10.525 31.589 10.525 31.589l-2.473.01zM284.312 53.904s-.163-25.028 11.274-41.347c-9.884 19.468-8.616 41.8-8.616 41.8l-2.658-.453z" fill="#01904b"/><path d="M284.32 58.859s-.164-21.231 9.501-35.065c-8.348 16.506-7.248 35.45-7.248 35.45l-2.253-.385z" fill="#01904b"/><path d="M283.526 56.818s-4.793-28.124 5.669-47.084c-8.055 22.415-2.457 47.449-2.457 47.449l-3.212-.365z" fill="#09703b"/><path d="M281.719 56.578s-6.633-16.547-2.41-28.24c-2.254 13.653 4.497 28.331 4.497 28.331l-2.087-.091z" fill="#01904b"/><path d="M283.014 59.855s-5.646-14.034-2.09-23.944c-1.884 11.577 3.856 24.023 3.856 24.023l-1.766-.079z" fill="#01904b"/><path d="M281.893 58.567s-10.864-18.235-8.05-31.597c-.133 15.46 10.524 31.589 10.524 31.589l-2.474.008zM288.049 52.991s5.423-17.752 16.371-28.562c-10.646 13.146-14.764 29.06-14.764 29.06l-1.607-.498z" fill="#01904b"/><path d="M286.961 56.505s4.581-15.059 13.843-24.228c-9.005 11.15-12.483 24.651-12.483 24.651l-1.36-.423z" fill="#01904b"/><path d="M286.9 55.006s3.135-20.256 14.039-33.002c-10.123 15.357-12.057 33.475-12.057 33.475l-1.982-.473z" fill="#01904b"/><path d="M285.792 54.714s-.602-12.17 4.691-20.176c-4.463 9.526-3.37 20.383-3.37 20.383l-1.321-.207z" fill="#01904b"/><path d="M285.902 57.124s-.525-10.322 3.946-17.111c-3.768 8.079-2.83 17.286-2.83 17.286l-1.116-.175z" fill="#01904b"/><path d="M285.466 56.137s-2.947-13.647 1.808-22.934c-3.5 10.952-.217 23.09-.217 23.09l-1.591-.156zM291.65 56.977s5.422-17.754 16.372-28.563c-10.649 13.145-14.765 29.061-14.765 29.061l-1.607-.498z" fill="#01904b"/><path d="M290.561 60.489s4.584-15.059 13.843-24.226c-9.002 11.148-12.482 24.651-12.482 24.651l-1.361-.425z" fill="#01904b"/><path d="M290.5 58.99s3.136-20.256 14.04-33.002c-10.124 15.358-12.058 33.477-12.058 33.477l-1.982-.475z" fill="#09703b"/><path d="M289.393 58.7s-.603-12.17 4.689-20.18c-4.461 9.53-3.368 20.385-3.368 20.385l-1.321-.205z" fill="#01904b"/><path d="M289.501 61.11s-.524-10.325 3.946-17.114c-3.766 8.082-2.829 17.289-2.829 17.289l-1.117-.175z" fill="#01904b"/><path d="M289.066 60.121s-2.948-13.646 1.808-22.934c-3.498 10.954-.216 23.092-.216 23.092l-1.592-.158z" fill="#09703b"/><path d="M262.753 50.7s-7.31-23.652-.164-40.061c-4.646 19.255 3.036 40.262 3.036 40.262l-2.872-.201z" fill="#01904b"/><path d="M264.173 55.383s-6.224-20.059-.199-33.969c-3.903 16.323 2.633 34.142 2.633 34.142l-2.434-.173z" fill="#01904b"/><path d="M262.772 53.523s-12.968-26.184-7.583-45.006c-1.916 21.885 11.001 45.075 11.001 45.075l-3.418-.069z" fill="#01904b"/><path d="M260.838 53.449s-11.563-15.079-10.542-26.495c1.569 13.104 12.723 26.404 12.723 26.404l-2.181.091z" fill="#01904b"/><path d="M263.111 56.439s-9.825-12.786-8.986-22.461c1.358 11.104 10.833 22.386 10.833 22.386l-1.847.075z" fill="#01904b"/><path d="M261.586 55.318s-16.41-16.313-17.321-29.189c4.276 14.63 19.871 28.968 19.871 28.968l-2.55.221z" fill="#09703b"/><path d="M271.699 54.742s-7.31-23.65-.165-40.061c-4.643 19.255 3.038 40.263 3.038 40.263l-2.873-.202z" fill="#01904b"/><path d="M273.12 59.428s-6.227-20.061-.202-33.971c-3.901 16.323 2.636 34.142 2.636 34.142l-2.434-.171z" fill="#01904b"/><path d="M271.718 57.565s-12.968-26.181-7.585-45.004c-1.914 21.883 11.003 45.075 11.003 45.075l-3.418-.071z" fill="#09703b"/><path d="M269.784 57.491s-11.563-15.077-10.542-26.493c1.57 13.104 12.722 26.401 12.722 26.401l-2.18.092z" fill="#01904b"/><path d="M272.055 60.481s-9.826-12.786-8.986-22.461c1.358 11.107 10.833 22.386 10.833 22.386l-1.847.075z" fill="#01904b"/><path d="M270.533 59.359s-16.41-16.312-17.321-29.186c4.273 14.63 19.87 28.966 19.87 28.966l-2.549.22zM275.293 53.561s.53-17.253 8.743-28.411c-7.235 13.34-6.94 28.744-6.94 28.744l-1.803-.333z" fill="#01904b"/><path d="M275.172 56.975s.433-14.634 7.374-24.095c-6.11 11.315-5.849 24.379-5.849 24.379l-1.525-.284z" fill="#01904b"/><path d="M274.684 55.562s-2.547-19.42 5.069-32.407c-6.064 15.387-2.892 32.685-2.892 32.685l-2.177-.278z" fill="#01904b"/><path d="M273.457 55.383s-4.093-11.458-.918-19.482c-1.885 9.394 2.34 19.562 2.34 19.562l-1.422-.08z" fill="#09703b"/><path d="M274.255 57.652s-3.484-9.717-.809-16.518c-1.581 7.962 2.012 16.587 2.012 16.587l-1.203-.069z" fill="#01904b"/><path d="M273.526 56.755s-6.935-12.651-4.676-21.838c-.487 10.654 6.362 21.852 6.362 21.852l-1.686-.014zM280.145 57.019s.531-17.253 8.743-28.411c-7.235 13.344-6.94 28.744-6.94 28.744l-1.803-.333z" fill="#01904b"/><path d="M280.024 60.433s.434-14.632 7.372-24.093c-6.109 11.313-5.846 24.377-5.846 24.377l-1.526-.284z" fill="#01904b"/><path d="M279.535 59.02s-2.546-19.418 5.069-32.405c-6.064 15.387-2.89 32.684-2.89 32.684l-2.179-.279z" fill="#09703b"/><path d="M278.309 58.843s-4.096-11.456-.919-19.484c-1.886 9.394 2.34 19.563 2.34 19.563l-1.421-.079z" fill="#09703b"/><path d="M279.107 61.112s-3.484-9.717-.809-16.52c-1.582 7.964 2.012 16.587 2.012 16.587l-1.203-.067z" fill="#01904b"/><path d="M278.377 60.215s-6.935-12.651-4.677-21.84c-.486 10.656 6.363 21.854 6.363 21.854l-1.686-.014z" fill="#01904b"/></g><g><path d="M58.172 46.325s-.164-25.028 11.272-41.348c-9.883 19.468-8.614 41.8-8.614 41.8l-2.658-.452z" fill="#01904b"/><path d="M58.179 51.28s-.164-21.23 9.502-35.064c-8.348 16.506-7.251 35.448-7.251 35.448l-2.251-.384z" fill="#01904b"/><path d="M57.385 49.239s-4.793-28.124 5.667-47.084c-8.054 22.416-2.456 47.448-2.456 47.448l-3.211-.364z" fill="#09703b"/><path d="M55.578 48.999s-6.631-16.548-2.411-28.242c-2.253 13.655 4.498 28.333 4.498 28.333l-2.087-.091z" fill="#01904b"/><path d="M56.871 52.276s-5.643-14.037-2.088-23.944c-1.885 11.575 3.856 24.025 3.856 24.025l-1.768-.081z" fill="#01904b"/><path d="M55.753 50.988s-10.864-18.235-8.052-31.599c-.133 15.464 10.525 31.59 10.525 31.59l-2.473.009zM65.476 51.262S65.315 26.234 76.75 9.914c-9.883 19.468-8.615 41.802-8.615 41.802l-2.659-.454z" fill="#01904b"/><path d="M65.484 56.217s-.164-21.23 9.5-35.064c-8.346 16.508-7.248 35.45-7.248 35.45l-2.252-.386z" fill="#01904b"/><path d="M64.69 54.174s-4.791-28.123 5.668-47.08c-8.054 22.413-2.456 47.448-2.456 47.448l-3.212-.368z" fill="#09703b"/><path d="M62.884 53.938s-6.633-16.55-2.411-28.244C58.22 39.35 64.97 54.029 64.97 54.029l-2.086-.091z" fill="#01904b"/><path d="M64.178 57.213s-5.645-14.035-2.09-23.944c-1.884 11.575 3.855 24.026 3.855 24.026l-1.765-.082z" fill="#01904b"/><path d="M63.058 55.925S52.194 37.69 55.007 24.326c-.132 15.464 10.525 31.591 10.525 31.591l-2.474.008zM69.215 50.351s5.421-17.757 16.37-28.563C74.939 34.933 70.82 50.847 70.82 50.847l-1.605-.496z" fill="#01904b"/><path d="M68.127 53.864s4.581-15.062 13.843-24.228c-9.005 11.149-12.483 24.651-12.483 24.651l-1.36-.423z" fill="#01904b"/><path d="M68.064 52.364S71.2 32.108 82.103 19.362C71.981 34.718 70.048 52.836 70.048 52.836l-1.984-.472z" fill="#01904b"/><path d="M66.957 52.072s-.603-12.17 4.69-20.178c-4.462 9.53-3.371 20.385-3.371 20.385l-1.319-.207z" fill="#01904b"/><path d="M67.065 54.484s-.525-10.325 3.948-17.113c-3.768 8.081-2.831 17.286-2.831 17.286l-1.117-.173z" fill="#01904b"/><path d="M66.63 53.493s-2.948-13.646 1.809-22.932c-3.5 10.952-.218 23.09-.218 23.09l-1.591-.158zM72.814 54.337s5.422-17.754 16.372-28.565C78.537 38.917 74.421 54.833 74.421 54.833l-1.607-.496z" fill="#01904b"/><path d="M71.726 57.849s4.583-15.061 13.843-24.228c-9.004 11.148-12.483 24.651-12.483 24.651l-1.36-.423z" fill="#01904b"/><path d="M71.665 56.348s3.134-20.254 14.04-33C75.582 38.703 73.648 56.82 73.648 56.82l-1.983-.472z" fill="#09703b"/><path d="M70.558 56.058s-.604-12.171 4.689-20.181c-4.461 9.531-3.369 20.385-3.369 20.385l-1.32-.204z" fill="#01904b"/><path d="M70.666 58.468s-.523-10.322 3.946-17.111c-3.767 8.079-2.829 17.284-2.829 17.284l-1.117-.173z" fill="#01904b"/><path d="M70.231 57.482s-2.948-13.647 1.808-22.936c-3.501 10.954-.218 23.093-.218 23.093l-1.59-.157z" fill="#09703b"/><path d="M43.918 48.056s-7.309-23.65-.165-40.059c-4.645 19.255 3.038 40.262 3.038 40.262l-2.873-.203z" fill="#01904b"/><path d="M45.339 52.743s-6.226-20.059-.202-33.969c-3.9 16.324 2.633 34.14 2.633 34.14l-2.431-.171z" fill="#01904b"/><path d="M43.937 50.879S30.97 24.7 36.354 5.875c-1.916 21.886 11 45.077 11 45.077l-3.417-.073z" fill="#01904b"/><path d="M42.004 50.808S30.441 35.729 31.46 24.313c1.571 13.105 12.723 26.406 12.723 26.406l-2.179.089z" fill="#01904b"/><path d="M44.274 53.797s-9.826-12.786-8.986-22.461C36.646 42.442 46.122 53.72 46.122 53.72l-1.848.077z" fill="#01904b"/><path d="M42.751 52.673s-16.41-16.31-17.323-29.187c4.276 14.632 19.874 28.966 19.874 28.966l-2.551.221z" fill="#09703b"/><path d="M52.864 52.1s-7.31-23.652-.165-40.061c-4.645 19.255 3.037 40.264 3.037 40.264l-2.872-.203z" fill="#01904b"/><path d="M54.286 56.785s-6.228-20.06-.204-33.969c-3.901 16.325 2.635 34.141 2.635 34.141l-2.431-.172z" fill="#01904b"/><path d="M52.883 54.924S39.914 28.741 45.299 9.918c-1.916 21.886 11.002 45.078 11.002 45.078l-3.418-.072z" fill="#09703b"/><path d="M50.95 54.851S39.386 39.772 40.407 28.354C41.979 41.46 53.128 54.76 53.128 54.76l-2.178.091z" fill="#01904b"/><path d="M53.221 57.841s-9.827-12.788-8.987-22.463c1.358 11.106 10.833 22.386 10.833 22.386l-1.846.077z" fill="#01904b"/><path d="M51.698 56.719S35.288 40.407 34.377 27.53c4.274 14.632 19.871 28.968 19.871 28.968l-2.55.221zM56.459 50.919s.529-17.252 8.743-28.413C57.967 35.85 58.26 51.252 58.26 51.252l-1.801-.333z" fill="#01904b"/><path d="M56.337 54.333s.432-14.634 7.373-24.095c-6.11 11.315-5.849 24.379-5.849 24.379l-1.524-.284z" fill="#01904b"/><path d="M55.848 52.92s-2.546-19.42 5.071-32.406c-6.064 15.388-2.891 32.684-2.891 32.684l-2.18-.278z" fill="#01904b"/><path d="M54.623 52.741s-4.095-11.455-.92-19.483c-1.883 9.396 2.34 19.563 2.34 19.563l-1.42-.08z" fill="#09703b"/><path d="M55.42 55.01s-3.486-9.715-.809-16.52c-1.583 7.964 2.013 16.59 2.013 16.59l-1.204-.07z" fill="#01904b"/><path d="M54.691 54.115s-6.935-12.653-4.677-21.84c-.486 10.654 6.363 21.852 6.363 21.852l-1.686-.012zM61.311 54.378s.531-17.252 8.742-28.41C62.818 39.31 63.111 54.71 63.111 54.71l-1.8-.332z" fill="#01904b"/><path d="M61.188 57.793s.434-14.634 7.374-24.095c-6.11 11.313-5.847 24.379-5.847 24.379l-1.527-.284z" fill="#01904b"/><path d="M60.699 56.379s-2.545-19.42 5.069-32.406c-6.063 15.388-2.889 32.684-2.889 32.684l-2.18-.278z" fill="#09703b"/><path d="M59.474 56.201s-4.095-11.456-.918-19.481c-1.886 9.394 2.338 19.561 2.338 19.561l-1.42-.08z" fill="#09703b"/><path d="M60.271 58.47s-3.485-9.717-.809-16.52c-1.581 7.964 2.012 16.589 2.012 16.589l-1.203-.069z" fill="#01904b"/><path d="M59.542 57.573s-6.936-12.651-4.676-21.84c-.487 10.658 6.363 21.853 6.363 21.853l-1.687-.013z" fill="#01904b"/></g><g><path d="M180.191 48.199s-.163-25.026 11.273-41.346c-9.883 19.468-8.614 41.8-8.614 41.8l-2.659-.454z" fill="#01904b"/><path d="M180.198 53.156s-.165-21.232 9.501-35.066c-8.347 16.51-7.249 35.45-7.249 35.45l-2.252-.384z" fill="#01904b"/><path d="M179.405 51.113s-4.793-28.123 5.668-47.082c-8.054 22.415-2.456 47.448-2.456 47.448l-3.212-.366z" fill="#09703b"/><path d="M177.597 50.875s-6.632-16.55-2.411-28.242c-2.253 13.655 4.497 28.333 4.497 28.333l-2.086-.091z" fill="#01904b"/><path d="M178.891 54.152s-5.643-14.035-2.088-23.944c-1.885 11.573 3.856 24.026 3.856 24.026l-1.768-.082z" fill="#01904b"/><path d="M177.771 52.864s-10.863-18.237-8.051-31.601c-.132 15.466 10.526 31.591 10.526 31.591l-2.475.01zM187.496 53.138s-.163-25.028 11.273-41.348c-9.884 19.468-8.615 41.8-8.615 41.8l-2.658-.452z" fill="#01904b"/><path d="M187.504 58.095s-.165-21.232 9.499-35.066c-8.346 16.508-7.247 35.45-7.247 35.45l-2.252-.384z" fill="#01904b"/><path d="M186.71 56.05s-4.792-28.123 5.667-47.081c-8.054 22.414-2.456 47.45-2.456 47.45l-3.211-.369z" fill="#09703b"/><path d="M184.902 55.814s-6.632-16.552-2.412-28.242c-2.251 13.656 4.499 28.333 4.499 28.333l-2.087-.091z" fill="#01904b"/><path d="M186.198 59.091s-5.645-14.037-2.089-23.946c-1.885 11.575 3.855 24.023 3.855 24.023l-1.766-.077z" fill="#01904b"/><path d="M185.078 57.803s-10.866-18.237-8.052-31.599c-.132 15.46 10.523 31.589 10.523 31.589l-2.471.01zM191.235 52.227s5.42-17.754 16.369-28.565c-10.645 13.147-14.764 29.062-14.764 29.062l-1.605-.497z" fill="#01904b"/><path d="M190.145 55.74s4.582-15.062 13.843-24.23c-9.004 11.15-12.484 24.653-12.484 24.653l-1.359-.423z" fill="#01904b"/><path d="M190.083 54.24s3.135-20.256 14.04-33.004c-10.124 15.358-12.057 33.476-12.057 33.476l-1.983-.472z" fill="#01904b"/><path d="M188.977 53.95s-.604-12.17 4.689-20.18c-4.461 9.53-3.369 20.385-3.369 20.385l-1.32-.205z" fill="#01904b"/><path d="M189.085 56.36s-.525-10.325 3.947-17.114c-3.768 8.082-2.831 17.286-2.831 17.286l-1.116-.172z" fill="#01904b"/><path d="M188.65 55.371s-2.947-13.647 1.807-22.934c-3.497 10.952-.216 23.09-.216 23.09l-1.591-.156zM194.833 56.211s5.422-17.753 16.37-28.564c-10.647 13.145-14.762 29.061-14.762 29.061l-1.608-.497z" fill="#01904b"/><path d="M193.745 59.725s4.583-15.061 13.844-24.228c-9.004 11.148-12.484 24.651-12.484 24.651l-1.36-.423z" fill="#01904b"/><path d="M193.685 58.224s3.133-20.254 14.039-33c-10.122 15.356-12.056 33.473-12.056 33.473l-1.983-.473z" fill="#09703b"/><path d="M192.578 57.934s-.604-12.171 4.688-20.181c-4.462 9.532-3.368 20.385-3.368 20.385l-1.32-.204z" fill="#01904b"/><path d="M192.685 60.344s-.524-10.322 3.947-17.113c-3.767 8.081-2.831 17.288-2.831 17.288l-1.116-.175z" fill="#01904b"/><path d="M192.25 59.357s-2.949-13.65 1.808-22.936c-3.499 10.954-.217 23.093-.217 23.093l-1.591-.157z" fill="#09703b"/><path d="M165.938 49.932s-7.31-23.65-.166-40.059c-4.644 19.255 3.038 40.261 3.038 40.261l-2.872-.202z" fill="#01904b"/><path d="M167.359 54.617s-6.226-20.057-.202-33.969c-3.901 16.323 2.634 34.142 2.634 34.142l-2.432-.173z" fill="#01904b"/><path d="M165.956 52.757s-12.967-26.183-7.583-45.006c-1.916 21.885 11.001 45.075 11.001 45.075l-3.418-.069z" fill="#01904b"/><path d="M164.023 52.683s-11.565-15.079-10.545-26.495c1.573 13.103 12.724 26.404 12.724 26.404l-2.179.091z" fill="#01904b"/><path d="M166.294 55.673s-9.825-12.786-8.985-22.461c1.357 11.107 10.832 22.386 10.832 22.386l-1.847.075z" fill="#01904b"/><path d="M164.77 54.549s-16.411-16.31-17.321-29.187c4.276 14.632 19.873 28.968 19.873 28.968l-2.552.219z" fill="#09703b"/><path d="M174.884 53.976s-7.312-23.65-.165-40.061c-4.643 19.255 3.038 40.264 3.038 40.264l-2.873-.203z" fill="#01904b"/><path d="M176.304 58.661s-6.227-20.06-.202-33.969c-3.902 16.326 2.635 34.142 2.635 34.142l-2.433-.173z" fill="#01904b"/><path d="M174.902 56.8s-12.968-26.183-7.584-45.006C165.403 33.678 178.32 56.87 178.32 56.87l-3.418-.07z" fill="#09703b"/><path d="M172.968 56.727s-11.563-15.079-10.542-26.495c1.571 13.104 12.722 26.404 12.722 26.404l-2.18.091z" fill="#01904b"/><path d="M175.24 59.716s-9.827-12.786-8.986-22.463c1.357 11.106 10.832 22.386 10.832 22.386l-1.846.077z" fill="#01904b"/><path d="M173.717 58.595s-16.41-16.313-17.32-29.188c4.274 14.63 19.87 28.966 19.87 28.966l-2.55.222zM178.479 52.795s.53-17.253 8.741-28.413c-7.233 13.342-6.941 28.746-6.941 28.746l-1.8-.333z" fill="#01904b"/><path d="M178.356 56.209s.433-14.632 7.373-24.095c-6.11 11.313-5.848 24.379-5.848 24.379l-1.525-.284z" fill="#01904b"/><path d="M177.868 54.795s-2.547-19.418 5.069-32.406c-6.064 15.388-2.89 32.684-2.89 32.684l-2.179-.278z" fill="#01904b"/><path d="M176.641 54.615s-4.094-11.454-.918-19.479c-1.885 9.394 2.34 19.561 2.34 19.561l-1.422-.082z" fill="#09703b"/><path d="M177.439 56.886s-3.485-9.715-.81-16.52c-1.581 7.964 2.014 16.589 2.014 16.589l-1.204-.069z" fill="#01904b"/><path d="M176.709 55.991s-6.936-12.653-4.676-21.84c-.486 10.654 6.363 21.852 6.363 21.852l-1.687-.012zM183.331 56.253s.529-17.25 8.741-28.409c-7.235 13.342-6.941 28.744-6.941 28.744l-1.8-.335z" fill="#01904b"/><path d="M183.207 59.669s.434-14.634 7.374-24.095c-6.109 11.313-5.848 24.379-5.848 24.379l-1.526-.284z" fill="#01904b"/><path d="M182.719 58.255s-2.544-19.42 5.069-32.406c-6.063 15.388-2.888 32.682-2.888 32.682l-2.181-.276z" fill="#09703b"/><path d="M181.493 58.077s-4.096-11.458-.917-19.483c-1.886 9.394 2.337 19.563 2.337 19.563l-1.42-.08z" fill="#09703b"/><path d="M182.291 60.346s-3.485-9.717-.81-16.52c-1.581 7.964 2.014 16.587 2.014 16.587l-1.204-.067z" fill="#01904b"/><path d="M181.561 59.449s-6.935-12.649-4.676-21.84c-.486 10.656 6.362 21.854 6.362 21.854l-1.686-.014z" fill="#01904b"/></g><g><path d="M210.812 48.302s-.163-25.028 11.273-41.347c-9.884 19.47-8.614 41.8-8.614 41.8l-2.659-.453z" fill="#01904b"/><path d="M210.818 53.257s-.163-21.229 9.503-35.062c-8.347 16.506-7.249 35.45-7.249 35.45l-2.254-.388z" fill="#01904b"/><path d="M210.026 51.216s-4.794-28.122 5.667-47.082c-8.053 22.415-2.456 47.449-2.456 47.449l-3.211-.367z" fill="#09703b"/><path d="M208.218 50.978s-6.631-16.549-2.411-28.242c-2.252 13.655 4.498 28.333 4.498 28.333l-2.087-.091z" fill="#01904b"/><path d="M209.512 54.253s-5.643-14.034-2.088-23.942c-1.886 11.573 3.857 24.023 3.857 24.023l-1.769-.081z" fill="#01904b"/><path d="M208.395 52.967s-10.866-18.235-8.052-31.599c-.133 15.462 10.525 31.589 10.525 31.589l-2.473.01zM218.118 53.241s-.162-25.028 11.273-41.348c-9.884 19.468-8.615 41.8-8.615 41.8l-2.658-.452z" fill="#01904b"/><path d="M218.125 58.196s-.165-21.229 9.499-35.064c-8.347 16.508-7.247 35.45-7.247 35.45l-2.252-.386z" fill="#01904b"/><path d="M217.331 56.155S212.538 28.031 223 9.071c-8.055 22.416-2.458 47.452-2.458 47.452l-3.211-.368z" fill="#09703b"/><path d="M215.524 55.915s-6.633-16.55-2.411-28.242c-2.253 13.655 4.498 28.335 4.498 28.335l-2.087-.093z" fill="#01904b"/><path d="M216.818 59.192s-5.645-14.035-2.089-23.944c-1.884 11.575 3.856 24.023 3.856 24.023l-1.767-.079z" fill="#01904b"/><path d="M215.699 57.904s-10.865-18.235-8.052-31.597c-.131 15.46 10.526 31.588 10.526 31.588l-2.474.009zM221.855 52.33s5.422-17.757 16.369-28.563c-10.644 13.143-14.762 29.06-14.762 29.06l-1.607-.497z" fill="#01904b"/><path d="M220.768 55.842s4.58-15.061 13.842-24.226c-9.005 11.148-12.483 24.649-12.483 24.649l-1.359-.423z" fill="#01904b"/><path d="M220.706 54.343s3.134-20.256 14.037-33.002c-10.122 15.356-12.054 33.475-12.054 33.475l-1.983-.473z" fill="#01904b"/><path d="M219.599 54.051s-.604-12.171 4.689-20.179c-4.462 9.53-3.369 20.383-3.369 20.383l-1.32-.204z" fill="#01904b"/><path d="M219.707 56.461s-.525-10.322 3.947-17.111c-3.768 8.079-2.831 17.286-2.831 17.286l-1.116-.175z" fill="#01904b"/><path d="M219.271 55.474s-2.948-13.647 1.809-22.934c-3.5 10.952-.216 23.091-.216 23.091l-1.593-.157zM227.062 56.813l-1.606-.499M224.367 59.828s4.582-15.061 13.843-24.228c-9.004 11.148-12.483 24.651-12.483 24.651l-1.36-.423z" fill="#01904b"/><path d="M224.306 58.327s3.134-20.254 14.039-33C228.221 40.684 226.288 58.8 226.288 58.8l-1.982-.473z" fill="#09703b"/><path d="M223.2 58.037s-.604-12.17 4.688-20.18c-4.461 9.532-3.368 20.383-3.368 20.383l-1.32-.203z" fill="#01904b"/><path d="M223.307 60.447s-.523-10.324 3.946-17.111c-3.768 8.08-2.829 17.284-2.829 17.284l-1.117-.173z" fill="#01904b"/><path d="M222.872 59.461s-2.949-13.649 1.808-22.936c-3.499 10.954-.218 23.092-.218 23.092l-1.59-.156z" fill="#09703b"/><path d="M196.56 50.037s-7.309-23.652-.166-40.061c-4.643 19.253 3.038 40.262 3.038 40.262l-2.872-.201z" fill="#01904b"/><path d="M197.98 54.72s-6.224-20.059-.202-33.969c-3.902 16.323 2.634 34.139 2.634 34.139l-2.432-.17z" fill="#01904b"/><path d="M196.578 52.858s-12.967-26.179-7.583-45.004C187.08 29.74 199.996 52.93 199.996 52.93l-3.418-.072z" fill="#01904b"/><path d="M194.644 52.787s-11.564-15.079-10.543-26.495c1.572 13.103 12.723 26.406 12.723 26.406l-2.18.089z" fill="#01904b"/><path d="M196.917 55.776s-9.826-12.786-8.986-22.461c1.355 11.106 10.831 22.384 10.831 22.384l-1.845.077z" fill="#01904b"/><path d="M195.393 54.655s-16.41-16.313-17.321-29.189c4.275 14.63 19.872 28.968 19.872 28.968l-2.551.221z" fill="#09703b"/><path d="M205.504 54.079s-7.309-23.65-.165-40.061c-4.643 19.255 3.037 40.261 3.037 40.261l-2.872-.2z" fill="#01904b"/><path d="M206.927 58.764s-6.226-20.059-.204-33.969c-3.901 16.323 2.634 34.142 2.634 34.142l-2.43-.173z" fill="#01904b"/><path d="M205.524 56.902s-12.969-26.182-7.584-45.004c-1.916 21.883 11.003 45.075 11.003 45.075l-3.419-.071z" fill="#09703b"/><path d="M203.591 56.83s-11.563-15.079-10.542-26.497c1.57 13.105 12.721 26.403 12.721 26.403l-2.179.094z" fill="#01904b"/><path d="M205.861 59.82s-9.826-12.788-8.985-22.463c1.358 11.106 10.833 22.386 10.833 22.386l-1.848.077z" fill="#01904b"/><path d="M204.338 58.696s-16.41-16.31-17.319-29.187c4.272 14.63 19.869 28.967 19.869 28.967l-2.55.22zM209.101 52.898s.529-17.252 8.741-28.411c-7.233 13.34-6.942 28.744-6.942 28.744l-1.799-.333z" fill="#01904b"/><path d="M208.979 56.312s.433-14.634 7.373-24.095c-6.11 11.313-5.848 24.379-5.848 24.379l-1.525-.284z" fill="#01904b"/><path d="M208.49 54.899s-2.547-19.42 5.069-32.407c-6.064 15.388-2.891 32.685-2.891 32.685l-2.178-.278z" fill="#01904b"/><path d="M207.263 54.72s-4.093-11.456-.918-19.482c-1.885 9.394 2.339 19.561 2.339 19.561l-1.421-.079z" fill="#09703b"/><path d="M208.061 56.987s-3.486-9.713-.81-16.518c-1.582 7.964 2.013 16.587 2.013 16.587l-1.203-.069z" fill="#01904b"/><path d="M207.333 56.094s-6.936-12.653-4.678-21.84c-.487 10.654 6.363 21.85 6.363 21.85l-1.685-.01zM213.951 56.356s.53-17.25 8.742-28.409c-7.236 13.34-6.94 28.742-6.94 28.742l-1.802-.333z" fill="#01904b"/><path d="M213.828 59.772s.435-14.634 7.374-24.095c-6.11 11.313-5.848 24.377-5.848 24.377l-1.526-.282z" fill="#01904b"/><path d="M213.342 58.359s-2.546-19.42 5.068-32.407c-6.064 15.386-2.889 32.683-2.889 32.683l-2.179-.276z" fill="#09703b"/><path d="M212.115 58.18s-4.095-11.458-.918-19.484c-1.886 9.396 2.338 19.561 2.338 19.561l-1.42-.077z" fill="#09703b"/><path d="M212.913 60.447s-3.486-9.715-.81-16.518c-1.58 7.962 2.013 16.589 2.013 16.589l-1.203-.071z" fill="#01904b"/><path d="M212.182 59.552s-6.936-12.651-4.675-21.842c-.486 10.658 6.362 21.855 6.362 21.855l-1.687-.013z" fill="#01904b"/></g><g><path d="M107.291 48.626s-.164-25.028 11.272-41.348c-9.883 19.468-8.614 41.8-8.614 41.8l-2.658-.452z" fill="#01904b"/><path d="M107.298 53.581s-.165-21.229 9.501-35.065c-8.347 16.508-7.25 35.452-7.25 35.452l-2.251-.387z" fill="#01904b"/><path d="M106.504 51.54s-4.793-28.125 5.668-47.084c-8.054 22.417-2.456 47.45-2.456 47.45l-3.212-.366z" fill="#09703b"/><path d="M104.696 51.3s-6.632-16.548-2.411-28.242c-2.253 13.657 4.497 28.335 4.497 28.335l-2.086-.093z" fill="#01904b"/><path d="M105.991 54.577s-5.644-14.035-2.089-23.944c-1.886 11.577 3.856 24.026 3.856 24.026l-1.767-.082z" fill="#01904b"/><path d="M104.872 53.289S94.008 35.056 96.82 21.693c-.131 15.461 10.525 31.588 10.525 31.588l-2.473.008zM114.596 53.563s-.163-25.026 11.272-41.346c-9.883 19.468-8.615 41.8-8.615 41.8l-2.657-.454z" fill="#01904b"/><path d="M114.604 58.52s-.165-21.23 9.499-35.066c-8.346 16.508-7.247 35.452-7.247 35.452l-2.252-.386z" fill="#01904b"/><path d="M113.809 56.477s-4.791-28.125 5.667-47.083c-8.054 22.416-2.456 47.45-2.456 47.45l-3.211-.367z" fill="#09703b"/><path d="M112.002 56.237s-6.632-16.548-2.411-28.24c-2.254 13.656 4.498 28.333 4.498 28.333l-2.087-.093z" fill="#01904b"/><path d="M113.296 59.516s-5.644-14.035-2.088-23.944c-1.884 11.575 3.855 24.023 3.855 24.023l-1.767-.079z" fill="#01904b"/><path d="M112.177 58.228s-10.864-18.237-8.052-31.599c-.131 15.462 10.525 31.591 10.525 31.591l-2.473.008zM118.333 52.651s5.423-17.752 16.37-28.561c-10.646 13.143-14.763 29.06-14.763 29.06l-1.607-.499z" fill="#01904b"/><path d="M117.244 56.165s4.582-15.059 13.844-24.228c-9.005 11.149-12.483 24.651-12.483 24.651l-1.361-.423z" fill="#01904b"/><path d="M117.182 54.667s3.136-20.256 14.041-33.004c-10.123 15.358-12.057 33.476-12.057 33.476l-1.984-.472z" fill="#01904b"/><path d="M116.076 54.375s-.603-12.17 4.689-20.18c-4.461 9.53-3.369 20.385-3.369 20.385l-1.32-.205z" fill="#01904b"/><path d="M116.184 56.785s-.524-10.325 3.948-17.114c-3.768 8.082-2.832 17.289-2.832 17.289l-1.116-.175z" fill="#01904b"/><path d="M115.749 55.798s-2.948-13.649 1.808-22.936c-3.499 10.952-.217 23.092-.217 23.092l-1.591-.156zM121.934 56.636s5.422-17.753 16.37-28.562c-10.648 13.145-14.764 29.06-14.764 29.06l-1.606-.498z" fill="#01904b"/><path d="M120.845 60.149s4.582-15.061 13.844-24.226c-9.005 11.148-12.484 24.649-12.484 24.649l-1.36-.423z" fill="#01904b"/><path d="M120.784 58.65s3.134-20.256 14.039-33.002c-10.122 15.356-12.056 33.473-12.056 33.473l-1.983-.471z" fill="#09703b"/><path d="M119.678 58.361s-.604-12.171 4.687-20.179c-4.46 9.528-3.367 20.383-3.367 20.383l-1.32-.204z" fill="#01904b"/><path d="M119.784 60.771s-.524-10.324 3.947-17.113c-3.767 8.081-2.83 17.286-2.83 17.286l-1.117-.173z" fill="#01904b"/><path d="M119.349 59.782s-2.947-13.647 1.809-22.934c-3.499 10.952-.219 23.091-.219 23.091l-1.59-.157z" fill="#09703b"/><path d="M93.037 50.359s-7.309-23.65-.165-40.061c-4.645 19.255 3.037 40.261 3.037 40.261l-2.872-.2z" fill="#01904b"/><path d="M94.458 55.044s-6.225-20.059-.202-33.969c-3.902 16.323 2.634 34.142 2.634 34.142l-2.432-.173z" fill="#01904b"/><path d="M93.055 53.182S80.088 27.001 85.472 8.178c-1.915 21.886 11.002 45.075 11.002 45.075l-3.419-.071z" fill="#01904b"/><path d="M91.123 53.11S79.559 38.031 80.579 26.613c1.572 13.105 12.723 26.406 12.723 26.406l-2.179.091z" fill="#01904b"/><path d="M93.394 56.098s-9.826-12.786-8.986-22.459C85.765 44.743 95.24 56.023 95.24 56.023l-1.846.075z" fill="#01904b"/><path d="M91.871 54.976S75.459 38.665 74.549 25.788c4.275 14.632 19.872 28.97 19.872 28.97l-2.55.218z" fill="#09703b"/><path d="M101.982 54.402s-7.311-23.652-.166-40.061c-4.643 19.255 3.038 40.262 3.038 40.262l-2.872-.201z" fill="#01904b"/><path d="M103.405 59.087s-6.227-20.06-.204-33.969c-3.901 16.323 2.635 34.141 2.635 34.141l-2.431-.172z" fill="#01904b"/><path d="M102.002 57.225s-12.968-26.181-7.585-45.004c-1.915 21.884 11.002 45.076 11.002 45.076l-3.417-.072z" fill="#09703b"/><path d="M100.068 57.154S88.505 42.073 89.523 30.659c1.573 13.103 12.723 26.402 12.723 26.402l-2.178.093z" fill="#01904b"/><path d="M102.339 60.141s-9.827-12.786-8.986-22.461c1.357 11.106 10.832 22.386 10.832 22.386l-1.846.075z" fill="#01904b"/><path d="M100.817 59.02s-16.409-16.311-17.32-29.188c4.273 14.632 19.87 28.968 19.87 28.968l-2.55.22zM105.578 53.219s.529-17.25 8.742-28.411c-7.234 13.342-6.94 28.744-6.94 28.744l-1.802-.333z" fill="#01904b"/><path d="M105.456 56.634s.432-14.632 7.373-24.093c-6.11 11.313-5.849 24.379-5.849 24.379l-1.524-.286z" fill="#01904b"/><path d="M104.968 55.22s-2.547-19.418 5.069-32.404c-6.065 15.386-2.891 32.682-2.891 32.682l-2.178-.278z" fill="#01904b"/><path d="M103.741 55.044s-4.095-11.458-.918-19.483c-1.886 9.396 2.339 19.563 2.339 19.563l-1.421-.08z" fill="#09703b"/><path d="M104.539 57.313s-3.486-9.717-.81-16.522c-1.582 7.966 2.014 16.589 2.014 16.589l-1.204-.067z" fill="#01904b"/><path d="M103.809 56.418s-6.934-12.653-4.676-21.842c-.486 10.656 6.362 21.852 6.362 21.852l-1.686-.01zM110.429 56.679s.531-17.252 8.742-28.411c-7.235 13.342-6.94 28.744-6.94 28.744l-1.802-.333z" fill="#01904b"/><path d="M110.306 60.096s.434-14.634 7.374-24.097c-6.11 11.315-5.848 24.379-5.848 24.379l-1.526-.282z" fill="#01904b"/><path d="M109.818 58.68s-2.544-19.42 5.069-32.406c-6.063 15.388-2.888 32.687-2.888 32.687l-2.181-.281z" fill="#09703b"/><path d="M108.593 58.502s-4.096-11.456-.919-19.481c-1.885 9.394 2.339 19.561 2.339 19.561l-1.42-.08z" fill="#09703b"/><path d="M109.39 60.771s-3.485-9.715-.809-16.518c-1.58 7.962 2.012 16.587 2.012 16.587l-1.203-.069z" fill="#01904b"/><path d="M108.661 59.874s-6.937-12.65-4.676-21.838c-.487 10.656 6.361 21.851 6.361 21.851l-1.685-.013z" fill="#01904b"/></g><g fill="#067346"><path d="M237.529 49.658l-2.838-.715M236.893 54.198l-2.403-.61M237.159 52.282l-3.438-.695M231.791 51.167s-6.426-16.24-1.396-26.745c-2.998 12.56 3.634 27.06 3.634 27.06l-2.238-.315z"/><path d="M233.042 54.382s-5.468-13.776-1.23-22.683c-2.514 10.65 3.126 22.951 3.126 22.951l-1.896-.268z"/><path d="M231.895 53.051s-10.901-18.281-7.314-30.509c-.796 14.487 9.972 30.772 9.972 30.772l-2.658-.263zM239.431 56.592s-6.426-16.238-1.395-26.743M239.535 58.478s-10.9-18.283-7.315-30.509M219.303 49.017s-6.851-22.976 1.519-37.588c-5.804 17.55 1.559 38.088 1.559 38.088l-3.078-.5z"/><path d="M220.631 53.563s-5.839-19.49 1.222-31.879c-4.884 14.884 1.385 32.306 1.385 32.306l-2.607-.427z"/><path d="M219.204 51.663S206.38 25.7 212.961 8.632c-2.984 20.316 9.916 43.471 9.916 43.471l-3.673-.44z"/><path d="M217.131 51.387s-11.787-15.4-10.207-25.997c1.132 12.462 12.551 26.148 12.551 26.148l-2.344-.151z"/><path d="M219.445 54.436s-10.018-13.06-8.706-22.04c.989 10.561 10.694 22.171 10.694 22.171l-1.988-.131z"/><path d="M217.855 53.217s-16.942-17.082-17.374-29.256c3.973 14.188 20.122 29.33 20.122 29.33l-2.748-.074zM228.744 53.781s-6.854-22.976 1.519-37.588c-5.805 17.552 1.56 38.09 1.56 38.09l-3.079-.502z"/><path d="M230.07 58.329s-5.837-19.488 1.224-31.879c-4.882 14.882 1.385 32.304 1.385 32.304l-2.609-.425z"/><path d="M228.644 56.431s-12.825-25.965-6.243-43.033c-2.983 20.317 9.915 43.472 9.915 43.472l-3.672-.439z"/><path d="M226.572 56.151s-11.788-15.399-10.208-25.995c1.133 12.46 12.553 26.147 12.553 26.147l-2.345-.152z"/><path d="M228.885 59.202s-10.018-13.06-8.705-22.042c.989 10.562 10.69 22.171 10.69 22.171l-1.985-.129z"/><path d="M227.296 57.985S210.354 40.9 209.919 28.727c3.976 14.185 20.126 29.328 20.126 29.328l-2.749-.07zM234.578 53.573l-1.92-.508M234.006 56.685l-1.624-.432M231.914 54.875s-1.911-18.489 6.819-29.84c-7.166 13.771-4.487 30.336-4.487 30.336l-2.332-.496z"/><path d="M230.606 54.575s-3.915-11.192-.163-18.374c-2.422 8.607 1.684 18.602 1.684 18.602l-1.521-.228z"/><path d="M231.368 56.789s-3.335-9.493-.171-15.579c-2.037 7.295 1.46 15.773 1.46 15.773l-1.289-.194z"/><path d="M230.622 55.87s-6.917-12.622-4.103-20.993c-.972 9.941 5.913 21.187 5.913 21.187l-1.81-.194zM239.644 57.344l-1.921-.508M239.072 60.459l-1.623-.433M239.312 59.145l-2.33-.498M235.672 58.345s-3.915-11.19-.161-18.37c-2.424 8.605 1.683 18.601 1.683 18.601l-1.522-.231z"/><path d="M236.435 60.56s-3.336-9.491-.171-15.579c-2.035 7.295 1.459 15.774 1.459 15.774l-1.288-.195z"/><path d="M235.688 59.641s-6.917-12.619-4.102-20.99c-.973 9.939 5.912 21.187 5.912 21.187l-1.81-.197z"/></g><g fill="#067346"><path d="M139.899 47.697s.883-23.489 13.862-37.546c-11.444 17.181-11.025 38.263-11.025 38.263l-2.837-.717z"/><path d="M139.696 52.346s.723-19.928 11.691-31.849c-9.667 14.571-9.288 32.456-9.288 32.456l-2.403-.607z"/><path d="M138.928 50.345s-3.958-26.896 8.083-43.537c-9.602 20.145-4.647 44.23-4.647 44.23l-3.436-.693z"/><path d="M136.998 49.924s-6.426-16.242-1.395-26.747c-2.998 12.559 3.633 27.06 3.633 27.06l-2.238-.313z"/><path d="M138.25 53.138s-5.47-13.777-1.231-22.682c-2.514 10.65 3.126 22.949 3.126 22.949l-1.895-.267z"/><path d="M137.102 51.808s-10.901-18.285-7.315-30.511c-.795 14.487 9.972 30.772 9.972 30.772l-2.657-.261zM147.538 53.124s.883-23.49 13.863-37.548c-11.443 17.181-11.025 38.263-11.025 38.263l-2.838-.715z"/><path d="M147.337 57.773s.722-19.928 11.691-31.851c-9.667 14.57-9.289 32.456-9.289 32.456l-2.402-.605z"/><path d="M146.568 55.772s-3.958-26.898 8.084-43.539c-9.602 20.145-4.646 44.229-4.646 44.229l-3.438-.69z"/><path d="M144.637 55.349s-6.425-16.242-1.394-26.747c-3 12.56 3.632 27.061 3.632 27.061l-2.238-.314z"/><path d="M145.891 58.565s-5.471-13.776-1.23-22.684c-2.516 10.652 3.125 22.95 3.125 22.95l-1.895-.266z"/><path d="M144.742 57.233s-10.9-18.282-7.315-30.509c-.794 14.487 9.972 30.771 9.972 30.771l-2.657-.262zM151.593 52.677s6.577-16.061 18.797-25.006c-11.996 11.168-17.093 25.647-17.093 25.647l-1.704-.641z"/><path d="M150.272 55.852s5.562-13.626 15.901-21.215c-10.147 9.475-14.456 21.759-14.456 21.759l-1.445-.544z"/><path d="M150.272 54.438s4.225-18.654 16.48-29.419c-11.526 13.298-14.371 30.08-14.371 30.08l-2.109-.661z"/><path d="M149.094 54.045s-.133-11.479 5.893-18.412c-5.198 8.451-4.482 18.747-4.482 18.747l-1.411-.335z"/><path d="M149.108 56.316s-.126-9.737 4.965-15.617c-4.389 7.169-3.772 15.903-3.772 15.903l-1.193-.286z"/><path d="M148.683 55.345s-2.591-13.119 2.915-21.311c-4.225 9.89-1.212 21.633-1.212 21.633l-1.703-.322zM155.292 56.804s6.576-16.059 18.796-25.004c-11.995 11.168-17.092 25.647-17.092 25.647l-1.704-.643z"/><path d="M153.973 59.981s5.563-13.625 15.899-21.21c-10.146 9.471-14.457 21.756-14.457 21.756l-1.442-.546z"/><path d="M153.972 58.567s4.223-18.654 16.48-29.421c-11.527 13.3-14.371 30.08-14.371 30.08l-2.109-.659z"/><path d="M152.794 58.176s-.133-11.48 5.893-18.412c-5.197 8.449-4.483 18.747-4.483 18.747l-1.41-.335z"/><path d="M152.809 60.447s-.128-9.737 4.963-15.618c-4.389 7.168-3.77 15.902-3.77 15.902l-1.193-.284z"/><path d="M152.384 59.474s-2.591-13.121 2.913-21.311c-4.223 9.89-1.211 21.631-1.211 21.631l-1.702-.32zM124.509 47.773s-6.85-22.978 1.52-37.588c-5.804 17.55 1.558 38.088 1.558 38.088l-3.078-.5z"/><path d="M125.838 52.32s-5.839-19.489 1.222-31.878c-4.884 14.882 1.385 32.303 1.385 32.303l-2.607-.425z"/><path d="M124.41 50.42s-12.824-25.965-6.243-43.033c-2.984 20.317 9.915 43.471 9.915 43.471l-3.672-.438z"/><path d="M122.338 50.143s-11.788-15.4-10.208-25.997c1.133 12.461 12.551 26.15 12.551 26.15l-2.343-.153z"/><path d="M124.652 53.193s-10.018-13.062-8.707-22.045c.991 10.565 10.694 22.174 10.694 22.174l-1.987-.129z"/><path d="M123.06 51.975s-16.94-17.084-17.374-29.258c3.974 14.188 20.123 29.33 20.123 29.33l-2.749-.072zM133.95 52.537s-6.851-22.976 1.519-37.586c-5.804 17.552 1.56 38.088 1.56 38.088l-3.079-.502z"/><path d="M135.279 57.086s-5.839-19.49 1.222-31.881c-4.883 14.884 1.386 32.306 1.386 32.306l-2.608-.425z"/><path d="M133.851 55.185s-12.826-25.963-6.243-43.029c-2.983 20.315 9.914 43.47 9.914 43.47l-3.671-.441z"/><path d="M131.778 54.909s-11.787-15.4-10.207-25.997c1.132 12.461 12.551 26.149 12.551 26.149l-2.344-.152z"/><path d="M134.091 57.96s-10.018-13.061-8.704-22.044c.988 10.562 10.69 22.173 10.69 22.173l-1.986-.129z"/><path d="M132.503 56.739s-16.942-17.082-17.377-29.256c3.976 14.185 20.126 29.328 20.126 29.328l-2.749-.072zM137.864 51.82s1.298-16.121 10.594-25.691c-8.338 11.724-8.674 26.199-8.674 26.199l-1.92-.508z"/><path d="M137.588 55.01s1.085-13.677 8.943-21.794c-7.046 9.945-7.317 22.225-7.317 22.225l-1.626-.431z"/><path d="M137.121 53.63s-1.912-18.489 6.819-29.838c-7.167 13.769-4.487 30.334-4.487 30.334l-2.332-.496z"/><path d="M135.813 53.331s-3.914-11.192-.164-18.372c-2.422 8.605 1.686 18.602 1.686 18.602l-1.522-.23z"/><path d="M136.574 55.544s-3.335-9.493-.17-15.579c-2.036 7.297 1.46 15.775 1.46 15.775l-1.29-.196z"/><path d="M135.83 54.623s-6.917-12.619-4.103-20.988c-.972 9.939 5.913 21.185 5.913 21.185l-1.81-.197zM142.93 55.593s1.3-16.121 10.595-25.693c-8.337 11.724-8.674 26.201-8.674 26.201l-1.921-.508z"/><path d="M142.654 58.78s1.085-13.673 8.941-21.792c-7.044 9.945-7.316 22.225-7.316 22.225l-1.625-.433z"/><path d="M142.188 57.404s-1.912-18.491 6.819-29.842c-7.167 13.772-4.489 30.338-4.489 30.338l-2.33-.496z"/><path d="M140.878 57.102s-3.914-11.19-.161-18.372c-2.423 8.606 1.684 18.599 1.684 18.599l-1.523-.227z"/><path d="M141.642 59.317s-3.335-9.491-.171-15.581c-2.035 7.295 1.459 15.775 1.459 15.775l-1.288-.194z"/><path d="M140.895 58.397s-6.918-12.621-4.101-20.99c-.974 9.939 5.911 21.187 5.911 21.187l-1.81-.197z"/></g><g fill="#01904b"><path d="M249.041 47.845s-.459-25.024-11.962-41.055c10.074 19.217 9.392 41.573 9.392 41.573l2.57-.518z"/><path d="M249.157 52.801s-.364-21.229-10.087-34.818c8.509 16.293 7.911 35.259 7.911 35.259l2.176-.441z"/><path d="M249.876 50.74s3.961-28.234-6.662-46.93c8.371 22.211 3.554 47.374 3.554 47.374l3.108-.444z"/><path d="M251.625 50.454s6.03-16.706 1.645-28.291c2.522 13.598-3.667 28.436-3.667 28.436l2.022-.145z"/><path d="M250.45 53.765s5.132-14.172 1.438-23.99c2.112 11.525-3.151 24.113-3.151 24.113l1.713-.123z"/><path d="M251.504 52.449s10.098-18.497 7.037-31.787c.511 15.456-9.438 31.839-9.438 31.839l2.401-.052zM242.074 52.963s-.46-25.026-11.964-41.058c10.074 19.22 9.392 41.576 9.392 41.576l2.572-.518z"/><path d="M242.187 57.916s-.362-21.227-10.087-34.818c8.511 16.296 7.91 35.259 7.91 35.259l2.177-.441z"/><path d="M242.907 55.855s3.96-28.231-6.661-46.929c8.371 22.211 3.553 47.376 3.553 47.376l3.108-.447z"/><path d="M244.655 55.572s6.031-16.707 1.645-28.292c2.524 13.596-3.667 28.435-3.667 28.435l2.022-.143z"/><path d="M243.481 58.881s5.132-14.169 1.436-23.99c2.114 11.525-3.15 24.113-3.15 24.113l1.714-.123z"/><path d="M244.534 57.565s10.098-18.497 7.037-31.787c.51 15.454-9.438 31.841-9.438 31.841l2.401-.054zM236.873 52.681l1.548-.538M239.565 55.629s-4.82-14.944-14.035-23.878c9.017 10.922 12.725 24.333 12.725 24.333l1.31-.455z"/><path d="M239.586 54.129s-3.542-20.173-14.441-32.647c10.206 15.102 12.528 33.167 12.528 33.167l1.913-.52z"/><path d="M240.654 53.811s.286-12.185-5.049-20.059c4.566 9.417 3.773 20.295 3.773 20.295l1.276-.236z"/><path d="M240.611 56.223s.253-10.334-4.256-17.01c3.856 7.984 3.175 17.21 3.175 17.21l1.081-.2z"/><path d="M241.006 55.224s2.526-13.715-2.32-22.882c3.667 10.862.78 23.079.78 23.079l1.54-.197zM233.476 56.753l1.548-.538M234.859 60.157l1.309-.457M234.277 58.722l1.913-.522M237.256 57.884s.286-12.184-5.048-20.059c4.567 9.417 3.773 20.295 3.773 20.295l1.275-.236z"/><path d="M237.212 60.294s.256-10.333-4.253-17.008c3.857 7.984 3.173 17.208 3.173 17.208l1.08-.2z"/><path d="M237.609 59.296s2.527-13.717-2.319-22.882c3.667 10.865.781 23.081.781 23.081l1.538-.199zM262.92 49.227s6.513-23.823-.827-40.053c4.983 19.136-1.954 40.325-1.954 40.325l2.781-.272z"/><path d="M261.658 53.946s5.547-20.206-.642-33.963c4.189 16.222-1.716 34.195-1.716 34.195l2.358-.232z"/><path d="M262.973 52.05s11.942-26.493 6.25-45.177c2.399 21.83-9.567 45.333-9.567 45.333l3.317-.156z"/><path d="M264.847 51.931s10.855-15.36 9.583-26.747c-1.203 13.137-11.701 26.707-11.701 26.707l2.118.04z"/><path d="M262.716 54.974s9.224-13.026 8.17-22.675c-1.044 11.136-9.964 22.643-9.964 22.643l1.794.032z"/><path d="M264.167 53.815s15.528-16.711 16.095-29.606c-3.788 14.731-18.577 29.447-18.577 29.447l2.482.159zM254.337 53.489s6.513-23.823-.828-40.051c4.983 19.134-1.957 40.323-1.957 40.323l2.785-.272z"/><path d="M253.074 58.208s5.55-20.206-.643-33.963c4.19 16.222-1.716 34.195-1.716 34.195l2.359-.232z"/><path d="M254.389 56.312s11.943-26.493 6.251-45.179c2.398 21.832-9.568 45.333-9.568 45.333l3.317-.154z"/><path d="M256.263 56.193s10.854-15.359 9.582-26.747c-1.203 13.137-11.7 26.709-11.7 26.709l2.118.038z"/><path d="M254.132 59.236s9.225-13.024 8.169-22.676c-1.044 11.136-9.962 22.644-9.962 22.644l1.793.032z"/><path d="M255.58 58.079s15.529-16.712 16.097-29.607c-3.789 14.733-18.576 29.449-18.576 29.449l2.479.158zM250.818 52.395s-.941-17.23-9.188-28.186c7.353 13.161 7.447 28.564 7.447 28.564l1.741-.378z"/><path d="M251.02 55.808s-.78-14.618-7.751-23.906c6.211 11.16 6.278 24.226 6.278 24.226l1.473-.32z"/><path d="M251.458 54.383s1.994-19.477-5.72-32.271c6.266 15.233 3.613 32.603 3.613 32.603l2.107-.332z"/><path d="M252.645 54.172s3.693-11.553.413-19.498c2.061 9.346-1.79 19.615-1.79 19.615l1.377-.117z"/><path d="M251.927 56.461s3.144-9.798.377-16.534c1.732 7.922-1.544 16.633-1.544 16.633l1.167-.099z"/><path d="M252.614 55.548s6.418-12.819 4-21.947c.735 10.638-5.638 22.002-5.638 22.002l1.638-.055zM246.195 55.974s-.943-17.232-9.188-28.184c7.351 13.157 7.446 28.562 7.446 28.562l1.742-.378z"/><path d="M246.396 59.385s-.78-14.618-7.751-23.904c6.21 11.158 6.276 24.226 6.276 24.226l1.475-.322z"/><path d="M246.834 57.96s1.993-19.476-5.72-32.272c6.267 15.235 3.611 32.603 3.611 32.603l2.109-.331z"/><path d="M248.021 57.753s3.693-11.555.411-19.501c2.062 9.344-1.787 19.615-1.787 19.615l1.376-.114z"/><path d="M247.302 60.04s3.146-9.8.378-16.534c1.732 7.922-1.544 16.633-1.544 16.633l1.166-.099z"/><path d="M247.989 59.125s6.42-12.817 4-21.947c.735 10.642-5.637 22.002-5.637 22.002l1.637-.055z"/></g><g fill="#01904b"><path d="M374.937 48.701s-.458-25.024-11.963-41.056c10.073 19.217 9.392 41.574 9.392 41.574l2.571-.518z"/><path d="M375.05 53.654s-.362-21.226-10.085-34.818c8.509 16.295 7.91 35.261 7.91 35.261l2.175-.443z"/><path d="M375.771 51.594s3.96-28.232-6.662-46.928c8.371 22.211 3.554 47.373 3.554 47.373l3.108-.445z"/><path d="M377.522 51.31s6.027-16.707 1.643-28.292c2.524 13.598-3.667 28.436-3.667 28.436l2.024-.144z"/><path d="M376.345 54.619s5.132-14.17 1.438-23.988c2.114 11.525-3.151 24.113-3.151 24.113l1.713-.125z"/><path d="M377.399 53.303s10.097-18.495 7.038-31.785c.509 15.454-9.439 31.839-9.439 31.839l2.401-.054zM367.967 53.817s-.46-25.024-11.963-41.056c10.075 19.22 9.394 41.576 9.394 41.576l2.569-.52z"/><path d="M368.08 58.772s-.362-21.227-10.085-34.819c8.509 16.296 7.909 35.259 7.909 35.259l2.176-.44z"/><path d="M368.802 56.711s3.958-28.232-6.663-46.93c8.372 22.211 3.555 47.376 3.555 47.376l3.108-.446z"/><path d="M370.55 56.427s6.029-16.707 1.646-28.292c2.522 13.596-3.668 28.434-3.668 28.434l2.022-.142z"/><path d="M369.375 59.734s5.132-14.167 1.437-23.988c2.114 11.525-3.15 24.113-3.15 24.113l1.713-.125z"/><path d="M370.431 58.42s10.096-18.499 7.036-31.787c.508 15.454-9.438 31.841-9.438 31.841l2.402-.054zM364.316 52.999s-5.701-17.616-16.595-28.15c10.659 12.877 15.048 28.686 15.048 28.686l1.547-.536z"/><path d="M365.459 56.483s-4.819-14.942-14.035-23.878c9.017 10.924 12.725 24.335 12.725 24.335l1.31-.457z"/><path d="M365.482 54.984s-3.542-20.172-14.442-32.647c10.206 15.103 12.529 33.167 12.529 33.167l1.913-.52z"/><path d="M366.549 54.664s.286-12.182-5.049-20.057c4.565 9.417 3.772 20.295 3.772 20.295l1.277-.238z"/><path d="M366.504 57.076s.255-10.333-4.253-17.01c3.856 7.986 3.174 17.212 3.174 17.212l1.079-.202z"/><path d="M366.902 56.08s2.525-13.717-2.319-22.882c3.666 10.863.778 23.079.778 23.079l1.541-.197zM360.919 57.07s-5.702-17.613-16.596-28.15c10.658 12.879 15.049 28.688 15.049 28.688l1.547-.538z"/><path d="M362.063 60.554s-4.82-14.941-14.036-23.876c9.016 10.922 12.727 24.335 12.727 24.335l1.309-.459z"/><path d="M362.083 59.055s-3.541-20.172-14.44-32.645c10.204 15.1 12.528 33.166 12.528 33.166l1.912-.521z"/><path d="M363.151 58.74s.288-12.185-5.047-20.06c4.565 9.417 3.772 20.295 3.772 20.295l1.275-.235z"/><path d="M363.107 61.15s.255-10.333-4.253-17.01c3.857 7.986 3.173 17.211 3.173 17.211l1.08-.201z"/><path d="M363.504 60.153s2.527-13.719-2.319-22.884c3.666 10.864.779 23.08.779 23.08l1.54-.196zM388.816 50.083s6.512-23.823-.828-40.053c4.983 19.136-1.955 40.325-1.955 40.325l2.783-.272z"/><path d="M387.551 54.802s5.548-20.207-.642-33.965c4.191 16.224-1.716 34.195-1.716 34.195l2.358-.23z"/><path d="M388.867 52.906s11.943-26.495 6.252-45.179c2.398 21.832-9.569 45.333-9.569 45.333l3.317-.154z"/><path d="M390.742 52.786s10.854-15.36 9.583-26.749c-1.203 13.139-11.7 26.709-11.7 26.709l2.117.04z"/><path d="M388.611 55.83s9.224-13.026 8.168-22.676c-1.043 11.134-9.962 22.644-9.962 22.644l1.794.032z"/><path d="M390.062 54.67s15.528-16.71 16.095-29.605c-3.788 14.731-18.577 29.447-18.577 29.447l2.482.158zM380.232 54.345s6.514-23.825-.828-40.053c4.982 19.134-1.955 40.327-1.955 40.327l2.783-.274z"/><path d="M378.967 59.063s5.549-20.206-.642-33.963c4.19 16.222-1.715 34.195-1.715 34.195l2.357-.232z"/><path d="M380.283 57.168s11.944-26.493 6.252-45.179c2.399 21.832-9.568 45.333-9.568 45.333l3.316-.154z"/><path d="M382.158 57.049s10.854-15.361 9.582-26.747c-1.203 13.139-11.699 26.709-11.699 26.709l2.117.038z"/><path d="M380.026 60.092s9.225-13.024 8.17-22.678c-1.043 11.139-9.962 22.648-9.962 22.648l1.792.03z"/><path d="M381.476 58.932s15.529-16.71 16.096-29.605c-3.789 14.733-18.576 29.449-18.576 29.449l2.48.156zM376.712 53.251s-.939-17.233-9.187-28.186c7.351 13.161 7.447 28.563 7.447 28.563l1.74-.377z"/><path d="M376.914 56.661s-.779-14.616-7.751-23.904c6.211 11.16 6.279 24.228 6.279 24.228l1.472-.324z"/><path d="M377.353 55.238s1.994-19.476-5.719-32.271c6.267 15.233 3.611 32.603 3.611 32.603l2.108-.332z"/><path d="M378.539 55.028s3.693-11.553.413-19.5c2.06 9.346-1.789 19.617-1.789 19.617l1.376-.117z"/><path d="M377.822 57.317s3.144-9.798.377-16.534c1.733 7.923-1.543 16.633-1.543 16.633l1.166-.099z"/><path d="M378.508 56.404s6.42-12.82 4.001-21.949c.734 10.64-5.639 22.003-5.639 22.003l1.638-.054zM372.088 56.83s-.94-17.235-9.188-28.186c7.352 13.159 7.448 28.563 7.448 28.563l1.74-.377z"/><path d="M372.291 60.24s-.781-14.618-7.752-23.904c6.209 11.158 6.276 24.224 6.276 24.224l1.476-.32z"/><path d="M372.73 58.815s1.992-19.476-5.719-32.271c6.265 15.233 3.61 32.603 3.61 32.603l2.109-.332z"/><path d="M373.915 58.609s3.692-11.555.41-19.5c2.064 9.342-1.786 19.613-1.786 19.613l1.376-.113z"/><path d="M373.198 60.894s3.143-9.798.378-16.532c1.73 7.923-1.544 16.633-1.544 16.633l1.166-.101z"/><path d="M373.883 59.98s6.421-12.819 4.001-21.947c.734 10.64-5.637 22-5.637 22l1.636-.053z"/></g><g><path d="M255.039 49.589s-.161-25.028 11.274-41.348c-9.884 19.468-8.613 41.8-8.613 41.8l-2.661-.452z" fill="#01904b"/><path d="M255.048 54.543s-.165-21.228 9.5-35.062c-8.347 16.506-7.249 35.45-7.249 35.45l-2.251-.388z" fill="#01904b"/><path d="M254.253 52.503s-4.793-28.125 5.669-47.083c-8.056 22.416-2.458 47.448-2.458 47.448l-3.211-.365z" fill="#09703b"/><path d="M252.446 52.262s-6.632-16.548-2.411-28.242c-2.253 13.657 4.497 28.335 4.497 28.335l-2.086-.093z" fill="#01904b"/><path d="M253.741 55.54s-5.644-14.035-2.088-23.942c-1.885 11.573 3.855 24.023 3.855 24.023l-1.767-.081z" fill="#01904b"/><path d="M252.622 54.252s-10.865-18.233-8.052-31.597c-.132 15.464 10.523 31.59 10.523 31.59l-2.471.007zM262.346 54.526s-.163-25.026 11.272-41.346c-9.882 19.468-8.615 41.8-8.615 41.8l-2.657-.454z" fill="#01904b"/><path d="M262.354 59.482s-.165-21.23 9.5-35.064c-8.348 16.508-7.249 35.45-7.249 35.45l-2.251-.386z" fill="#01904b"/><path d="M261.559 57.442s-4.792-28.125 5.669-47.084c-8.055 22.416-2.458 47.45-2.458 47.45l-3.211-.366z" fill="#09703b"/><path d="M259.753 57.201s-6.634-16.55-2.412-28.242c-2.253 13.655 4.499 28.333 4.499 28.333l-2.087-.091z" fill="#01904b"/><path d="M261.046 60.479s-5.645-14.035-2.09-23.944c-1.884 11.575 3.858 24.024 3.858 24.024l-1.768-.08z" fill="#01904b"/><path d="M259.927 59.19s-10.866-18.237-8.053-31.599c-.131 15.462 10.526 31.591 10.526 31.591l-2.473.008zM266.083 53.616s5.423-17.755 16.37-28.565c-10.646 13.147-14.764 29.061-14.764 29.061l-1.606-.496z" fill="#01904b"/><path d="M264.995 57.128s4.58-15.061 13.843-24.226c-9.006 11.148-12.483 24.65-12.483 24.65l-1.36-.424z" fill="#01904b"/><path d="M264.934 55.629s3.135-20.256 14.038-33.002c-10.122 15.356-12.056 33.475-12.056 33.475l-1.982-.473z" fill="#01904b"/><path d="M263.826 55.337s-.604-12.17 4.688-20.178c-4.462 9.528-3.368 20.383-3.368 20.383l-1.32-.205z" fill="#01904b"/><path d="M263.934 57.747s-.525-10.325 3.948-17.111c-3.768 8.079-2.83 17.286-2.83 17.286l-1.118-.175z" fill="#01904b"/><path d="M263.5 56.761s-2.948-13.647 1.808-22.936c-3.5 10.954-.217 23.093-.217 23.093l-1.591-.157zM269.683 57.6s5.423-17.754 16.372-28.563c-10.648 13.145-14.765 29.06-14.765 29.06l-1.607-.497z" fill="#01904b"/><path d="M268.595 61.114s4.583-15.061 13.843-24.228c-9.004 11.148-12.483 24.651-12.483 24.651l-1.36-.423z" fill="#01904b"/><path d="M268.534 59.613s3.134-20.254 14.038-33c-10.122 15.355-12.056 33.473-12.056 33.473l-1.982-.473z" fill="#09703b"/><path d="M267.427 59.324s-.604-12.171 4.689-20.181c-4.462 9.533-3.369 20.385-3.369 20.385l-1.32-.204z" fill="#01904b"/><path d="M267.534 61.735s-.523-10.326 3.947-17.115c-3.769 8.079-2.83 17.286-2.83 17.286l-1.117-.171z" fill="#01904b"/><path d="M267.1 60.745s-2.949-13.647 1.808-22.934c-3.499 10.954-.218 23.093-.218 23.093l-1.59-.159z" fill="#09703b"/><path d="M240.786 51.324s-7.309-23.652-.164-40.061c-4.644 19.255 3.037 40.26 3.037 40.26l-2.873-.199z" fill="#01904b"/><path d="M242.207 56.009s-6.226-20.061-.201-33.969c-3.902 16.322 2.635 34.14 2.635 34.14l-2.434-.171z" fill="#01904b"/><path d="M240.806 54.144s-12.969-26.181-7.584-45.002c-1.915 21.884 11.001 45.073 11.001 45.073l-3.417-.071z" fill="#01904b"/><path d="M238.872 54.073s-11.564-15.079-10.544-26.495c1.571 13.104 12.725 26.406 12.725 26.406l-2.181.089z" fill="#01904b"/><path d="M241.142 57.06s-9.824-12.786-8.984-22.459c1.358 11.106 10.833 22.384 10.833 22.384l-1.849.075z" fill="#01904b"/><path fill="#09703b" d="M242.17 55.72l-2.55.219"/><path d="M249.732 55.365s-7.31-23.65-.165-40.061c-4.642 19.255 3.038 40.264 3.038 40.264l-2.873-.203z" fill="#01904b"/><path d="M251.154 60.05s-6.227-20.06-.202-33.969c-3.901 16.323 2.636 34.139 2.636 34.139l-2.434-.17z" fill="#01904b"/><path d="M249.752 58.188s-12.969-26.181-7.585-45.004C240.253 35.068 253.17 58.26 253.17 58.26l-3.418-.072z" fill="#09703b"/><path d="M247.818 58.116s-11.562-15.079-10.542-26.495c1.571 13.102 12.721 26.404 12.721 26.404l-2.179.091z" fill="#01904b"/><path d="M250.089 61.104s-9.826-12.786-8.986-22.461c1.358 11.106 10.833 22.386 10.833 22.386l-1.847.075z" fill="#01904b"/><path d="M248.568 59.983s-16.412-16.312-17.321-29.187c4.273 14.63 19.87 28.966 19.87 28.966l-2.549.221zM253.327 54.184s.53-17.252 8.742-28.411c-7.234 13.34-6.941 28.742-6.941 28.742l-1.801-.331z" fill="#01904b"/><path d="M253.206 57.598s.432-14.634 7.373-24.095c-6.111 11.313-5.85 24.379-5.85 24.379l-1.523-.284z" fill="#01904b"/><path d="M252.718 56.185s-2.547-19.42 5.068-32.406c-6.064 15.386-2.891 32.684-2.891 32.684l-2.177-.278z" fill="#01904b"/><path d="M251.492 56.006s-4.096-11.456-.918-19.481c-1.885 9.394 2.338 19.561 2.338 19.561l-1.42-.08z" fill="#09703b"/><path d="M252.288 58.275s-3.484-9.717-.809-16.52c-1.582 7.964 2.013 16.587 2.013 16.587l-1.204-.067z" fill="#01904b"/><path d="M251.559 57.38s-6.934-12.653-4.676-21.842c-.487 10.656 6.362 21.854 6.362 21.854l-1.686-.012zM258.179 57.642s.53-17.252 8.741-28.408c-7.233 13.339-6.938 28.742-6.938 28.742l-1.803-.334z" fill="#01904b"/><path d="M258.056 61.058s.436-14.634 7.374-24.095c-6.109 11.313-5.848 24.376-5.848 24.376l-1.526-.281z" fill="#01904b"/><path d="M257.568 59.645s-2.544-19.42 5.071-32.408c-6.065 15.39-2.892 32.684-2.892 32.684l-2.179-.276z" fill="#09703b"/><path d="M256.342 59.467s-4.096-11.458-.918-19.484c-1.886 9.394 2.338 19.563 2.338 19.563l-1.42-.079z" fill="#09703b"/><path d="M257.141 61.735s-3.484-9.717-.81-16.52c-1.58 7.962 2.013 16.587 2.013 16.587l-1.203-.067z" fill="#01904b"/><path d="M256.411 60.838s-6.935-12.651-4.677-21.84c-.486 10.656 6.363 21.851 6.363 21.851l-1.686-.011z" fill="#01904b"/></g><g><path d="M285.663 49.69s-.164-25.026 11.272-41.345c-9.883 19.47-8.613 41.802-8.613 41.802l-2.659-.457z" fill="#01904b"/><path d="M285.669 54.647s-.163-21.231 9.501-35.065c-8.347 16.508-7.249 35.452-7.249 35.452l-2.252-.387z" fill="#01904b"/><path d="M284.875 52.606s-4.794-28.125 5.668-47.084c-8.054 22.415-2.457 47.449-2.457 47.449l-3.211-.365z" fill="#09703b"/><path d="M283.069 52.365s-6.632-16.547-2.411-28.24c-2.253 13.653 4.496 28.331 4.496 28.331l-2.085-.091z" fill="#01904b"/><path d="M284.362 55.643s-5.642-14.032-2.087-23.944c-1.886 11.575 3.855 24.025 3.855 24.025l-1.768-.081z" fill="#01904b"/><path d="M283.243 54.355s-10.864-18.235-8.052-31.599c-.132 15.464 10.525 31.591 10.525 31.591l-2.473.008zM292.967 54.629s-.162-25.026 11.275-41.345c-9.884 19.468-8.615 41.8-8.615 41.8l-2.66-.455z" fill="#01904b"/><path d="M292.976 59.585s-.166-21.23 9.5-35.064c-8.348 16.506-7.248 35.45-7.248 35.45l-2.252-.386z" fill="#01904b"/><path d="M292.181 57.543s-4.792-28.123 5.668-47.082c-8.055 22.415-2.456 47.449-2.456 47.449l-3.212-.367z" fill="#09703b"/><path d="M290.374 57.304s-6.633-16.55-2.411-28.24c-2.253 13.653 4.498 28.331 4.498 28.331l-2.087-.091z" fill="#01904b"/><path d="M291.668 60.582s-5.645-14.034-2.089-23.944c-1.884 11.575 3.855 24.023 3.855 24.023l-1.766-.079z" fill="#01904b"/><path d="M290.548 59.294s-10.864-18.235-8.051-31.599c-.132 15.462 10.524 31.589 10.524 31.589l-2.473.01zM296.704 53.718s5.423-17.752 16.37-28.564c-10.645 13.148-14.763 29.061-14.763 29.061l-1.607-.497z" fill="#01904b"/><path d="M295.617 57.231s4.582-15.059 13.844-24.228c-9.006 11.15-12.484 24.651-12.484 24.651l-1.36-.423z" fill="#01904b"/><path d="M295.554 55.732s3.136-20.256 14.04-33.002c-10.123 15.357-12.057 33.475-12.057 33.475l-1.983-.473z" fill="#01904b"/><path d="M294.449 55.441s-.605-12.171 4.689-20.181c-4.462 9.531-3.37 20.385-3.37 20.385l-1.319-.204z" fill="#01904b"/><path d="M294.557 57.85s-.525-10.322 3.946-17.111c-3.768 8.079-2.831 17.286-2.831 17.286l-1.115-.175z" fill="#01904b"/><path d="M294.121 56.862s-2.948-13.645 1.808-22.932c-3.5 10.95-.217 23.09-.217 23.09l-1.591-.158zM300.305 57.701s5.422-17.752 16.372-28.561c-10.649 13.145-14.766 29.062-14.766 29.062l-1.606-.501z" fill="#01904b"/><path d="M299.216 61.215s4.583-15.059 13.844-24.226c-9.004 11.148-12.483 24.651-12.483 24.651l-1.361-.425z" fill="#01904b"/><path d="M299.157 59.717s3.134-20.256 14.038-33.002c-10.124 15.356-12.057 33.476-12.057 33.476l-1.981-.474z" fill="#09703b"/><path d="M298.049 59.427s-.603-12.172 4.688-20.18c-4.463 9.53-3.369 20.385-3.369 20.385l-1.319-.205z" fill="#01904b"/><path d="M298.156 61.837s-.523-10.325 3.947-17.114c-3.769 8.082-2.829 17.288-2.829 17.288l-1.118-.174z" fill="#01904b"/><path d="M297.721 60.848s-2.948-13.647 1.808-22.934c-3.499 10.954-.217 23.092-.217 23.092l-1.591-.158z" fill="#09703b"/><path d="M271.408 51.427s-7.31-23.652-.164-40.063c-4.646 19.257 3.036 40.264 3.036 40.264l-2.872-.201z" fill="#01904b"/><path d="M272.83 56.11s-6.226-20.06-.202-33.969c-3.902 16.323 2.634 34.142 2.634 34.142l-2.432-.173z" fill="#01904b"/><path d="M271.427 54.25s-12.968-26.184-7.583-45.006c-1.916 21.886 11.002 45.076 11.002 45.076l-3.419-.07z" fill="#01904b"/><path d="M269.494 54.176s-11.565-15.079-10.543-26.495c1.57 13.104 12.723 26.404 12.723 26.404l-2.18.091z" fill="#01904b"/><path d="M271.765 57.166s-9.825-12.786-8.986-22.461c1.357 11.104 10.834 22.384 10.834 22.384l-1.848.077z" fill="#01904b"/><path d="M270.242 56.042s-16.41-16.311-17.321-29.189c4.275 14.632 19.871 28.97 19.871 28.97l-2.55.219z" fill="#09703b"/><path d="M280.355 55.469s-7.311-23.65-.165-40.061c-4.644 19.253 3.037 40.263 3.037 40.263l-2.872-.202z" fill="#01904b"/><path d="M281.776 60.153s-6.227-20.059-.203-33.969c-3.9 16.323 2.636 34.14 2.636 34.14l-2.433-.171z" fill="#01904b"/><path d="M280.373 58.291s-12.969-26.182-7.584-45.006c-1.915 21.885 11.003 45.077 11.003 45.077l-3.419-.071z" fill="#09703b"/><path d="M278.439 58.218s-11.562-15.077-10.543-26.493c1.572 13.102 12.723 26.401 12.723 26.401l-2.18.092z" fill="#01904b"/><path d="M280.71 61.207s-9.826-12.786-8.986-22.461c1.358 11.107 10.833 22.386 10.833 22.386l-1.847.075z" fill="#01904b"/><path d="M279.189 60.086s-16.41-16.312-17.321-29.187c4.274 14.63 19.871 28.966 19.871 28.966l-2.55.221zM283.95 54.287s.528-17.252 8.74-28.413c-7.234 13.342-6.94 28.744-6.94 28.744l-1.8-.331z" fill="#01904b"/><path d="M283.827 57.701s.432-14.634 7.374-24.095c-6.11 11.313-5.85 24.379-5.85 24.379l-1.524-.284z" fill="#01904b"/><path d="M283.339 56.288s-2.547-19.42 5.069-32.407c-6.064 15.387-2.89 32.685-2.89 32.685l-2.179-.278z" fill="#01904b"/><path d="M282.114 56.108s-4.095-11.456-.919-19.482c-1.885 9.395 2.338 19.563 2.338 19.563l-1.419-.081z" fill="#09703b"/><path d="M282.911 58.379s-3.485-9.717-.81-16.518c-1.581 7.96 2.012 16.585 2.012 16.585l-1.202-.067z" fill="#01904b"/><path d="M282.181 57.481s-6.935-12.651-4.676-21.84c-.487 10.656 6.362 21.854 6.362 21.854l-1.686-.014zM288.8 57.745s.532-17.252 8.742-28.411c-7.233 13.344-6.939 28.744-6.939 28.744l-1.803-.333z" fill="#01904b"/><path d="M288.679 61.159s.434-14.632 7.372-24.093c-6.109 11.313-5.848 24.377-5.848 24.377l-1.524-.284z" fill="#01904b"/><path d="M288.191 59.746s-2.546-19.42 5.069-32.405c-6.064 15.387-2.89 32.683-2.89 32.683l-2.179-.278z" fill="#09703b"/><path d="M286.964 59.568s-4.096-11.456-.917-19.482c-1.885 9.393 2.337 19.563 2.337 19.563l-1.42-.081z" fill="#09703b"/><path d="M287.762 61.839s-3.485-9.717-.809-16.52c-1.581 7.964 2.013 16.587 2.013 16.587l-1.204-.067z" fill="#01904b"/><path d="M287.033 60.941s-6.936-12.651-4.677-21.84c-.487 10.656 6.362 21.854 6.362 21.854l-1.685-.014z" fill="#01904b"/></g><g><path d="M336.162 49.339s-.163-25.028 11.273-41.346c-9.884 19.468-8.614 41.8-8.614 41.8l-2.659-.454z" fill="#01904b"/><path d="M336.17 54.295s-.165-21.23 9.501-35.066c-8.349 16.508-7.25 35.45-7.25 35.45l-2.251-.384z" fill="#01904b"/><path d="M335.376 52.253s-4.793-28.125 5.667-47.083c-8.054 22.416-2.456 47.448-2.456 47.448l-3.211-.365z" fill="#09703b"/><path d="M333.568 52.014s-6.632-16.55-2.411-28.242c-2.253 13.655 4.498 28.333 4.498 28.333l-2.087-.091z" fill="#01904b"/><path d="M334.864 55.29s-5.645-14.033-2.09-23.942c-1.885 11.575 3.856 24.023 3.856 24.023l-1.766-.081z" fill="#01904b"/><path d="M333.743 54.003s-10.864-18.235-8.052-31.599c-.132 15.464 10.525 31.591 10.525 31.591l-2.473.008zM343.467 54.277s-.161-25.028 11.272-41.347c-9.884 19.47-8.615 41.8-8.615 41.8l-2.657-.453z" fill="#01904b"/><path d="M343.475 59.232s-.164-21.23 9.499-35.064c-8.345 16.508-7.247 35.449-7.247 35.449l-2.252-.385z" fill="#01904b"/><path d="M342.681 57.191s-4.792-28.125 5.667-47.084c-8.054 22.416-2.456 47.45-2.456 47.45l-3.211-.366z" fill="#09703b"/><path d="M340.874 56.949s-6.634-16.548-2.411-28.238c-2.253 13.654 4.497 28.333 4.497 28.333l-2.086-.095z" fill="#01904b"/><path d="M342.168 60.231s-5.645-14.037-2.089-23.946c-1.885 11.575 3.854 24.025 3.854 24.025l-1.765-.079z" fill="#01904b"/><path d="M341.048 58.94s-10.864-18.235-8.052-31.599c-.131 15.462 10.524 31.591 10.524 31.591l-2.472.008zM347.204 53.366s5.422-17.754 16.37-28.563c-10.646 13.146-14.765 29.06-14.765 29.06l-1.605-.497z" fill="#01904b"/><path d="M346.116 56.88s4.582-15.062 13.843-24.228c-9.004 11.148-12.482 24.651-12.482 24.651l-1.361-.423z" fill="#01904b"/><path d="M346.056 55.379s3.136-20.256 14.038-33.004c-10.123 15.359-12.057 33.477-12.057 33.477l-1.981-.473z" fill="#01904b"/><path d="M344.948 55.089s-.603-12.172 4.689-20.18c-4.462 9.53-3.369 20.383-3.369 20.383l-1.32-.203z" fill="#01904b"/><path d="M345.056 57.499s-.525-10.327 3.948-17.114c-3.767 8.08-2.831 17.288-2.831 17.288l-1.117-.174z" fill="#01904b"/><path d="M344.62 56.511s-2.946-13.647 1.809-22.936c-3.499 10.954-.216 23.092-.216 23.092l-1.593-.156zM350.804 57.35s5.424-17.753 16.372-28.563c-10.647 13.145-14.763 29.062-14.763 29.062l-1.609-.499z" fill="#01904b"/><path d="M349.716 60.864s4.583-15.061 13.844-24.228c-9.005 11.148-12.483 24.651-12.483 24.651l-1.361-.423z" fill="#01904b"/><path d="M349.656 59.363s3.134-20.254 14.04-33c-10.124 15.355-12.058 33.473-12.058 33.473l-1.982-.473z" fill="#09703b"/><path d="M348.549 59.074s-.604-12.171 4.686-20.179c-4.459 9.53-3.367 20.383-3.367 20.383l-1.319-.204z" fill="#01904b"/><path d="M348.657 61.483s-.524-10.322 3.947-17.111c-3.769 8.079-2.831 17.284-2.831 17.284l-1.116-.173z" fill="#01904b"/><path d="M348.221 60.494s-2.948-13.647 1.81-22.934c-3.501 10.954-.22 23.093-.22 23.093l-1.59-.159z" fill="#09703b"/><path d="M321.909 51.072s-7.31-23.65-.167-40.059c-4.643 19.253 3.038 40.261 3.038 40.261l-2.871-.202z" fill="#01904b"/><path d="M323.328 55.758s-6.224-20.061-.201-33.969c-3.9 16.321 2.634 34.14 2.634 34.14l-2.433-.171z" fill="#01904b"/><path d="M321.926 53.894S308.96 27.712 314.343 8.89c-1.914 21.886 11.002 45.075 11.002 45.075l-3.419-.071z" fill="#01904b"/><path d="M319.993 53.823s-11.562-15.079-10.543-26.495c1.572 13.105 12.723 26.405 12.723 26.405l-2.18.09z" fill="#01904b"/><path d="M322.265 56.812s-9.825-12.788-8.985-22.461c1.357 11.107 10.832 22.386 10.832 22.386l-1.847.075z" fill="#01904b"/><path d="M320.742 55.689s-16.411-16.31-17.322-29.187c4.275 14.632 19.873 28.968 19.873 28.968l-2.551.219z" fill="#09703b"/><path d="M330.854 55.115s-7.31-23.65-.164-40.061c-4.645 19.255 3.037 40.264 3.037 40.264l-2.873-.203z" fill="#01904b"/><path d="M332.277 59.8s-6.227-20.06-.203-33.969c-3.902 16.324 2.635 34.142 2.635 34.142l-2.432-.173z" fill="#01904b"/><path d="M330.874 57.938s-12.969-26.181-7.584-45.004c-1.917 21.884 11.001 45.076 11.001 45.076l-3.417-.072z" fill="#09703b"/><path d="M328.94 57.866s-11.564-15.079-10.543-26.495c1.572 13.103 12.723 26.404 12.723 26.404l-2.18.091z" fill="#01904b"/><path d="M331.21 60.856s-9.825-12.786-8.985-22.463c1.358 11.106 10.833 22.386 10.833 22.386l-1.848.077z" fill="#01904b"/><path d="M329.688 59.732s-16.409-16.31-17.32-29.187c4.274 14.63 19.871 28.966 19.871 28.966l-2.551.221zM334.45 53.932s.53-17.25 8.742-28.409c-7.233 13.34-6.94 28.744-6.94 28.744l-1.802-.335z" fill="#01904b"/><path d="M334.328 57.348s.433-14.632 7.372-24.093c-6.109 11.311-5.849 24.377-5.849 24.377l-1.523-.284z" fill="#01904b"/><path d="M333.84 55.935s-2.547-19.42 5.068-32.407c-6.064 15.387-2.891 32.685-2.891 32.685l-2.177-.278z" fill="#01904b"/><path d="M332.613 55.756s-4.095-11.456-.92-19.481c-1.883 9.394 2.342 19.561 2.342 19.561l-1.422-.08z" fill="#09703b"/><path d="M333.411 58.025s-3.486-9.717-.81-16.518c-1.582 7.962 2.013 16.587 2.013 16.587l-1.203-.069z" fill="#01904b"/><path d="M332.681 57.13s-6.935-12.653-4.678-21.842c-.487 10.656 6.363 21.854 6.363 21.854l-1.685-.012zM339.3 57.394s.53-17.253 8.743-28.411c-7.234 13.34-6.942 28.744-6.942 28.744l-1.801-.333z" fill="#01904b"/><path d="M339.178 60.808s.435-14.634 7.373-24.095c-6.109 11.315-5.846 24.377-5.846 24.377l-1.527-.282z" fill="#01904b"/><path d="M338.69 59.395s-2.545-19.42 5.069-32.406c-6.063 15.388-2.889 32.684-2.889 32.684l-2.18-.278z" fill="#09703b"/><path d="M337.464 59.216s-4.096-11.458-.918-19.483c-1.886 9.396 2.339 19.563 2.339 19.563l-1.421-.08z" fill="#09703b"/><path d="M338.262 61.483s-3.486-9.715-.81-16.518c-1.58 7.964 2.013 16.589 2.013 16.589l-1.203-.071z" fill="#01904b"/><path d="M337.533 60.588s-6.936-12.651-4.676-21.84c-.487 10.656 6.36 21.852 6.36 21.852l-1.684-.012z" fill="#01904b"/></g><g fill="#067346"><path d="M236.251 16.964c-11.445 17.183-11.025 38.263-11.025 38.263M233.878 27.312c-9.668 14.571-9.29 32.457-9.29 32.457M226.443 54.065s6.576-16.059 18.797-25.004c-11.995 11.168-17.092 25.647-17.092 25.647l-1.705-.643z"/><path d="M225.122 57.241s5.562-13.625 15.901-21.214c-10.148 9.475-14.457 21.758-14.457 21.758l-1.444-.544z"/><path d="M225.122 55.828s4.224-18.654 16.479-29.421c-11.525 13.3-14.369 30.08-14.369 30.08l-2.11-.659z"/><path d="M223.945 55.435s-.134-11.48 5.892-18.414c-5.198 8.453-4.483 18.749-4.483 18.749l-1.409-.335z"/><path d="M223.957 57.708s-.126-9.739 4.966-15.619c-4.388 7.167-3.771 15.903-3.771 15.903l-1.195-.284zM226.447 35.421c-4.225 9.89-1.212 21.635-1.212 21.635M230.143 58.194s6.576-16.058 18.796-25.004c-11.995 11.168-17.092 25.645-17.092 25.645l-1.704-.641z"/><path d="M228.823 61.37s5.562-13.625 15.899-21.212c-10.146 9.475-14.456 21.758-14.456 21.758l-1.443-.546z"/><path d="M228.821 59.957s4.226-18.654 16.482-29.419c-11.529 13.298-14.373 30.078-14.373 30.078l-2.109-.659z"/><path d="M227.645 59.566s-.134-11.48 5.891-18.414c-5.197 8.45-4.481 18.747-4.481 18.747l-1.41-.333z"/><path d="M227.658 61.837s-.127-9.739 4.965-15.621c-4.389 7.17-3.771 15.904-3.771 15.904l-1.194-.283z"/><path d="M227.233 60.864s-2.59-13.122 2.913-21.312c-4.223 9.89-1.21 21.631-1.21 21.631l-1.703-.319z"/></g></svg>