<svg xmlns="http://www.w3.org/2000/svg" viewBox="0 0 286.7 323"><style>.st0{fill:#fff}.st1,.st2{opacity:.93;fill:url(#SVGID_1_);enable-background:new}.st2{fill:url(#SVGID_2_)}.st3{fill:url(#SVGID_3_)}.st4{fill:url(#SVGID_4_)}.st5{fill:url(#SVGID_5_)}.st6,.st7{opacity:.52;fill:url(#SVGID_6_);enable-background:new}.st7{opacity:.37;fill:url(#SVGID_7_)}.st10,.st11,.st8,.st9{opacity:.93;fill:url(#SVGID_8_);enable-background:new}.st10,.st11,.st9{opacity:.28;fill:url(#SVGID_9_)}.st10,.st11{opacity:.6;fill:url(#SVGID_10_)}.st11{fill:url(#SVGID_11_)}.st12{fill:url(#SVGID_12_)}.st13{opacity:.65}.st14{fill:url(#SVGID_13_)}.st15{fill:url(#SVGID_14_)}.st16{fill:url(#SVGID_15_)}.st17{fill:url(#SVGID_16_)}.st18{fill:url(#SVGID_17_)}.st19{fill:url(#SVGID_18_)}.st20{fill:url(#SVGID_19_)}.st21{fill:#b2e1e9}.st22,.st23,.st24{opacity:.93;fill:url(#SVGID_20_);enable-background:new}.st23,.st24{fill:url(#SVGID_21_)}.st24{fill:url(#SVGID_22_)}.st25{fill:url(#SVGID_23_)}.st26,.st27,.st28,.st29{opacity:.93;fill:url(#SVGID_24_);enable-background:new}.st27,.st28,.st29{fill:url(#SVGID_25_)}.st28,.st29{fill:url(#SVGID_26_)}.st29{fill:url(#SVGID_27_)}.st30,.st31,.st32,.st33,.st34,.st35{opacity:.93;fill:url(#SVGID_28_);enable-background:new}.st31,.st32,.st33,.st34,.st35{fill:url(#SVGID_29_)}.st32,.st33,.st34,.st35{fill:url(#SVGID_30_)}.st33,.st34,.st35{fill:url(#SVGID_31_)}.st34,.st35{fill:url(#SVGID_32_)}.st35{fill:url(#SVGID_33_)}.st36,.st37,.st38,.st39,.st40,.st41{opacity:.93;fill:url(#SVGID_34_);enable-background:new}.st37,.st38,.st39,.st40,.st41{fill:url(#SVGID_35_)}.st38,.st39,.st40,.st41{fill:url(#SVGID_36_)}.st39,.st40,.st41{fill:url(#SVGID_37_)}.st40,.st41{fill:url(#SVGID_38_)}.st41{fill:url(#SVGID_39_)}.st42,.st43,.st44,.st45,.st46,.st47{opacity:.93;fill:url(#SVGID_40_);enable-background:new}.st43,.st44,.st45,.st46,.st47{fill:url(#SVGID_41_)}.st44,.st45,.st46,.st47{fill:url(#SVGID_42_)}.st45,.st46,.st47{fill:url(#SVGID_43_)}.st46,.st47{opacity:.71;fill:url(#SVGID_44_)}.st47{opacity:.93;fill:url(#SVGID_45_)}.st48{fill:url(#SVGID_46_)}.st49,.st50{opacity:.93;fill:url(#SVGID_47_);enable-background:new}.st50{fill:url(#SVGID_48_)}.st51{fill:url(#SVGID_49_)}.st52,.st53{opacity:.93;fill:url(#SVGID_50_);enable-background:new}.st53{opacity:.8;fill:#fff}.st54{fill:url(#SVGID_51_)}.st55{fill:url(#SVGID_52_)}.st56,.st57,.st58,.st59,.st60,.st61{opacity:.93;fill:url(#SVGID_53_);enable-background:new}.st57,.st58,.st59,.st60,.st61{fill:#0a6352}.st58,.st59,.st60,.st61{fill:#068652}.st59,.st60,.st61{fill:#0b6952}.st60,.st61{fill:url(#SVGID_54_)}.st61{fill:#0d9552}.st62{fill:url(#SVGID_55_)}.st63{fill:url(#SVGID_56_)}.st64{fill:url(#SVGID_57_)}.st65{fill:url(#SVGID_58_)}.st66{opacity:.93;fill:url(#SVGID_59_);enable-background:new}.st67,.st68,.st69,.st70,.st71,.st72{opacity:.93;fill:url(#SVGID_60_);enable-background:new}.st68,.st69,.st70,.st71,.st72{fill:url(#SVGID_61_)}.st69,.st70,.st71,.st72{fill:url(#SVGID_62_)}.st70,.st71,.st72{fill:url(#SVGID_63_)}.st71,.st72{fill:url(#SVGID_64_)}.st72{fill:url(#SVGID_65_)}.st73,.st74,.st75,.st76,.st77,.st78{opacity:.93;fill:url(#SVGID_66_);enable-background:new}.st74,.st75,.st76,.st77,.st78{fill:url(#SVGID_67_)}.st75,.st76,.st77,.st78{fill:url(#SVGID_68_)}.st76,.st77,.st78{fill:url(#SVGID_69_)}.st77,.st78{fill:url(#SVGID_70_)}.st78{fill:url(#SVGID_71_)}.st79{fill:url(#SVGID_72_)}.st80{opacity:.93;fill:#c2d943;enable-background:new}.st81,.st82,.st83,.st84,.st85,.st86{opacity:.93;fill:#6cbe49;enable-background:new}.st82,.st83,.st84,.st85,.st86{fill:url(#SVGID_73_)}.st83,.st84,.st85,.st86{fill:url(#SVGID_74_)}.st84,.st85,.st86{fill:url(#SVGID_75_)}.st85,.st86{fill:url(#SVGID_76_)}.st86{fill:url(#SVGID_77_)}.st87,.st88,.st89,.st90,.st91,.st92{opacity:.93;fill:url(#SVGID_78_);enable-background:new}.st88,.st89,.st90,.st91,.st92{fill:url(#SVGID_79_)}.st89,.st90,.st91,.st92{fill:url(#SVGID_80_)}.st90,.st91,.st92{fill:url(#SVGID_81_)}.st91,.st92{fill:url(#SVGID_82_)}.st92{fill:url(#SVGID_83_)}.st93{fill:url(#SVGID_84_)}.st94,.st95{opacity:.93;fill:url(#SVGID_85_);enable-background:new}.st95{fill:url(#SVGID_86_)}.st96{opacity:.85}.st97{fill:url(#SVGID_87_)}.st98{fill:url(#SVGID_88_)}.st99{fill:url(#SVGID_89_)}</style><path class="st0" d="M148.2 220.8c12.9 0 18.1-.1 18.1 13.6 0-13.4 6.2-13.9 18.4-14.2-14.5.2-17.7 1-18.1-13.6.1 14.9-5.1 13.6-18.4 14.2"/><linearGradient id="SVGID_1_" gradientUnits="userSpaceOnUse" x1="-3016.064" y1="-333.04" x2="-3010.95" y2="-321.107" gradientTransform="matrix(-.9997 .0239 -.0239 -.9997 -2767.128 -7.41)"><stop offset=".005" stop-color="#56be91"/><stop offset=".468" stop-color="#078c5e"/><stop offset="1" stop-color="#064f63"/></linearGradient><path class="st1" d="M255.4 235.1c3.7 5.8 9.9 9.9 15.8 13-7.5.9-14.4-2.7-21.3-5.2 1.3 2.2 2.9 4.4 4.6 6.3-5.2-3.1-33.5-18.4-28.5-28.3"/><linearGradient id="SVGID_2_" gradientUnits="userSpaceOnUse" x1="-2948.313" y1="-364.25" x2="-2937.965" y2="-340.111" gradientTransform="matrix(-.9997 .0239 -.0239 -.9997 -2767.128 -7.41)"><stop offset=".005" stop-color="#56be91"/><stop offset=".468" stop-color="#078c5e"/><stop offset="1" stop-color="#064f63"/></linearGradient><path class="st2" d="M140.7 214.6c14.9-11.4 40.2-1.5 51.5 10.8 5.9 6.4 10.5 13.8 14.5 21.6 5 9.7 12.4 16.5 18.6 25.2-8-1.5-13.3-8.9-20-12.8 4 5.3 6.3 11.6 10.7 16.6-12-2.2-19.3-13.9-29.1-20.1 3.1 7.7 6.3 16.3 9 24.2-9.9-.8-17.9-12.2-23.6-19.2-.8 6 4.4 10.3 5.9 15.6-4.9-3-10.2-5.5-13.9-10 2.3 4.5 6.5 8 7.4 13.2-3.4.6-7.4-4-9.8-5.8 3.4 4.2 4.7 9.5 8.5 13.4-8-1.4-13.1-10.3-18-16 2.1 5.1 4.8 9.9 7.4 14.8-3.9-2.2-6.8-5.8-10.1-8.9.9 1.9 1.1 3.9.6 6-9-2-15.6-23.5-17.8-30.9-3.9-13.4-3.8-28.5 8.2-37.7"/><radialGradient id="SVGID_3_" cx="-3095.741" cy="-329.999" r="14.565" gradientTransform="matrix(-.9495 .0289 -.0171 -1.0006 -2696.017 .915)" gradientUnits="userSpaceOnUse"><stop offset=".034" stop-color="#e2a825"/><stop offset=".427" stop-color="#70943d"/><stop offset=".869" stop-color="#a6b469"/></radialGradient><path class="st3" d="M241 242.2c6.8-.1 8.1 8.2 9.8 13-6.4-4.6-12.9-4.6-11.2-14.5"/><radialGradient id="SVGID_4_" cx="-3028.476" cy="-288.52" r="13.006" gradientTransform="matrix(-.9495 .0289 -.0171 -1.0006 -2696.017 .915)" gradientUnits="userSpaceOnUse"><stop offset=".006" stop-color="#b3a032"/><stop offset=".635" stop-color="#70943d"/></radialGradient><path class="st4" d="M171.6 206.3c4-5.2 9.6-6.3 14.9-2.4-5.2 2.9-8.5 8.1-14.6 3.2"/><linearGradient id="SVGID_5_" gradientUnits="userSpaceOnUse" x1="-1080.989" y1="2882.138" x2="-1078.358" y2="2881.732" gradientTransform="scale(-1) rotate(80.241 1191.15 1893.963)"><stop offset="0" stop-color="#f6eb16"/><stop offset=".735" stop-color="#fed208"/></linearGradient><path class="st5" d="M168.8 181.1c-4.7-3.2-4.7-5.2-.1-8.5 2.3 7.1-.6 8 .1 8.5z"/><linearGradient id="SVGID_6_" gradientUnits="userSpaceOnUse" x1="-295.258" y1="-2521.585" x2="-293.576" y2="-2521.844" gradientTransform="rotate(100.16 -1196.978 -989.118)"><stop offset="0" stop-color="#f6eb16"/><stop offset=".735" stop-color="#fed208"/></linearGradient><path class="st6" d="M149.1 166.6c3 .1 6 2.3 6.6 5.4"/><linearGradient id="SVGID_7_" gradientUnits="userSpaceOnUse" x1="-2874.203" y1="990.867" x2="-2872.107" y2="990.544" gradientTransform="rotate(-155.686 -1449.665 284.71)"><stop offset="0" stop-color="#f6eb16"/><stop offset=".735" stop-color="#fed208"/></linearGradient><path class="st7" d="M141.6 225.4c-1 3.3-3.2 5.1-6.6 5.5-.4-4.9 2.7-9.4 7.8-6.4"/><linearGradient id="SVGID_8_" gradientUnits="userSpaceOnUse" x1="-2570.038" y1="-1186.935" x2="-2564.068" y2="-1173.004" gradientTransform="scale(-1) rotate(-19.718 1226.88 -7789.513)"><stop offset=".005" stop-color="#56be91"/><stop offset=".468" stop-color="#078c5e"/><stop offset="1" stop-color="#064f63"/></linearGradient><path class="st8" d="M122.5 272.9c.5 4-17.9 15.7-20.3 17 3-3.6 6.1-7.6 7.1-12.3-4.2 1.9-9.3 5.1-13.2 7.7 1.9-4.2 3.2-8.7 5.3-12.8-5 7.5-13.1 10.9-20.6 15.3 3.4-3.6 4.8-8.7 6.8-13-4.7 6.7-8.2 5.7-14.7 9.3 4.3-8.2 8.9-16.7 12.3-25.3 4.5-11.5 15.4-5.8 25-5.1 19.9 1.4 33.3 19.1 15.3 35.2-2.9-4.9-2.4-10.8-3-16"/><linearGradient id="SVGID_9_" gradientUnits="userSpaceOnUse" x1="-2857.998" y1="1006.588" x2="-2855.902" y2="1006.265" gradientTransform="rotate(-155.686 -1449.665 284.71)"><stop offset="0" stop-color="#f6eb16"/><stop offset=".735" stop-color="#fed208"/></linearGradient><path class="st9" d="M133.3 204.4c-1 3.3-3.2 5.1-6.6 5.5-.4-4.9 2.7-9.4 7.8-6.4"/><linearGradient id="SVGID_10_" gradientUnits="userSpaceOnUse" x1="-509.082" y1="-2511.294" x2="-507.02" y2="-2511.612" gradientTransform="rotate(104.845 -1218.093 -912.975)"><stop offset="0" stop-color="#9dcb3b"/><stop offset="1" stop-color="#54ae47"/></linearGradient><path class="st10" d="M142.5 179.6c3.5-2.3 5 4.8 5.3 6.4-2.2-1-3.7-2.6-4.5-4.9"/><linearGradient id="SVGID_11_" gradientUnits="userSpaceOnUse" x1="-2938.727" y1="-292.752" x2="-2936.743" y2="-293.059" gradientTransform="matrix(-.9997 .0239 -.0239 -.9997 -2767.128 -7.41)"><stop offset="0" stop-color="#9dcb3b"/><stop offset="1" stop-color="#54ae47"/></linearGradient><path class="st11" d="M180.5 211.3c3 2.8-2.7 6.3-4.4 7.2.2-2.5 1.3-4.4 3.3-6"/><linearGradient id="SVGID_12_" gradientUnits="userSpaceOnUse" x1="2486.89" y1="-411.825" x2="2512.805" y2="-376.8" gradientTransform="scale(1 -1) rotate(1.403 -1747.223 -98291.913)"><stop offset="0" stop-color="#c67938"/><stop offset=".207" stop-color="#bc743a"/><stop offset=".536" stop-color="#a3643c"/><stop offset=".945" stop-color="#7f4d3c"/><stop offset="1" stop-color="#7a4a3b"/></linearGradient><path class="st12" d="M152.9 294.7c-1.8-12.2 6-47.4-6.4-52.3-9.9-3.9-19.8-7.7-29.7-11.6.5 22.8 1.1 54.9-1.3 77.6 13.2-.2 26.3 2 39.5 2.5-1.3-3-1.9-68.8-1.9-72.1"/><g class="st13"><linearGradient id="SVGID_13_" gradientUnits="userSpaceOnUse" x1="2535.227" y1="-361.215" x2="2535.227" y2="-325.128" gradientTransform="scale(1 -1) rotate(1.403 -1747.223 -98291.913)"><stop offset=".005" stop-color="#8c4531"/><stop offset=".021" stop-color="#894530"/><stop offset=".303" stop-color="#68462c"/><stop offset=".568" stop-color="#514428"/><stop offset=".808" stop-color="#434225"/><stop offset="1" stop-color="#3f4224"/></linearGradient><path class="st14" d="M152.7 287.5c2.2-9.3-.6-21-.4-30.6.2-6.1 3.4-16.1-3.5-18.8-9.8-3.8-22.9-6.5-31.7-12.4 2.4.9-2.5 22.7 1.9 22.4 1-.7 1.5-1.7 1.7-2.9-.1 5.6-2.4 15.2-.3 20.6.3-.2 7.8-9.6 8-9.4 3.8 5.4 4.3 15.3 4.7 21.6 2.8-3.4 3.9-7.6 5.4-11.6 2.5 5.6 2 11.8 3.6 17.6 1.4-2.2 1.3-9.6 1.6-11.4 1.3 3.1 5 32.7 9 14.9"/></g><linearGradient id="SVGID_14_" gradientUnits="userSpaceOnUse" x1="-2816.443" y1="-329.314" x2="-2812.099" y2="-329.314" gradientTransform="matrix(-.9997 .0239 -.0239 -.9997 -2620.99 -10.918)"><stop offset="0" stop-color="#fffffb"/><stop offset=".472" stop-color="#0caa94"/><stop offset="1" stop-color="#046896"/></linearGradient><path class="st15" d="M203.2 251c2.8.2-3.7-.1-3.7-.1l3.7.1"/><linearGradient id="SVGID_15_" gradientUnits="userSpaceOnUse" x1="-2878.961" y1="-102.923" x2="-2879.106" y2="-105.969" gradientTransform="matrix(-.9997 .0239 -.0239 -.9997 -2767.128 -7.41)"><stop offset="0" stop-color="#fffffb"/><stop offset=".472" stop-color="#0caa94"/><stop offset=".914" stop-color="#046896"/></linearGradient><path class="st16" d="M115.3 25.3c-1.5 3.9.4 2.4-3.5 4.9 1.5-1.4 2.7-3 3.5-4.9"/><linearGradient id="SVGID_16_" gradientUnits="userSpaceOnUse" x1="-2879.995" y1="-105.283" x2="-2880.002" y2="-105.429" gradientTransform="matrix(-.9997 .0239 -.0239 -.9997 -2767.128 -7.41)"><stop offset="0" stop-color="#fffffb"/><stop offset=".472" stop-color="#0caa94"/><stop offset=".914" stop-color="#046896"/></linearGradient><path class="st17" d="M114.6 29.1s-.1.5 0 0"/><linearGradient id="SVGID_17_" gradientUnits="userSpaceOnUse" x1="-2769.956" y1="-322.031" x2="-2769.967" y2="-322.264" gradientTransform="matrix(-.9997 .0239 -.0239 -.9997 -2767.128 -7.41)"><stop offset="0" stop-color="#fffffb"/><stop offset=".472" stop-color="#0caa94"/><stop offset=".914" stop-color="#046896"/></linearGradient><path class="st18" d="M10.2 248.3c-.3.1-.6.3-.9.4.2-.1.5-.3.9-.4z"/><linearGradient id="SVGID_18_" gradientUnits="userSpaceOnUse" x1="153.019" y1="-459.688" x2="112.243" y2="-212.994" gradientTransform="matrix(1 0 0 -1 0 -172.39)"><stop offset=".005" stop-color="#56be91"/><stop offset=".472" stop-color="#078c5e"/><stop offset=".844" stop-color="#064f63"/></linearGradient><path class="st19" d="M30.3 252.5c-2.7 2.9-7.1 3.3-9.8 6.2 6.3 6.8 19.2 1.1 27 3.5-2.3 2.2-4.6 4.4-7.1 6.4 7.3.4 13.9-4 21-4.9-.9 1.2-1.4 2.8-1.4 4.3 4.8.4 8.9-2.7 13.6-3-2.7 2.4-5.3 5-7.7 7.7 5.4.6 10.4-3.3 15.3-4.7-1.4 2.2-2.9 4.3-4.6 6.2 5.4.6 9.4-4.3 14.7-4.4-.7 2.9-3.1 5.2-3.8 8.1 6.1-1.2 10.6-6.4 16.5-8-.5 1.2-.5 2.4 0 3.6 4.3-.8 6.9-5 11-6.3-6.2 6.3 8.9-3.4 10-4.2-5.9 6.2 10.5-5.3 12.1-4.9 3 .9 2.1 4.3 3.9 6.1 3.6 3.5 4.6-1 6.6 0 1.4.7 13.6 8 14 4.7.6-4.8-10.9-13.1-14.8-14 3.9.4 7.5 1.2 11.5 1.1 7.4-.2 11.4 7.3 16.7 11.1-.3-1.5-1-2.8-2-3.9 5.1.6 7.4 6.3 12.3 7.3-1.5-2.7-2.9-5.3-4.4-8 7.1 4.6 14.3 12.5 23.1 13.6-4.8-4.5-11.5-9.9-11.5-17.2 3.1 1.5 6.1 3.2 9 4.9-1.8-2.7-3.2-5.5-4.3-8.6 5.4-.1 9.2 4.8 13.9 6.6-2.1-3.5-4.9-6.6-6.5-10.4 8.2 3.9 14.5 11 23 14.3-1.8-3.9-5.1-6.9-7-10.8 6.6 1.4 13.2 2.6 19.5 4.9-1.7-3.5-5.5-6.4-8.9-8.2 6.2 2 12.2 5.6 18.9 5.5-4.6-3.7-9.4-7.4-13.7-11.5 6.9-.6 12.2 6 18.9 6.5-4.2-4.3-9.6-8.9-11-15 5.3.9 10.1 4.5 13.8 8.2-2-2.8-4.9-5.8-5.5-9.4 3.3 1.5 6.4 2 9.6 4 5.1 3.1 9.2 6.6 5.4-1.9 1.1 2.4 16.4 4.5 19 4-3.7-2-6.7-5-10.1-7.3 3.5-.1 7-.9 10.2-2.5-5.2-3.2-12.9-3.1-18.4-6 3.9.7 8.2-2.1 11.5-3.8-5.1.6-15.2-.5-19.7-3.1 2.4-.9 4.6-2.1 6.7-3.6-5.6.2-30.3 7.1-34.4 1.2.4-.2 3.9-3.8.5-3.2 2.4.1 4.8-.2 7.2-.7-2.2-2-4.4-4-6.5-6.2 3.1.2 6.2.5 9.3.9-2.3-2.3-3.9-5.1-4.9-8.2 4-.2 7.9-.7 11.7-1.6-11.6-4.4-24.9-4.8-36.8-8.9-5.9-2.1-11.9-5.3-17.4-8.2-.9-.5-7.4-7.9-7.8-8 1.4.4 11.5 3.9 3.9-2 2.7.8 12 7 3.2-1.7 6 1 9.8 8.3 16.3 7.7-1.5-2.7-3.4-6.1-6.3-7.6 4.2.5 7.1 4.6 11.6 3.8 0-2.1-.7-3.9-2-5.5 3.9.9 7.5 2.8 11.6 2.1-2.8-1.5-5.5-3.3-8.1-5.1 4.3 3.9 16.9 1.6 20-3-15.4-2.7-25.2-10.4-38.1-18.2-6.1-3.6-11.9-.9-17.6-4.3-5.1-3-16-6.2-19.3-11.3 3.3.6 6.4 1.6 9.5 2.8 1-2.5-3-5.1-4.3-6.5 2.7 1.3 5.4 2.4 8.2 3.3-.9-1.8-1.7-3.6-2.4-5.5 2.8 1.4 5.8 2.3 8.9 2.7-.4-1.8-1.3-3.2-2.7-4.3 1.9.6 19 5.5 7.6-2 3.6.2 7.8 2.5 11.1.1-6.6-5.9-16.1-7.3-24.3-10-11.7-3.9-12.6-10.6-17.2-16.4 1.7 1.5 3.6 2.6 5.8 3.2-.1-2.2-.9-4-2.5-5.5 4.2 4.7 5.6 4.7 4.1 0 3.1 1.3 4.3 4.6 6.9 6.3-.6-2.4-1.3-4.7-2.1-7 3.7 3.1 7.2 8.6 4.7-1.1 2.2 2.1 4.8 3.9 7.5 5.2-3-8.2 1.1-.8 5.7-.7-1.8-1.9-3.7-3.8-5.6-5.5 2.7 1.5 5.6 2 8.6 1.4.6-.3-10-8-11-8.7-9.7-6.3-18.3-15.2-24.3-25.1 4 2.1 8.9 2.1 13.2 3.1-14.5-10.8-28.8-26.3-36.8-42.7-3.7-7.7-8.1-4.8-12.4 1-1.3 1.7-12.9 14.6-4.2 13 .2 2.1-3.2 13.2-.7.2-4 9.5-12.1 14.4-17.9 22.7-5.2 7.4-9.4 18.9-19.1 21.3 3.5 1.4 8.5.8 11.9-.8-4.3 5.2-9.3 10.6-14.2 15.2-3.1 3-8.9 2.7-11.4 6.2 1.6 2.6 7.3 1.6 9.6.7-.8 2-1.8 3.8-3.2 5.4 3.5.3 16-6 10.3 1.2 3-.1 11-7.1 9.6-.2 4-2.6 9 .1 11.2-1.1-2.2 9.1-33.1 11.8-40.1 15.9 1.8 2.2 4.2 3.3 7.1 3.3-2.9.6-5.8 1.2-8.8 1.5 3.4 4 10.1 3.5 14.8 3.6-7.6 3.1-3.4 3.6 2.2 3.8-5.5 8.1-18.4 14.7-27.2 18.5 3.4 1.7 6.3.8 9.8.7-4.4 2.5-9.5 5.1-14.4 6.3 4.5 2.7 10.1-.5 14.8 1.5-3.1 3.7-7.5 5-11.8 6.9 1.8 1.3 3.7 2.4 5.6 3.5-.6-.4-34.6 12-35.5 12.5 3.2 2.2 7.6 3.2 11.4 3.1-2.7 1.3-5.5 2.5-8.2 3.7 3.6 2.8 13.1 5.3 17.1 2.1-2.6 1.7-5 3.6-7.2 5.8 4 1 8.1 1.2 12.1.5 2-.3 4.1-.5 6.1-.8 6.1-2.1 7.7-.8 4.8 3.8 2.5 0 13.4-7.1 8.9-1.2 1.8-2.3 18.4-5 21-4.6-2.9 10.1-20.6 14.5-29 16.7-16.2 4.4-32 5.2-48.7 3.4 6 1.3 9.7 7.3 15.8 8.4-3.4 1-6.9 1.4-10.5 1.1 4.2 6 14.5 5.2 20.8 6.5-4.4 1.7-9 2.9-13.7 2.8 7.8 2.4 16.1 2 24.1 3-2.9 2.1-6.8 1-9.8 2.6 2.7 1.1 5.6 1.9 8.4 2.4-1-.5-12.7 3.3-14.1 3.9-7.2 2.8-17 3.1-22.8 8.8 6.7 5.6 18.2 2.3 26.3 2.9m190.1-40.7l4.6.6-1.6 3-3-3.6m-68-68.2c1.1.2 5.9 1 11.8 1.7-3.9-.1-7.9-.8-11.8-1.7z"/><linearGradient id="SVGID_19_" gradientUnits="userSpaceOnUse" x1="-2699.357" y1="-83.205" x2="-2699.357" y2="-547.646" gradientTransform="matrix(-.9997 .0239 -.0239 -.9997 -2620.99 -10.918)"><stop offset="0" stop-color="#fffffb"/><stop offset=".472" stop-color="#72b9e6"/><stop offset="1" stop-color="#317bc0"/></linearGradient><path class="st20" d="M89 68.2c-3.6 2.5-8.3 7.8-10.7 11.5-3 4.7-12.1 6.7-13.6 9.8-6 12.7 22.6-4.6 18.3-6.5 2.4 1.1-.5 4.9.8 6.3 2.1 2.4 11.1-19.5 10.3-19.9 0 0 2.6 12.6 4.4 4.3 1.7-8.2-3.4-9-9.5-5.5"/><path class="st21" d="M242.7 221.7c4-4.6 11.5-.6 16.7-.5 6.4 0 13.9 12 13 17.8-.2 0-11.7-7.7-12.5-8.7-12-14.1-6.1 10.9-6.2 10.9-4.5.9-13.9-9.2-17.8-11.1-5.2-2.6-17-7.3-20-11.8-6.1-9.2 5-4.2 8.4-2.1 5.3 3.4 12.5 2.9 18.4 5.5"/><path class="st0" d="M119.1 98.9c-3.4-3 3.4-9.2 4.5-9.2 7.9.1.1 13.5-4.5 9.2m99.2 111.4c5.1-.5 15.8 5.7 19.3 3.4 12.4-8.2 14.3 6.5 24.8 5.5 4.8-.5 15.6 16 12.6 19.9-2.9 3.8-5.8-5-6.3-6.5-1.2-3.9-5.6-1.6-6.6-6.2-.2-.9-15.5-7-16.4-6.7-6.8 2.3 12.8 17.3 12 21.7-4.4 2.9-6.4-5.1-8.3-7.3-3.7-4.7-10.4-2.2-13.8-7.8-3.5-5.7-7.8-6-13.7-8.3-.9-.3-10.2-6.9-3.6-7.7"/><linearGradient id="SVGID_20_" gradientUnits="userSpaceOnUse" x1="-2961.315" y1="-244.952" x2="-2938.41" y2="-223.955" gradientTransform="matrix(-.9997 .0239 -.0239 -.9997 -2767.128 -7.41)"><stop offset=".005" stop-color="#56be91"/><stop offset=".468" stop-color="#078c5e"/><stop offset="1" stop-color="#064f63"/></linearGradient><path class="st22" d="M204.7 178.1c-7.9.7-11.5-9.1-17.9-11.8.9 1.4 1.4 3.1 1.5 4.8-2.5 3-16.3-17.3-17-20.7-1-4.3 20.2-5.3 17.2-8.7 5.9 7 17.6 16.4 21.2 24.8-3.7-.2-6.4-3.1-9.6-4.5 1.8 3 3.8 6 5.9 8.8-6.8-.9-10.7-8-16.4-10.9 3.2 7.4 9.3 13 15.1 18.2"/><linearGradient id="SVGID_21_" gradientUnits="userSpaceOnUse" x1="-2939.964" y1="-307.211" x2="-2917.06" y2="-286.214" gradientTransform="matrix(-.9997 .0239 -.0239 -.9997 -2767.128 -7.41)"><stop offset=".005" stop-color="#56be91"/><stop offset=".468" stop-color="#078c5e"/><stop offset="1" stop-color="#064f63"/></linearGradient><path class="st23" d="M184.9 240.9c-7.9.7-11.5-9.1-17.9-11.8.9 1.4 1.4 3.1 1.5 4.8-2.5 3-16.3-17.3-17-20.7-1-4.3 20.2-5.3 17.2-8.7 6 7.1 17.6 16.4 21.2 24.8-3.7-.2-6.4-3-9.6-4.5 1.8 3 3.8 6 5.9 8.8-6.8-.9-10.7-8-16.4-10.9 3.1 7.3 9.2 12.9 15.1 18.2"/><path class="st0" d="M107.5 103.2c-.3.5-3.1 9.2-5.5 6.4-.5-1.4-.5-3-.1-4.4-4.4-2.7-6.3 5.9-11 4.2-3.1-1.1-8.2 1.3-12.1.7-2.2-.3-12.7 10.5-12.6 3.3.1-8.6 11-6.3 15.7-7.1 12.2-1.9 16.1-6.3 25.3-15.5 1.4-1.4 2.2-11.3 6.2-7.2 5.3 5.5-3.2 15.4-5.9 19.6m-5.2-44.5c4.5-5 3.1 4.1.2 6.8-.7.7-9.2 14.8-7.6 5.9 1.4-7.9-4-.8-4.8 3.1-.4 1.9-9.2 11.2-11.2 10.1C74.3 82 95.7 62.1 96 59.4c.3-3 7.7-16.2 11.1-11.7 5.1 6.5-7.9 6.4-4.8 11"/><linearGradient id="SVGID_22_" gradientUnits="userSpaceOnUse" x1="-2924.892" y1="-204.176" x2="-2916.572" y2="-187.043" gradientTransform="matrix(-.9997 .0239 -.0239 -.9997 -2767.128 -7.41)"><stop offset=".005" stop-color="#56be91"/><stop offset=".468" stop-color="#078c5e"/><stop offset="1" stop-color="#064f63"/></linearGradient><path class="st24" d="M161.2 115.6c3.3 4.1 9.4 4.7 13.9 6.8-4.1 1.6-9.8-.4-13.4-2.6 1.9 5.4 8.5 7.1 12.5 10.6-7.1-.7-12.2-6.5-18.6-9 1 4.5 3.7 8.3 5.8 12.4-4.7-2.1-8.1-6.3-11.6-10 .8 1.8 1 3.8.7 5.8-9.4-4.6-8.2-19.2-13.9-26.8"/><linearGradient id="SVGID_23_" gradientUnits="userSpaceOnUse" x1="-2892.956" y1="-114.983" x2="-2886.849" y2="-102.408" gradientTransform="matrix(-.9997 .0239 -.0239 -.9997 -2767.128 -7.41)"><stop offset="0" stop-color="#078c5e"/><stop offset=".645" stop-color="#064f63"/></linearGradient><path class="st25" d="M95.7 34c2.9-1.4 7.1-1.3 9.1-4.3-2.9.9-5.7.6-8.4-.8 3.9-.8 7.8-1.5 11.7-2.2-1.7-.6-3.4-1.3-5.1-1.9 8.4-2 15.4-10.7 23.3-11.5 5.6-.5 23.5 13.7 27.6 18-3-1-6-2.3-8.8-3.9 1.6 2 3.2 4.1 4.8 6.1-2.1-1.1-4.3-2.2-6.4-3.3 1.4 1.9 2.2 4 2.2 6.4-4 2.2-14.2-7.6-18-9.8-3.7-2.2-4.8-4.5-7.7-.4-1.3 1.8-13.3 16.9-8.7 7.9-2.5 1.9-5.4 3.3-8.4 4.1 2-2 3.8-4.2 5.3-6.6-4.2.4-8.1 3-12.5 2.2"/><linearGradient id="SVGID_24_" gradientUnits="userSpaceOnUse" x1="2521.769" y1="277.533" x2="2530.124" y2="294.736" gradientTransform="scale(1 -1) rotate(-8.697 -1314.554 16028.11)"><stop offset=".005" stop-color="#56be91"/><stop offset=".468" stop-color="#078c5e"/><stop offset="1" stop-color="#064f63"/></linearGradient><path class="st26" d="M99 109.4c-3.8 3.6-10 3.5-14.6 5 3.9 2.1 9.8.8 13.6-.9-2.6 5.2-9.4 6-13.8 8.9 7.2.2 12.9-4.9 19.6-6.6-1.6 4.3-4.8 7.8-7.4 11.6 5-1.5 8.9-5.2 12.8-8.5-1 1.7-1.5 3.7-1.5 5.7 9.9-3.4 10.7-18 17.3-24.8"/><linearGradient id="SVGID_25_" gradientUnits="userSpaceOnUse" x1="2191.053" y1="-995.616" x2="2199.611" y2="-977.994" gradientTransform="scale(1 -1) rotate(20.053 -1407.567 -6501.173)"><stop offset=".005" stop-color="#56be91"/><stop offset=".468" stop-color="#078c5e"/><stop offset="1" stop-color="#064f63"/></linearGradient><path class="st27" d="M81.8 83.8c-1.7 5.1-7.2 8.1-10.6 11.8 4.5-.1 9.1-4.3 11.6-7.7.1 5.9-5.6 10-8.1 14.8C81.1 99.2 83.9 91.9 89 87c.6 4.6-.7 9.2-1.2 13.8 3.7-3.9 5.5-9 7.4-13.9-.1 2 .3 4 1.3 5.7 7.1-7.9 1.2-21.1 3.9-30.4"/><linearGradient id="SVGID_26_" gradientUnits="userSpaceOnUse" x1="-2833.623" y1="-273.818" x2="-2856.221" y2="-256.433" gradientTransform="matrix(-.9997 .0239 -.0239 -.9997 -2767.128 -7.41)"><stop offset=".005" stop-color="#56be91"/><stop offset=".468" stop-color="#078c5e"/><stop offset="1" stop-color="#064f63"/></linearGradient><path class="st28" d="M92.9 173.7c-3.8 3.6-10 3.5-14.6 5 3.9 2.1 9.8.8 13.6-.9-2.6 5.2-9.4 6-13.8 8.9 7.2.2 12.9-4.9 19.6-6.6-1.6 4.4-4.8 7.8-7.4 11.6 5-1.5 8.9-5.2 12.8-8.5-1 1.7-1.5 3.7-1.5 5.7 9.9-3.4 10.7-18 17.3-24.8"/><linearGradient id="SVGID_27_" gradientUnits="userSpaceOnUse" x1="-2820.499" y1="-243.45" x2="-2843.096" y2="-226.068" gradientTransform="matrix(-.9997 .0239 -.0239 -.9997 -2767.128 -7.41)"><stop offset=".005" stop-color="#56be91"/><stop offset=".468" stop-color="#078c5e"/><stop offset="1" stop-color="#064f63"/></linearGradient><path class="st29" d="M79 143.7c-3.8 3.6-10 3.5-14.6 5 3.9 2.1 9.8.8 13.6-.9-2.6 5.2-9.4 6-13.8 8.9 7.2.2 12.9-4.9 19.6-6.6-1.6 4.4-4.8 7.8-7.4 11.6 5-1.5 8.9-5.2 12.8-8.5-1 1.7-1.5 3.7-1.5 5.7 9.9-3.4 10.7-18 17.3-24.8"/><linearGradient id="SVGID_28_" gradientUnits="userSpaceOnUse" x1="-2816.664" y1="-303.949" x2="-2855.952" y2="-288.378" gradientTransform="matrix(-.9997 .0239 -.0239 -.9997 -2767.128 -7.41)"><stop offset=".005" stop-color="#56be91"/><stop offset=".468" stop-color="#078c5e"/><stop offset="1" stop-color="#064f63"/></linearGradient><path class="st30" d="M73.6 216.5c-3.8 3.6-10 3.5-14.6 5 3.9 2.1 9.8.8 13.6-.9-2.6 5.2-9.4 6-13.8 8.9 7.2.2 12.9-4.9 19.6-6.6-1.6 4.4-4.8 7.8-7.4 11.6 5-1.5 8.9-5.2 12.8-8.5-1 1.7-1.5 3.7-1.5 5.7 5.5-1.9 8.1-8 10.4-12.8 1.7-3.6 9.4-11.6 9.6-15.2-6.4-.2-11.7 6.7-18 6.3 1-2.3 1.3-4.6 1-7.1-1.4 2.8-10.4 14.1-9.2 6.8-2.2 1.8-6.8 4.6-8.4 6.8l4.8.1"/><linearGradient id="SVGID_29_" gradientUnits="userSpaceOnUse" x1="-2759.682" y1="-307.691" x2="-2800.193" y2="-295.313" gradientTransform="matrix(-.9997 .0239 -.0239 -.9997 -2767.128 -7.41)"><stop offset=".005" stop-color="#56be91"/><stop offset=".468" stop-color="#078c5e"/><stop offset="1" stop-color="#064f63"/></linearGradient><path class="st31" d="M25.8 216.8c-3.8 3.6-10 3.5-14.6 5 3.9 2.1 9.8.8 13.6-.9-2.6 5.2-9.4 6-13.8 8.9 7.2.2 12.9-4.9 19.6-6.6-1.6 4.4-4.8 7.8-7.4 11.6 5-1.5 8.9-5.2 12.8-8.5-1 1.7-1.5 3.7-1.5 5.7 9.9-3.4 10.7-18 17.3-24.8"/><linearGradient id="SVGID_30_" gradientUnits="userSpaceOnUse" x1="-2801.901" y1="-360.731" x2="-2824.503" y2="-343.344" gradientTransform="matrix(-.9997 .0239 -.0239 -.9997 -2767.128 -7.41)"><stop offset=".005" stop-color="#56be91"/><stop offset=".468" stop-color="#078c5e"/><stop offset="1" stop-color="#064f63"/></linearGradient><path class="st32" d="M63.2 261.4c-3.8 3.6-10 3.5-14.6 5 3.9 2.1 9.8.8 13.6-.9-2.6 5.2-9.4 6-13.8 8.9 7.2.2 12.9-4.9 19.6-6.6-1.6 4.3-4.8 7.8-7.4 11.6 5-1.5 8.9-5.2 12.8-8.5-1 1.7-1.5 3.7-1.5 5.7 9.9-3.4 10.7-18 17.3-24.8"/><linearGradient id="SVGID_31_" gradientUnits="userSpaceOnUse" x1="2520.235" y1="314.616" x2="2528.589" y2="331.818" gradientTransform="scale(1 -1) rotate(-8.697 -1314.554 16028.11)"><stop offset=".005" stop-color="#56be91"/><stop offset=".468" stop-color="#078c5e"/><stop offset="1" stop-color="#064f63"/></linearGradient><path class="st33" d="M103.1 72.5c-3.8 3.6-10 3.5-14.6 5 3.9 2.1 9.8.8 13.6-.9-2.6 5.2-9.4 6-13.8 8.9 7.2.2 12.9-4.9 19.6-6.6-1.6 4.3-4.8 7.8-7.4 11.6 5-1.5 8.9-5.2 12.8-8.5-1 1.7-1.5 3.7-1.5 5.7 9.9-3.4 10.7-18 17.3-24.8"/><linearGradient id="SVGID_32_" gradientUnits="userSpaceOnUse" x1="2235.771" y1="-995.606" x2="2244.329" y2="-977.984" gradientTransform="scale(1 -1) rotate(20.053 -1407.567 -6501.173)"><stop offset=".005" stop-color="#56be91"/><stop offset=".468" stop-color="#078c5e"/><stop offset="1" stop-color="#064f63"/></linearGradient><path class="st34" d="M123.8 68.5c-1.7 5.1-7.2 8.1-10.6 11.8 4.5-.1 9.1-4.3 11.6-7.7.1 5.9-5.6 10-8.1 14.8 6.4-3.5 9.2-10.8 14.3-15.7.6 4.6-.7 9.2-1.2 13.8 3.7-3.9 5.5-9 7.4-13.9-.1 2 .3 3.9 1.3 5.7 7.1-7.9 1.2-21.1 3.9-30.4"/><linearGradient id="SVGID_33_" gradientUnits="userSpaceOnUse" x1="2238.453" y1="-968.143" x2="2247.012" y2="-950.518" gradientTransform="scale(1 -1) rotate(20.053 -1407.567 -6501.173)"><stop offset=".005" stop-color="#56be91"/><stop offset=".468" stop-color="#078c5e"/><stop offset="1" stop-color="#064f63"/></linearGradient><path class="st35" d="M116.9 41.8c-1.7 5.1-7.2 8.1-10.6 11.8 4.5-.1 9.1-4.3 11.6-7.7.1 5.9-5.6 10-8.1 14.8 6.4-3.5 9.2-10.8 14.3-15.7.6 4.6-.7 9.2-1.2 13.8 3.7-3.9 5.5-9 7.4-13.9-.1 2 .3 4 1.3 5.7 7.1-7.9 1.2-21.1 3.9-30.4"/><path class="st0" d="M202.2 197.1c12.9 0 18.1-.1 18.1 13.6 0-13.4 6.2-13.9 18.4-14.2-14.5.2-17.7 1-18.1-13.6.1 15-5 13.7-18.4 14.2M77.7 255c12.9-.1 18.1-.1 18.1 13.6.1-13.4 6.2-13.9 18.4-14.2-14.5.2-17.7 1-18.1-13.6.1 15-5.1 13.7-18.4 14.2m64.5-98.8c12.9 0 18.1-.1 18.1 13.6 0-13.4 6.2-13.9 18.4-14.2-14.5.2-17.7 1-18.1-13.6.2 15-5 13.7-18.4 14.2m-78-27.6c12.9-.1 18.1-.1 18.1 13.6.1-13.4 6.2-13.9 18.4-14.2-14.5.2-17.7 1-18.1-13.6.2 15-5 13.7-18.4 14.2m41 179.6c3.2 6.5 22.4 3 28.4 7.3 5.9 4.1 34 12.6 34.4-1.8.3-10.2-25.8-14.8-32.3-17.1-5.2-1.9-37-1.6-30.5 11.6"/><linearGradient id="SVGID_34_" gradientUnits="userSpaceOnUse" x1="-2873.19" y1="-358.476" x2="-2880.081" y2="-316.775" gradientTransform="matrix(-.9997 .0239 -.0239 -.9997 -2767.128 -7.41)"><stop offset=".005" stop-color="#56be91"/><stop offset=".468" stop-color="#078c5e"/><stop offset="1" stop-color="#064f63"/></linearGradient><path class="st36" d="M138.7 253.7c-1.6 8-8.7 21.7-17.1 24.2 1.4-4.9 3.9-9.6 4.5-14.7-5.3 8.1-14.4 13.6-23.3 16.9 6.4-5.8 15.5-10.8 17.8-19.8-7.6 7.6-17.7 10.7-26.8 15.9 8.9-13.1 22.9-22.1 31.9-35.2-.7 5.1-.7 10.5-.8 15.7 6.1-4.6 8.4-12.5 12.1-18.8-.5 5.8-1.2 11.7-3.1 17.2 1.8-.4 3.5-1.4 4.9-2.7"/><linearGradient id="SVGID_35_" gradientUnits="userSpaceOnUse" x1="-2831.498" y1="-318.413" x2="-2800.263" y2="-339.886" gradientTransform="matrix(-.9997 .0239 -.0239 -.9997 -2767.128 -7.41)"><stop offset=".005" stop-color="#56be91"/><stop offset=".468" stop-color="#078c5e"/><stop offset="1" stop-color="#064f63"/></linearGradient><path class="st37" d="M60.5 265.6c3.6-5.6 7.8-10.8 10.5-16.8-3.2 2.1-5.7 5.4-8.2 8.2 5.8-10.1 10-20.5 15.5-30.7-5.3 9.4-12.8 22.8-23 27.9 1-3.2-.3-6.7.2-9.9-5.9 6.8-20.8 18-30.3 17.5 1.5 2.3 26.5-1.6 22.9 1.8 5.3-2.6 8.2-9.4 14.3-10.6-.2 4.9-4.9 9.1-7 13.2"/><linearGradient id="SVGID_36_" gradientUnits="userSpaceOnUse" x1="-2944.378" y1="-349.932" x2="-2918.184" y2="-309.144" gradientTransform="matrix(-.9997 .0239 -.0239 -.9997 -2767.128 -7.41)"><stop offset=".005" stop-color="#56be91"/><stop offset=".468" stop-color="#078c5e"/><stop offset="1" stop-color="#064f63"/></linearGradient><path class="st38" d="M163.1 255.9c-7.5-11.8-13.5-25-17.1-38.6 10 12.4 15.7 26.4 27.9 37.7-2.2-4.3-4.5-8.5-6.3-12.9 5.2 10.3 17.4 20.6 26.8 27.1-5.5-1.7-12.2-10.8-17.8-10.6 1 2.2 2 4.5 2.9 6.7-4.5-1-6.4-6.3-10.2-8.4.2 1.5.7 2.9 1.7 4.1-3-1.1-5.9-2.7-8.4-4.7"/><linearGradient id="SVGID_37_" gradientUnits="userSpaceOnUse" x1="-2958.706" y1="-262.553" x2="-2940.31" y2="-240.769" gradientTransform="matrix(-.9997 .0239 -.0239 -.9997 -2767.128 -7.41)"><stop offset=".005" stop-color="#56be91"/><stop offset=".468" stop-color="#078c5e"/><stop offset="1" stop-color="#064f63"/></linearGradient><path class="st39" d="M176.7 153.4c4.8 2.2 9 5.7 12.9 9.1-4.4.5-9.9-1.1-13.6-3.5 2.3 5 7.6 7.7 11.9 10.6-7.9-.5-13.4-7.2-19.2-11.8 2.4 4.8 4.1 10 6.9 14.6-5.8-4.4-10.3-10.4-14.1-16.5"/><linearGradient id="SVGID_38_" gradientUnits="userSpaceOnUse" x1="-2956.296" y1="-337.495" x2="-2943.874" y2="-318.149" gradientTransform="matrix(-.9997 .0239 -.0239 -.9997 -2767.128 -7.41)"><stop offset=".005" stop-color="#56be91"/><stop offset=".468" stop-color="#078c5e"/><stop offset="1" stop-color="#064f63"/></linearGradient><path class="st40" d="M194.2 259.6c-6.2-9.2-10.9-16.2-13.9-27.1 7.3 8.3 10.1 20 18.3 27.8"/><linearGradient id="SVGID_39_" gradientUnits="userSpaceOnUse" x1="-2995.149" y1="-340.555" x2="-2979.89" y2="-316.796" gradientTransform="matrix(-.9997 .0239 -.0239 -.9997 -2767.128 -7.41)"><stop offset=".005" stop-color="#56be91"/><stop offset=".468" stop-color="#078c5e"/><stop offset="1" stop-color="#064f63"/></linearGradient><path class="st41" d="M222.2 256c-8.4-4.1-11.4-14-17.5-20.5 4.2 5.3 14.7 16.3 21.7 17.6-3-3.7-6-7.4-7.6-11.9 8.3 7.8 18 9.6 26.7 16-5.8 0-18.9-7.2-11.4.5-2.6-1-5.3-1.8-8-2.5"/><linearGradient id="SVGID_40_" gradientUnits="userSpaceOnUse" x1="-2905.112" y1="-337.342" x2="-2915.601" y2="-353.45" gradientTransform="matrix(-.9997 .0239 -.0239 -.9997 -2767.128 -7.41)"><stop offset=".005" stop-color="#56be91"/><stop offset=".855" stop-color="#078c5e"/></linearGradient><path class="st42" d="M149.8 263.6c3.7 5.9 7.3 11.9 11.5 17.4-9-4.5-13.8-14.3-19.3-22.2"/><path class="st0" d="M193.2 173.7c3.3 1.2 6.8 3.4 8.7 6.4 3.1 5 5.1 2.9 11.2 2.4 4.7-.3 8.6.3 11.5 4.2 4.2 5.7 2.9 1.6 9.3 1.6 7.7 0 .8 12.7-4.2 8.7-.2-.2-15.4-8.2-14.8-8.4-4.9 2.1 11.6 9.9 8.8 13.8-1.5 2.1-16.1-8.6-17.1-10.3-1.2-1.9-4.1-4-6.1-1.6-3 3.7-3.2-1.9-5.3-2.2-2.2 2 9.1 8.5 8.8 13.2-.6 8.9-13.2-3.8-15.2-5.7-4.2-4-5.2-7-7.1-12.1-1.4-3.6-6.4-3.8-8-7.3-4.7-10 16.9-3.7 19.5-2.7"/><linearGradient id="SVGID_41_" gradientUnits="userSpaceOnUse" x1="-2844.263" y1="-344.519" x2="-2848.225" y2="-320.551" gradientTransform="matrix(-.9997 .0239 -.0239 -.9997 -2767.128 -7.41)"><stop offset=".005" stop-color="#56be91"/><stop offset=".468" stop-color="#078c5e"/><stop offset="1" stop-color="#064f63"/></linearGradient><path class="st43" d="M102.5 252.3c-4.7 7.5-13.9 10.6-20.6 15.9 2.9-2.5 5.9-5.9 7.8-9.2-5.7.9-11.5 2-17.3 1.8 1.2-2.8 5-4.1 7.4-5.6-2.4.2-6.8 1.4-8.8-.6 6.8-5 15.2-6.8 21.9-11.9"/><linearGradient id="SVGID_42_" gradientUnits="userSpaceOnUse" x1="-2929.757" y1="-264.873" x2="-2948.018" y2="-274.483" gradientTransform="matrix(-.9997 .0239 -.0239 -.9997 -2767.128 -7.41)"><stop offset=".468" stop-color="#078c5e"/><stop offset="1" stop-color="#064f63"/></linearGradient><path class="st44" d="M170.9 178.7c9.4 7.9 19.3 14.2 31.2 17.2-6.5 1.5-13.4.3-19.4-2.5 3.6 3.4 7.1 6.9 11.4 9.3-4.3.5-8.4-2.1-11.9-4.1 1.5 2.1 2.8 4.3 3.9 6.7-5.7-.2-9.7-5.6-13.9-8.6"/><linearGradient id="SVGID_43_" gradientUnits="userSpaceOnUse" x1="-2960.437" y1="-332.622" x2="-2978.698" y2="-342.231" gradientTransform="matrix(-.9997 .0239 -.0239 -.9997 -2767.128 -7.41)"><stop offset=".468" stop-color="#078c5e"/><stop offset="1" stop-color="#064f63"/></linearGradient><path class="st45" d="M203.2 245.7c9.4 7.9 19.3 14.2 31.2 17.2-6.6 1.5-13.4.3-19.4-2.5 3.6 3.4 7.1 6.9 11.4 9.3-4.3.5-8.4-2.1-11.9-4.1 1.5 2.1 2.8 4.3 3.9 6.7-5.7-.2-9.7-5.6-13.9-8.6"/><linearGradient id="SVGID_44_" gradientUnits="userSpaceOnUse" x1="-2597.527" y1="3.378" x2="-2599.113" y2="-94.524" gradientTransform="matrix(-1.0661 -.0331 .0283 -.9114 -2637.459 -39.037)"><stop offset=".472" stop-color="#c4e7ee"/><stop offset="1" stop-color="#57c2b0"/></linearGradient><path class="st46" d="M178.8 108.1c3.3 0 16.8.8 15.4 7.3-.3 1.2-17.8-1-19.6 1-2.1 2.3-3.5-1.9-4-3.1-1.5-3.6-3.7.3-5.8-.8-1.8-1.1-7.3-9.9-7.5-8.5.3 1 .7 2 1.1 2.9-.3 2.7-4.4-1.7-4.2 1.5 0-.9 14.9 12.7 3 9.6-1.9-.5-4.6.7-6.1-1.2-1.8.5-.3 6.4-2.3 5.5-5.6-2.7-7.6-5.8-7.6-11.7.1-4.2-3.5-3.9-6-2.5-4 2.1-5.5-9.3-6.5-11.1 0 2.8-8.1 6.6-10.9 9.1-1.4 1.4-2.8 1.2-4.2-.4-.8 1.9-2.1 3.6-3.8 5-4.2 3.8-8.6 6.6-10.4-.2-3 1.1-12.3 1.7-14.1 3.9-1.3 1.6-15.5 1.9-17.6.9 1.6-4.6 16.5-6.8 20.9-7.2 5.9-.5 6.5-7.9 12.4-7.5 5.2.4 5.8-3.7 8.1-7.3 4.3-6.7 9.2 16.5 9.6 5.8 0-2.3 2.2-24.2 4.7-15.5 1.9 6.3.6 11.3 5.6 5.5 4-4.8 2.7-7.9 7.6-.3 2.6 4.3 8.3-.2 11.6 1.1 11.7 4.8 16 18.2 30.6 18.2"/><path class="st0" d="M153.6 90.3c2.4 4.4 6 2.9 9.7 5.2 2.6 1.6 2.2 4.4 5.4 5.7 1.9.7 13 5.3 13.2 6.6.8 4.6-8 .4-9.1.2-8.2-1.7-8-2.1-14.6-6.8-8.8-6.3-2.9 8.4-11 .6-7.4 4.3 7.3 7.2 10 7.8 3.2.7 4.7 3.7.9 5.9-3.4 1.9-7.1-2.7-9.4-1-9.8 7.3-.9-11.9-10.6-9.3-1.8.5-3.1-17.4-4.6-19.3-2.2-2.9 3.5-1.9 4.8-.3 1.9 2.3 2.1 8.7 7.1 6.9 4.5-1.7 1-15.3 8.2-2.2"/><linearGradient id="SVGID_45_" gradientUnits="userSpaceOnUse" x1="-2922.229" y1="-167.711" x2="-2913.89" y2="-150.541" gradientTransform="matrix(-.9997 .0239 -.0239 -.9997 -2767.128 -7.41)"><stop offset=".005" stop-color="#56be91"/><stop offset=".468" stop-color="#078c5e"/><stop offset="1" stop-color="#064f63"/></linearGradient><path class="st47" d="M162 78.3c3.3 2.6 5.6 6.2 8.7 9-3.3-1.2-6.4-2.7-9.5-4.4 1 2.3 2.2 4.4 3.8 6.2-1.8-1.7-3.8-3.3-5.9-4.5 1.5 4.4 5.1 7.5 6.9 11.7-7.9-3.8-11.9-13-17-19.6.5 3.2.2 6.5-.9 9.6-1.5-1.4-2.7-3.1-3.6-4.9-3.2 12.7-8-11.5-9.2-16.3"/><linearGradient id="SVGID_46_" gradientUnits="userSpaceOnUse" x1="-2770.665" y1="-130.726" x2="-2771.839" y2="-203.179" gradientTransform="matrix(-.9997 .0239 -.0239 -.9997 -2620.99 -10.918)"><stop offset=".472" stop-color="#c4e7ee"/><stop offset="1" stop-color="#57c2b0"/></linearGradient><path class="st48" d="M142 77.8c2.5 0 4.9-.3 7.3-.9 1.3 4 5.1 4.5 8.7 4.1 7.7-.7 10.1 1 17 4.4 10.4 5.2 9.5-.9 3.2-7.4-5.9-6.1-13.4-9.8-18.6-16.7-4.6-6.2-28.1-22.7-30.9-11.3-1 4.2-11.2 10.4-2.6 13.4 8.2 2.9 8.8 12.4 15.9 14.4"/><path class="st0" d="M140.5 47c4 5.9 10.4 4.1 15.5 3.6 6.2-.7-5.2 12.9-9.7 7.1-3.7-4.8-8.7-10.2-14.2-11.9-3.6-1.1-1.2-7.8 2-6.5 3.1 1.2 4.6 5.2 6.4 7.7m-13.8 20.7c-2.4 3.2-11.6 3.4-15.7 6.5-9.5 7.3-3.4-8.2-.6-11.3 1.6-2 3.7-2.9 6.1-3 4-.4 2.3-2.5 4.5-4.6 7.7-6.7 9.3 7.8 5.7 12.4"/><path class="st0" d="M141.8 57.3c7 7.7 9.8 7 18.6 4.5 3.5-1 .8 5.9 1.3 6.7 1.4 2.2 6.7-.2 9.1 1.2 4.2 2.6 10.8 7 14.3 10.4 2.2 2.2 1.6 4.2-1.2 5.4-3.4 1.4-8.3-5-11.7-5.7-7.9-1.8-5.6-5.7-14.3-.7-4.2 2.5-4.3-2.2-6.2-4.7-4.1-5.4-3.7 0-6.4 1.5-5 2.9-21-38.8-3.5-18.6"/><linearGradient id="SVGID_47_" gradientUnits="userSpaceOnUse" x1="-2968.616" y1="-273.214" x2="-2991.107" y2="-284.699" gradientTransform="matrix(-.9997 .0239 -.0239 -.9997 -2767.128 -7.41)"><stop offset=".005" stop-color="#56be91"/><stop offset=".468" stop-color="#078c5e"/><stop offset="1" stop-color="#064f63"/></linearGradient><path class="st49" d="M232.9 202c7.2 3.5 15.1 5.3 22.5 8.4-8.9.1-15.3-3.8-23.7-4.8 2.5 4.1 6.2 7.4 10 10.2-8 1-16.6-7.3-20.6-13.3 1.1 2.9 2.3 5.6 3.8 8.3-5-2.1-7.7-7.6-11.5-11.2"/><linearGradient id="SVGID_48_" gradientUnits="userSpaceOnUse" x1="-2904.706" y1="-279.534" x2="-2908.02" y2="-251.786" gradientTransform="matrix(-.9997 .0239 -.0239 -.9997 -2767.128 -7.41)"><stop offset=".005" stop-color="#56be91"/><stop offset=".468" stop-color="#078c5e"/><stop offset="1" stop-color="#064f63"/></linearGradient><path class="st50" d="M154.8 169.3c6.4 6.6 13.2 12.8 20.2 18.9-5.2-1.3-9.1-4.9-13.7-7.4-.6 6.6 2.5 12.8 2.7 19.3-7.1-3.2-10.5-11.7-15.5-17.2 0 2.3-.6 4.6-1.6 6.6-4.5-2.8-1.9-10.6-3.3-14.7-2 3.7-3.8 8.3-7.5 10.6-.4-5.1-.5-10.4.4-15.5-4.1 4.9-6.5 13.7-13.7 15 .4-3.5 3.5-6 3.6-9.7-4.2.9-6.9 4.7-11.1 5.7 3.5-11.4 16.1-21.4 23.5-30.2"/><linearGradient id="SVGID_49_" gradientUnits="userSpaceOnUse" x1="-2714.368" y1="-264.414" x2="-2714.515" y2="-273.464" gradientTransform="matrix(-.9997 .0239 -.0239 -.9997 -2620.99 -10.918)"><stop offset=".472" stop-color="#c4e7ee"/><stop offset="1" stop-color="#57c2b0"/></linearGradient><path class="st51" d="M93.4 207c5.1-.1 7.8-2.8 12.3-5.8"/><path class="st21" d="M75.3 197.7c13 3.2-9.6 13.9-11 16.2-2.4 3.9-3.6 9.8-9 10.6-8.5 1-1.2-8.3-4.8-10-2.6-1.2-9.1 13.4-15.7 8.6-3.7-2.8 3.9-6.1.1-8.6-2.3-1.5-7 4.8-9.5 5-7.7.4-1.4-7.9.6-9.5 4.7-3.8 10.8-4.3 16.5-4.1s12.9 2 18.4-.2c4.5-2 9.1-9.3 14.4-8m-25.1 35c-1.3-3.7-11.6 3.8-13.4 5.1-7.5 5.2-17 7.1-25.8 6.5-1.3-.1-16.5 3.4-8.9 6.3 2.5.9 17.6-.8 19.4-1.5 21-8.5 1.8 4.2 9.1 7.2.4.1 13.7-5.1 14-5.7 2.3-3.8 7-13.6 5.6-17.9"/><linearGradient id="SVGID_50_" gradientUnits="userSpaceOnUse" x1="-2866.184" y1="-289.973" x2="-2834.816" y2="-331.932" gradientTransform="matrix(-.9997 .0239 -.0239 -.9997 -2767.128 -7.41)"><stop offset=".005" stop-color="#56be91"/><stop offset=".468" stop-color="#078c5e"/><stop offset="1" stop-color="#064f63"/></linearGradient><path class="st52" d="M98.7 208.1c-6-.8-13.9 1.5-20 2.2 3.3-1.1 6.8-1.7 10.3-1.8-5.9 4.9-14.8 8.8-19.9 14.5 4.5 2.9 10.9-2.4 14.7-4.3-6.7 5.8-12.4 12.6-19 18.5 5.6-1.4 11.1-6.4 16.7-6.9-2 3.9-5.2 7.1-6.7 11.2 3.4-1.6 6.6-3.4 9.8-5.3.1 5.2-4 10.8-1.7 16 2-8.2 7.6-15.1 9.5-23.1 2.1 7.1 2.9 14.7 6.6 21.2.6-4.2 0-8.6 1.6-12.7 1.5 4.3 2.6 12 7.3 14.2-.2-4-4.3-34.3-6.9-36"/><path class="st0" d="M77.5 191.1c-2.8 2-5 8-9.1 8.1-5.4.4-7.8-3-11.3 3-2.7 4.6-5.7-1.3-9.1-1.6-5-.5-8.7 3.9-13.7 4.3-3.6.3-19.1 6.1-16.2 10.6 5.8 9 11.3-7.2 17.8-7 2.7.1-8.2 18.9 1.5 12.6 1.7-1.1 4.2-10.7 6.6-8.6 2.9 2.6 5-1.9 6.3-3.7 2.3-3.2 5.1 3.5 2.5 6.1-1.9 1.9-7.4 4.1-4.7 7.4 8.1 9.7 6.7-17.4 15.3-10.4 1.9-2.6.8-8.3 5.1-9 3.3-.6 5.8 1.9 9.1.8 8.9-3 6.2-17.2-.1-12.6m-47.4 50.5c.9-.4 2-.5 3-.4 2.2 1.4-3.3 7.1.1 8.8 2 1 3.4-7.4 5.7-7.6 2.6-.3 6.2 7.3 6.8-1.1.6-8.2-1.2-6.3-7.1-6.9-6.5-.7-9.4-3.7-15.2 1.9-6 5.8-10.7 3.3-17.8 5.7-3.5 1.2-8.4 7.7-1.6 7.1 5-.5 8.7-2.7 13.8-1.3 7.2 1.8 6.8-4 12.3-6.2"/><path class="st53" d="M82.1 214.2c-2.5 1.2-3.9 6-7.5 3.6-3.9-2.6.2-4.7 2.6-5.2 2.6-.6 3.9-3.6 6.5-4 5.8-1.1.1 4.8-1.6 5.6"/><path class="st0" d="M155.9 250.2c3.1.6 9.4 7.7 2.7 7.8 2.2 1.7 8.4 6.9 7.2 10.3-2.1 6.1-13-7.5-14.1-9.1 3.4 9.2-18-14.3-7.4-11.1-2.5-1.7-7.6-6.1-5-9.8 4.2-.1 9.1 3.4 11.1 6.9-3-4 4.1-.1 4.8.9"/><linearGradient id="SVGID_51_" gradientUnits="userSpaceOnUse" x1="-2725.177" y1="-198.56" x2="-2726.215" y2="-262.61" gradientTransform="matrix(-.9997 .0239 -.0239 -.9997 -2620.99 -10.918)"><stop offset=".472" stop-color="#c4e7ee"/><stop offset="1" stop-color="#57c2b0"/></linearGradient><path class="st54" d="M128 167.4c-4 5-9.9-2.6-12.7 2.1-1.8 3.4-8.3 9.7-12.4 9.4-3.1-.2-10-.4-12.9-1.4-8.5-3-.5-9 5.1-8.1 15.1 2.5 16.5-9 26.3-16.5 15.1-11.6 14.2 4.9 6.6 14.5"/><linearGradient id="SVGID_52_" gradientUnits="userSpaceOnUse" x1="-2795.086" y1="-171.54" x2="-2796.54" y2="-261.25" gradientTransform="matrix(-.9997 .0239 -.0239 -.9997 -2620.99 -10.918)"><stop offset=".472" stop-color="#c4e7ee"/><stop offset="1" stop-color="#57c2b0"/></linearGradient><path class="st55" d="M135.8 154.2c.4-4.9 1.1-10.4 1.7-15.2.3-2.5 7.4-5.1 8.6-4.5 3.7 1.7 5.6-2.9 8.8.2 3.9 3.9 16 7 20.9 3.6-6.4-12.1 6.4-2.9 11.6 0 9.6 5.4 22 5.3 30.8 12.7 2 1.5 9.8 8.8 3.4 10.6-4.7 1.3-9.1-4.9-12.5-7-5.8-3.7-4.6 2.5-9.1 3.5-6.1 1.2-4.6-10.1-9.3-9-3.9 1 6 8.5 1.6 10.2-6.1 2.2-10.4-17.3-16.1-14.6-3.7 1.8 6.7 11.7-6.1 11.1 1.8 4.7-.5 6.8-5.5 6.1 9.8 10.5-8.2 6.6-8.4 8.2-1.7 11.5-21-7.7-20.4-15.9"/><path class="st0" d="M193.2 135c8.3-3.6 22 1.9 19.3 13.1 5.2-.4 14.4 1.6 15.1 8 .6 5.4-13.7.4-15.8-2.2-6.6-8.2-9.9 3.8-14.7-.9-2.7-2.6-17.3-10.5-17.4-13.9 2.4-.6 4.6-.1 6.6 1.5-.6-5.7-14.3-3.1-11.7-10.3 1.4-3.7 7.6-.1 9.3 1.3 4.3 3.3 3.9 5.7 9.3 3.4m-36 2.4c-.4-.2 24.4 9.6 15.8 13.2-4 1.7-9-.6-12.1.7-2.8 1.1 7.7 7.3 8.1 8.4-2.5 1.1-11.3-4.8-12.7-1.8-1.5 3.1 7 7.9 8.9 9-1.3 6.5-9.9-6.8-13.1-2.9-7.1 8.5-3.7-4.9-10.8-7.1-5.9-1.8 1.9-9.9-.8-13.8-7.6-11.1 7.7-1.7 7.7-1.7 1.7-.4-.7-7.3-.1-8.7 2.9-6.5 6.5 3.5 9.1 4.7M128 158.1c-3.6 8.3-10.9 12.4-5.2 1.6-6-3.9-10.3 11-13.7 13.9-3.1 2.7-7.4 4.9-8.3-1.1-2.6-.6-9.5 5.7-9.8-1.1-.3-6.3 16.2-4.8 20.2-8.4 4-3.5 6.5-9.9 10.6-12.9.8-.6 10.6-2.5 11.6-2 3.6 1.7-5 8.9-5.4 10m-4.1-26.1c.6 4-1.7 9.8-3.5 13.2-4.8 9-4.2-3.7-7.3-3.6-8 0-11.1-2.4-2.3-7.8 4-2.5 11.4-12.5 13.1-1.8"/><linearGradient id="SVGID_53_" gradientUnits="userSpaceOnUse" x1="-2670.356" y1="-807.879" x2="-2672.117" y2="-793.14" gradientTransform="rotate(166.631 -1359.24 -148.55)"><stop offset=".005" stop-color="#56be91"/><stop offset=".468" stop-color="#078c5e"/><stop offset="1" stop-color="#064f63"/></linearGradient><path class="st56" d="M64.5 169.1c-4.2 5.3-11.2 7.8-17.6 9.1 5.7-1.1 15.5-1.4 21.4-1.3-2.6 3-6.1 4.7-9.8 5.8 5.4 2.7 12.8-1.7 17.7-3.7-1.3 2.8-2.8 5.6-4.6 8.1 7-2.6 11.2-10.7 15.6-16.2-2.3 3.3-6.9 3.4-10.1 5.2 3-2.3 4.6-5.9 7.1-8.7-3.7 4.1-9.5 5.7-14.8 6 .9-3 2.6-5.7 4.8-7.9-4.2 3.7-8.3.9-11.4-2.3"/><path class="st57" d="M51.1 183.9c-5.5-.3-12.7 2.1-15.5 7.2 5.7-.7 12.2-1.9 15-7.7m51.5-28.4c.3 4.5-2.5 11.3-6.6 13.5-4.5-5.1.7-14.8 6.1-17.1m23.5-42.5c1.8 2.4 1.4 6.9.1 9.4-4-2.3-2.7-7.8-.5-10.7m103.9 124.3c4.6-2.1 10.2 1.3 13.5 4.1-4.6.9-9.9.8-13.5-2.8m-43.1 20.2c1.6 2.1 7.3 9 5.2 11.8-3.7 5.1-6.5-9.8-6.5-11.4M81.4 264.6c-2.8 3.1-5 7.6-9 9.4-2.6 1.2-2.6-2.2-1.8-3.6 2.1-3.8 6.6-5.5 9.9-8"/><path class="st58" d="M141.4 38c3.1 1.3 7.3 3.8 6.5 7.9-4.2-.6-7.3-4.6-9.5-7.8m-9.8 71.6c.8-1.4 5.1 5 3.6 6.1-3.1 2.2-5.4-5.7-5.7-7.4m-47.1 11.8c-2.2-.7-7-1-8.1 1.9 2.8.2 5.4-.2 8.1-1"/><path class="st59" d="M82.6 160.9c-2.2 8.6-12.2 8.9-2.6-1.7m-15.1 76.7c-10.1 9.2-9.7-.3 0-2.2"/><linearGradient id="SVGID_54_" gradientUnits="userSpaceOnUse" x1="-2896.063" y1="-256.892" x2="-2906.405" y2="-310.672" gradientTransform="matrix(-.9997 .0239 -.0239 -.9997 -2767.128 -7.41)"><stop offset=".005" stop-color="#56be91"/><stop offset=".468" stop-color="#078c5e"/><stop offset="1" stop-color="#064f63"/></linearGradient><path class="st60" d="M137.8 190.3c-5.7 2.6-11.3 8.8-16.2 12.7 2.3-2.7 5-5.1 8-7.1-2.8 7.5-8.5 15.4-10.2 23.1 5.4 0 8.3-7.9 10.6-11.6-3 8.5-4.6 17.5-7.5 26 4.1-4.3 6.4-11.4 11.1-14.9.2 4.4-1.1 8.8-.4 13.2 2.5-3 3.7-6.7 5.9-9.8 2.6 4.4 1.7 11.3 6.3 14.6-2.3-8.1-.7-16.9-3-24.8 5.3 4.9 9.6 11 16 14.5-1.6-3.9-4.2-7.4-4.8-11.7 3.4 2.8 8.1 8.8 13.2 8.2-2-3.1-20.8-27-23.4-27"/><path class="st61" d="M92.2 126.5c-3.1 4.1-9.1 5.5-13.4 7.7 3.1-1.8 5.4-4.3 7.3-7.3-2.7 1.6-5.9 2.5-9.1 2.4 6.3-.7 1.3-1.2.7-2.6 1.7-.8 3.4-1.7 5-2.5"/><radialGradient id="SVGID_55_" cx="-1794.352" cy="-151.053" r="14.27" gradientTransform="matrix(-1.2092 .0368 -.0157 -.9198 -2028.703 -35.302)" gradientUnits="userSpaceOnUse"><stop offset="0" stop-color="#fff"/><stop offset="1" stop-color="#6acde7"/></radialGradient><path class="st62" d="M126.1 37.9c12.2 0 17.1-.1 17.2 12.9 0-12.7 5.8-13.2 17.4-13.4-13.7.2-16.8.9-17.2-12.9.2 14.1-4.7 12.9-17.4 13.4"/><radialGradient id="SVGID_56_" cx="-1794.696" cy="-306.985" r="14.305" gradientTransform="matrix(-1.2092 .0368 -.0157 -.9198 -2028.703 -35.302)" gradientUnits="userSpaceOnUse"><stop offset="0" stop-color="#fff"/><stop offset="1" stop-color="#6acde7"/></radialGradient><path class="st63" d="M128.9 181.3c12.2 0 17.1-.1 17.2 12.9 0-12.7 5.8-13.2 17.4-13.4-13.7.2-16.8.9-17.2-12.9.2 14.1-4.7 12.9-17.4 13.4"/><radialGradient id="SVGID_57_" cx="-1718.364" cy="-389.852" r="14.285" gradientTransform="matrix(-1.2092 .0368 -.0157 -.9198 -2028.703 -35.302)" gradientUnits="userSpaceOnUse"><stop offset="0" stop-color="#fff"/><stop offset="1" stop-color="#6acde7"/></radialGradient><path class="st64" d="M37.9 260.3c12.2-.1 17.1-.1 17.2 12.9.1-12.7 5.8-13.2 17.4-13.4-13.7.2-16.8 1-17.2-12.9.2 14.2-4.7 12.9-17.4 13.4"/><radialGradient id="SVGID_58_" cx="-1719.288" cy="-301.937" r="14.31" gradientTransform="matrix(-1.2092 .0368 -.0157 -.9198 -2028.703 -35.302)" gradientUnits="userSpaceOnUse"><stop offset="0" stop-color="#fff"/><stop offset="1" stop-color="#6acde7"/></radialGradient><path class="st65" d="M37.7 179.4c12.2 0 17.1-.1 17.2 12.9 0-12.7 5.8-13.2 17.4-13.4-13.7.2-16.8 1-17.2-12.9.2 14.2-4.8 13-17.4 13.4"/><linearGradient id="SVGID_59_" gradientUnits="userSpaceOnUse" x1="2575.722" y1="148.749" x2="2535.707" y2="137.372" gradientTransform="scale(1 -1) rotate(-6.505 -1418.278 22089.614)"><stop offset=".005" stop-color="#56be91"/><stop offset=".468" stop-color="#078c5e"/><stop offset="1" stop-color="#064f63"/></linearGradient><path class="st66" d="M55.2 154.8c-8.5 4.9-19.3 8.8-29.2 6.9 4.2 2.2 8.8 3.2 13.4 4.1-4.4 3.1-9.1 6.6-14.4 7.9 4.3 2.6 11.3-1.4 15.3-2.8-8.6 9.6 5 2.7 8.8-.3"/><linearGradient id="SVGID_60_" gradientUnits="userSpaceOnUse" x1="-2845.583" y1="-283.362" x2="-2849.958" y2="-273.123" gradientTransform="matrix(-.9997 .0239 -.0239 -.9997 -2767.128 -7.41)"><stop offset=".005" stop-color="#56be91"/><stop offset=".468" stop-color="#078c5e"/><stop offset="1" stop-color="#064f63"/></linearGradient><path class="st67" d="M89.1 197.8c0-1.3 2.2-1.2-.1-2.6-2.2 1.6 0 1.4.1 2.6"/><linearGradient id="SVGID_61_" gradientUnits="userSpaceOnUse" x1="-2834.807" y1="-275.268" x2="-2841.529" y2="-259.537" gradientTransform="matrix(-.9997 .0239 -.0239 -.9997 -2767.128 -7.41)"><stop offset=".005" stop-color="#56be91"/><stop offset=".468" stop-color="#078c5e"/><stop offset="1" stop-color="#064f63"/></linearGradient><path class="st68" d="M80.5 184.9c1-1.9 2.7-2.3-.2-3.9-2.6 1.8-1 2 .2 3.9"/><linearGradient id="SVGID_62_" gradientUnits="userSpaceOnUse" x1="-2840.126" y1="-275.61" x2="-2844.955" y2="-264.308" gradientTransform="matrix(-.9997 .0239 -.0239 -.9997 -2767.128 -7.41)"><stop offset=".005" stop-color="#56be91"/><stop offset=".468" stop-color="#078c5e"/><stop offset="1" stop-color="#064f63"/></linearGradient><path class="st69" d="M83.3 189c.4-1.2 2.5-.3.9-2.4-2.6.5-.4 1.1-.9 2.4"/><linearGradient id="SVGID_63_" gradientUnits="userSpaceOnUse" x1="-2841.742" y1="-281.965" x2="-2847.2" y2="-269.193" gradientTransform="matrix(-.9997 .0239 -.0239 -.9997 -2767.128 -7.41)"><stop offset=".005" stop-color="#56be91"/><stop offset=".468" stop-color="#078c5e"/><stop offset="1" stop-color="#064f63"/></linearGradient><path class="st70" d="M86.9 194.4c-.3-2 2.2-2.9-1.4-3.5-2.1 3 .3 1.9 1.4 3.5"/><linearGradient id="SVGID_64_" gradientUnits="userSpaceOnUse" x1="-2920.383" y1="-297.523" x2="-2927.402" y2="-281.099" gradientTransform="matrix(-.9997 .0239 -.0239 -.9997 -2767.128 -7.41)"><stop offset=".005" stop-color="#56be91"/><stop offset=".468" stop-color="#078c5e"/><stop offset="1" stop-color="#064f63"/></linearGradient><path class="st71" d="M166.3 204.2c.9-1.8 3.4-1.1.8-3.7-3.3 1.2-.8 1.7-.8 3.7"/><linearGradient id="SVGID_65_" gradientUnits="userSpaceOnUse" x1="-2926.628" y1="-286.992" x2="-2931.278" y2="-276.111" gradientTransform="matrix(-.9997 .0239 -.0239 -.9997 -2767.128 -7.41)"><stop offset=".005" stop-color="#56be91"/><stop offset=".468" stop-color="#078c5e"/><stop offset="1" stop-color="#064f63"/></linearGradient><path class="st72" d="M169.9 198.7c.4-1.2 2.4-.3.8-2.3-2.4.5-.3 1.1-.8 2.3"/><linearGradient id="SVGID_66_" gradientUnits="userSpaceOnUse" x1="-2927.925" y1="-283.294" x2="-2933.18" y2="-270.996" gradientTransform="matrix(-.9997 .0239 -.0239 -.9997 -2767.128 -7.41)"><stop offset=".005" stop-color="#56be91"/><stop offset=".468" stop-color="#078c5e"/><stop offset="1" stop-color="#064f63"/></linearGradient><path class="st73" d="M172.9 194.1c-.3-1.9 2.1-2.8-1.4-3.4-2.1 3 .3 1.8 1.4 3.4"/><linearGradient id="SVGID_67_" gradientUnits="userSpaceOnUse" x1="-2915.975" y1="-297.252" x2="-2921.237" y2="-284.937" gradientTransform="matrix(-.9997 .0239 -.0239 -.9997 -2767.128 -7.41)"><stop offset=".005" stop-color="#56be91"/><stop offset=".468" stop-color="#078c5e"/><stop offset="1" stop-color="#064f63"/></linearGradient><path class="st74" d="M161.3 208.3c-.3-1.9 2.1-2.8-1.4-3.4-2.1 3 .3 1.9 1.4 3.4"/><linearGradient id="SVGID_68_" gradientUnits="userSpaceOnUse" x1="-2930.831" y1="-275.729" x2="-2936.085" y2="-263.433" gradientTransform="matrix(-.9997 .0239 -.0239 -.9997 -2767.128 -7.41)"><stop offset=".005" stop-color="#56be91"/><stop offset=".468" stop-color="#078c5e"/><stop offset="1" stop-color="#064f63"/></linearGradient><path class="st75" d="M175.6 186.5c-.3-1.9 2.1-2.8-1.4-3.4-2 2.9.3 1.8 1.4 3.4"/><linearGradient id="SVGID_69_" gradientUnits="userSpaceOnUse" x1="-2902.149" y1="-226.31" x2="-2878.205" y2="-197.179" gradientTransform="matrix(-.9997 .0239 -.0239 -.9997 -2767.128 -7.41)"><stop offset=".005" stop-color="#56be91"/><stop offset=".468" stop-color="#078c5e"/><stop offset="1" stop-color="#064f63"/></linearGradient><path class="st76" d="M136 121.7c.9 7.4 7.1 22.6 14.8 25.8-4.5-1.9-8.8-4.2-12.7-7.2 1.5 5.4 3.7 11.9 8.2 15.6-5.4-2.9-9.1-8.5-12.9-13.1-3.1 3.2-2.3 9.1-4.1 13-1.2-4.7.4-9.5.4-14.2-1.6 4-4 7.9-7.8 10.1 2-5.1 3.2-10.7 3.4-16.2-4.9.9-6.3 7.1-11.6 7.5 5.8-2.8 6.6-10.8 10.7-15.2"/><linearGradient id="SVGID_70_" gradientUnits="userSpaceOnUse" x1="-2857.645" y1="-662.744" x2="-2897.284" y2="-674.014" gradientTransform="rotate(170.751 -1368.84 -98.763)"><stop offset=".005" stop-color="#56be91"/><stop offset=".468" stop-color="#078c5e"/><stop offset="1" stop-color="#064f63"/></linearGradient><path class="st77" d="M199.2 210.5c8.7 4.4 19.7 7.6 29.4 5.2-4.1 2.5-8.7 3.7-13.3 4.9 4.5 2.9 9.3 6 14.7 7-4.2 2.9-11.2-.7-15.4-1.8 8.9 9-4.8 3-8.8.2"/><linearGradient id="SVGID_71_" gradientUnits="userSpaceOnUse" x1="-2863.153" y1="-686.43" x2="-2902.802" y2="-697.703" gradientTransform="rotate(170.751 -1368.84 -98.763)"><stop offset=".005" stop-color="#56be91"/><stop offset=".468" stop-color="#078c5e"/><stop offset="1" stop-color="#064f63"/></linearGradient><path class="st78" d="M208.5 233c8.7 4.4 19.7 7.6 29.4 5.2-4.1 2.5-8.7 3.7-13.3 4.9 4.5 2.9 9.3 6 14.7 7-4.2 2.9-11.2-.7-15.4-1.8 8.9 9-4.8 3-8.8.2"/><path class="st21" d="M219.8 245.9c.2 2.8-7.9 14.5-9.9 13.5-1.8-.9-11.3-10.5-11.3-10.5-2.9 10.5-4.8-3.3-10.6-4.4-3.6-.7 1.4-11.1 1.3-12.9-.5-8.3-4.7.5-3.8 5.8 1.5 8.8-7.5 3.4-6.4-5 .8-6.2-2.9-12.3-2.2-17.6 2.7-2.2 2.2-4-1.3-5.5-2.9-1.9-5.5-5.9-1.4-8.5 6.5-4.1 7.7 8.3 13.3 8.7 8.8.7 31.7 27.9 32.3 36.4"/><path class="st0" d="M195.9 214.7c-.8 3.7 9.9 9.1 10.6 15.6 8.8-9.3 30.9 32.1 9.3 17.7-.2.3-1.7 22.8-5.5 8.5-.7-2.7-11.3-16.5-10.8-17.7-2.5 5.8-9 5.1-7.7-1.8 1.8-9-2.2-8.6-4.1-16.4-1.2-5-.6-2.5-5.7-4.8-3.5-1.6-3.5-4.2-.8-6.9 3.8-3.7 16.1-.9 14.7 5.8"/><linearGradient id="SVGID_72_" gradientUnits="userSpaceOnUse" x1="-2248.413" y1="-1237.098" x2="-2249.718" y2="-1317.55" gradientTransform="scale(-1) rotate(-25.676 1328.932 -5515.682)"><stop offset=".472" stop-color="#c4e7ee"/><stop offset="1" stop-color="#57c2b0"/></linearGradient><path class="st79" d="M78.3 141.3c4.1-4.9-6.4-15 7.8-13.5 15.9 1.7 4.1 5.3 3.9 13.3-.3 12.5-14.2 8.5-15.8 20.2-.6 4.5-.5 10.6-5.2 13.2-7.6 4.2-4.1-7.2-7.9-7.4-3-.2-3.7 16-11.7 14-4.5-1.1 1.5-7.1-2.9-8-4.3-.9-3.8 10.3-10.1 8.3-12.4-4 16.9-20.4 19.7-21.3 11.5-4 14-11 22.2-18.8"/><path class="st0" d="M74.4 129.2c-6.1 4.3-11.3 9.9-17.4 11.1-10.4 2 1 7.1 5.6 7.1-2.8 1.6-.3 4.5-.1 6.6.2 3.2-9.2.8-11.7 2.9-4.5 3.8-16.4 10.5-16.5 16.8-.1 1.6-4.9 1.8-4.4 5 .8 4.6 7.4 3.2 8.8 0 1.4-3 1.8-6.3 3.9-9 3.4-4.3 6.7-1.3 4.2 3.1-.9 1.6-3.2 8.7 2 7.4 6.5-1.6.8-9.1 4.1-12.1 1.6-1.6 3.3 1.4 4.7-1.5.9-1.7 1.3-8.8 4.9-5.2 2.4 2.5-5.9 17.6 2.3 13.7 8.2-3.9-2.6-18.6 7.6-15.5 2.1-8.3-1.5-9.6 8.4-12.4 3.8-1.1 10.4-8.4 6-12.3 23.5-3.5-3.3-12.1-12.4-5.7"/><path class="st80" d="M127.7 237.2c-2.8 4.3-4.2 14.4-10.3 15.4.5-4.7 3.3-8.7 6.3-12.2"/><path class="st81" d="M103.6 164.2c1.7-5 2.2-10.8 7.5-13.7 2.5 4.2-7.5 13.7-7.5 13.7m98 44c3.3-.1 7.4 1 9.9 3.1-1.2 4-8-1.4-9.5-2.3 2.1 1.1 5.7 6.5 4.4 9-3.1-1.3-4.2-6-5-8.8m21.1 22.3c2.6.9 5.1 2.1 7.4 3.6-2 0-4-.6-5.6-1.8m-53.7 6c1.8-.1 8.2 2.6 7.9 4.9-.5 3.5-7.7-4.3-8.4-5.2M60.7 228.2c-.5.1-3.9 6.3-7 6.9-2.1-2.5 5.9-6.2 7.2-6.9m-1.1 17c-.1 2.7-5 7-7.7 6.6.6-2.8 7.2-6.5 9.2-8.2m29.8-20.2c-.8 1.8-2.1 6.2-4.8 6 1.2-2.1 2.7-4.1 4.3-6-1.8 1.5-3.9 2.3-6.3 2.4-.2-2.5 4.6-3 6-3.7m38.2-96.7c2.1 2 5.5 5.8 4.3 9.1-3-.6-4.1-5.8-5.3-8 1.7 2.2 1.2 7.6-.3 9.7-2.1-2.8-1.2-8.2-.5-11.3m-45.4-6.3c-1.9 1.3-3.8 2.6-5.7 4 1-2.4 2.8-3.8 5.4-4.2-10.1.2-1.6-.6.6-.5m85.5-2.7c1.8-.3 3.3.3 4.4 1.8-2 .2-3.7-.4-5.1-1.7 1.6 1.3 2.5 2.9 2.9 5-1.9-1.4-3.1-3.2-3.5-5.5m-35.1-87.2c1.6 1.1 2.4 5.8 1.2 7.3-2.3-1-1.7-6.2-1.9-8-.1 2.4-.4 6.2-2.6 7.7-1.2-2.6.6-6.8 2.8-8.3M93.6 56.8c-1 .1-6.6 1.6-6.3 3 .5 2.6 6.7-1.9 7.6-2.3m57.2 139.1c.8.9 6 5 4.2 6.5-1.6 1.3-5.4-6-5.7-7m3.8 32.6c2.6 1.7 5.7 4.1 6.2 7.5-2.9-1.5-4.2-5.1-5.7-7.7 1 1.6 1.6 3.6 1.6 5.5-1.9-1.9-2.8-4.2-2.8-6.8M68 186.6c-2.6.9-9 5-11.6 2.2 3.7-2 8.5-1.4 11.9-3.5-2.5-.6-5.1-.6-7.6.2m44.2 76.6c-2.6 2.2-3.8 7.7-7.7 8.2.3-4.3 4.8-6.6 7.7-9m-75.6-84.1c-3.2-.9-6.5-1.1-9.7-.7 1.6 2.8 6.9 1.2 9.3 1m73.5-32c-.5 2.1-2.1 7.1-5 7.1.3-3.2 1.9-5.6 4.7-7.1m50.2 46c2.5.1 7.3.4 8.5 3.3-2.8.1-5.2-.8-7.3-2.5m-22.6 63.3c1.3 2.6-2.2 6.9-3.6 8.8-.9-2.8 2-7 4.1-8.6m-43.3-93.7c-2.3 1.3-4.7 2.3-7.3 3 2-2.9 5.5-3.4 8.5-4.8m38.1-54.4c2.2-.7 5 4.4 5.7 5.8-2.6-1.5-4.9-3.6-6.7-6m-28.8 15.2c-2.6 1.2-7.2 2.8-6.7 6.6 3.2 0 5.6-4.6 7.4-6.6m74.6-34.7c2.3 1.2 4.1 2.9 5.2 5.2-3.2.1-5.3-4.4-6.9-6.5m-23.9-40c2.3 1.2 4.1 2.9 5.2 5.2-3.2.1-5.3-4.4-6.9-6.5m5.9 1.1c1.8 1.5 3.8 2.8 5.9 3.9-1.4-2.8-4.9-4.3-7.9-4.9"/><linearGradient id="SVGID_73_" gradientUnits="userSpaceOnUse" x1="-2920.635" y1="-304.417" x2="-2929.913" y2="-309.154" gradientTransform="matrix(-.9997 .0239 -.0239 -.9997 -2767.128 -7.41)"><stop offset=".005" stop-color="#56be91"/><stop offset=".468" stop-color="#078c5e"/><stop offset="1" stop-color="#064f63"/></linearGradient><path class="st82" d="M169.5 227.3c3.7 2.7 6.2 6.6 9.7 9.5-5.3-.1-7.8-6.2-11-9.4 1.4 3.4 2.6 6.8 3.5 10.4-3.5-3.5-4.8-8.5-6.2-13.1"/><linearGradient id="SVGID_74_" gradientUnits="userSpaceOnUse" x1="-2960.317" y1="-276.863" x2="-2969.592" y2="-281.6" gradientTransform="matrix(-.9997 .0239 -.0239 -.9997 -2767.128 -7.41)"><stop offset=".005" stop-color="#56be91"/><stop offset=".468" stop-color="#078c5e"/><stop offset="1" stop-color="#064f63"/></linearGradient><path class="st83" d="M208.5 198.8c3.7 2.7 6.2 6.6 9.7 9.5-5.3-.1-7.8-6.2-11-9.4 1.4 3.4 2.6 6.8 3.5 10.4-3.5-3.5-4.8-8.5-6.2-13.1"/><linearGradient id="SVGID_75_" gradientUnits="userSpaceOnUse" x1="-2927.736" y1="-167.965" x2="-2937.015" y2="-172.704" gradientTransform="matrix(-.9997 .0239 -.0239 -.9997 -2767.128 -7.41)"><stop offset=".005" stop-color="#56be91"/><stop offset=".468" stop-color="#078c5e"/><stop offset="1" stop-color="#064f63"/></linearGradient><path class="st84" d="M173.3 90.7c3.7 2.7 6.2 6.6 9.7 9.5-5.3-.1-7.8-6.2-11-9.4 1.4 3.4 2.6 6.8 3.5 10.4-3.5-3.5-4.8-8.5-6.2-13.1"/><linearGradient id="SVGID_76_" gradientUnits="userSpaceOnUse" x1="2470.869" y1="959.449" x2="2461.653" y2="954.744" gradientTransform="matrix(.9187 .3952 .3952 -.9187 -2573.044 27.396)"><stop offset=".005" stop-color="#56be91"/><stop offset=".468" stop-color="#078c5e"/><stop offset="1" stop-color="#064f63"/></linearGradient><path class="st85" d="M68.8 119.1c-4.4 1.1-8.2 3.7-12.4 5 4.9 1.9 9.5-2.8 13.6-4.5-2.5 2.6-4.9 5.4-7 8.3 4.6-1.9 7.5-6.1 10.5-9.8"/><linearGradient id="SVGID_77_" gradientUnits="userSpaceOnUse" x1="2462.676" y1="884.741" x2="2453.464" y2="880.036" gradientTransform="matrix(.9187 .3952 .3952 -.9187 -2573.044 27.396)"><stop offset=".005" stop-color="#56be91"/><stop offset=".468" stop-color="#078c5e"/><stop offset="1" stop-color="#064f63"/></linearGradient><path class="st86" d="M31.7 184.5c-4.4 1.1-8.2 3.7-12.4 5 4.9 1.9 9.5-2.8 13.6-4.5-2.5 2.6-4.9 5.4-7 8.3 4.6-1.9 7.5-6.1 10.5-9.8"/><linearGradient id="SVGID_78_" gradientUnits="userSpaceOnUse" x1="2483.594" y1="887.425" x2="2474.379" y2="882.719" gradientTransform="matrix(.9187 .3952 .3952 -.9187 -2573.044 27.396)"><stop offset=".005" stop-color="#56be91"/><stop offset=".468" stop-color="#078c5e"/><stop offset="1" stop-color="#064f63"/></linearGradient><path class="st87" d="M52 190.3c-4.4 1.1-8.2 3.7-12.4 5 4.9 1.9 9.5-2.8 13.6-4.5-2.5 2.6-4.9 5.4-7 8.3 4.6-1.9 7.5-6.1 10.5-9.8"/><linearGradient id="SVGID_79_" gradientUnits="userSpaceOnUse" x1="2500.021" y1="857.374" x2="2490.806" y2="852.669" gradientTransform="matrix(.9187 .3952 .3952 -.9187 -2573.044 27.396)"><stop offset=".005" stop-color="#56be91"/><stop offset=".468" stop-color="#078c5e"/><stop offset="1" stop-color="#064f63"/></linearGradient><path class="st88" d="M55.2 224.4c-4.4 1.1-8.2 3.7-12.4 5 4.9 1.9 9.5-2.8 13.6-4.5-2.6 2.6-4.9 5.4-7 8.3 4.6-1.9 7.5-6.1 10.5-9.8"/><linearGradient id="SVGID_80_" gradientUnits="userSpaceOnUse" x1="2482.489" y1="822.617" x2="2473.275" y2="817.912" gradientTransform="matrix(.9187 .3952 .3952 -.9187 -2573.044 27.396)"><stop offset=".005" stop-color="#56be91"/><stop offset=".468" stop-color="#078c5e"/><stop offset="1" stop-color="#064f63"/></linearGradient><path class="st89" d="M25.4 249.4c-4.4 1.1-8.2 3.7-12.4 5 4.9 1.9 9.5-2.8 13.6-4.5-2.5 2.6-4.9 5.4-7 8.3 4.6-1.9 7.5-6.1 10.5-9.8"/><linearGradient id="SVGID_81_" gradientUnits="userSpaceOnUse" x1="2540.445" y1="879.771" x2="2531.23" y2="875.065" gradientTransform="matrix(.9187 .3952 .3952 -.9187 -2573.044 27.396)"><stop offset=".005" stop-color="#56be91"/><stop offset=".468" stop-color="#078c5e"/><stop offset="1" stop-color="#064f63"/></linearGradient><path class="st90" d="M101.2 219.8c-4.4 1.1-8.2 3.7-12.4 5 4.9 1.9 9.5-2.8 13.6-4.5-2.6 2.6-4.9 5.3-7 8.3 4.6-1.9 7.5-6.1 10.5-9.8"/><linearGradient id="SVGID_82_" gradientUnits="userSpaceOnUse" x1="2524.683" y1="846.423" x2="2515.468" y2="841.717" gradientTransform="matrix(.9187 .3952 .3952 -.9187 -2573.044 27.396)"><stop offset=".005" stop-color="#56be91"/><stop offset=".468" stop-color="#078c5e"/><stop offset="1" stop-color="#064f63"/></linearGradient><path class="st91" d="M73.6 244.2c-4.4 1.1-8.2 3.7-12.4 5 4.9 1.9 9.5-2.8 13.6-4.5-2.6 2.6-4.9 5.4-7 8.3 4.6-1.9 7.5-6.1 10.6-9.8"/><linearGradient id="SVGID_83_" gradientUnits="userSpaceOnUse" x1="2511.086" y1="970.549" x2="2501.871" y2="965.843" gradientTransform="matrix(.9187 .3952 .3952 -.9187 -2573.044 27.396)"><stop offset=".005" stop-color="#56be91"/><stop offset=".468" stop-color="#078c5e"/><stop offset="1" stop-color="#064f63"/></linearGradient><path class="st92" d="M110.1 124.8c-4.4 1.1-8.2 3.7-12.4 5 4.9 1.9 9.5-2.8 13.6-4.5-2.5 2.6-4.9 5.4-7 8.3 4.6-1.9 7.5-6.1 10.5-9.8"/><linearGradient id="SVGID_84_" gradientUnits="userSpaceOnUse" x1="-2699.35" y1="-817.242" x2="-2700.398" y2="-881.898" gradientTransform="rotate(166.805 -1363.336 -145.58)"><stop offset=".472" stop-color="#c4e7ee"/><stop offset="1" stop-color="#57c2b0"/></linearGradient><path class="st93" d="M113.5 246.2c-4.6 5.5-13.6 14.5-20.8 15.1-16.2 1.4-3.5-9.9-1-15.3 3.2-6.9 11.7-15.5 18.7-18.9 11.8-5.7 6.3 15.2 3.1 19.1"/><path class="st0" d="M116.6 234.9c-1.8 4.6-5.8.2-8.4 4.6-2.9 4.9-7.8-6.3-7.7-.6.1 4.9 4.1 12.4-2.9 14.6-3.4 1.1-11.6 7-14.9 3.2-5.3-6 17.8-20.7 20.1-23.9.5-1.7 1.1-3.4 1.8-5.1 2.1-2.5 5.1-1.3 7.2-3.5 5.1-5.2 6.1 7.4 4.8 10.7"/><linearGradient id="SVGID_85_" gradientUnits="userSpaceOnUse" x1="-2888.524" y1="-106.388" x2="-2883.905" y2="-96.876" gradientTransform="matrix(-.9997 .0239 -.0239 -.9997 -2767.128 -7.41)"><stop offset=".005" stop-color="#56be91"/><stop offset=".468" stop-color="#078c5e"/><stop offset="1" stop-color="#064f63"/></linearGradient><path class="st94" d="M127.2 22.2c-2.3 4.6-3.6 9.7-5.7 14.4-.1-2.7-.1-5.5.2-8.2-.9 3.3-3.1 7.1-6.1 8.8 1.4-3.5 2.9-7.1 4.4-10.6-2.3 2.9-5.4 5.7-9.3 6.1 3.7-3.7 6-9.1 10.5-12-.9 2.1-3.4 5.9-6.3 5.1-.6-5.6 8-13.3 10.9-17.6"/><linearGradient id="SVGID_86_" gradientUnits="userSpaceOnUse" x1="-2899.891" y1="-97.546" x2="-2895.698" y2="-88.912" gradientTransform="matrix(-.9997 .0239 -.0239 -.9997 -2767.128 -7.41)"><stop offset=".005" stop-color="#56be91"/><stop offset=".468" stop-color="#078c5e"/><stop offset="1" stop-color="#064f63"/></linearGradient><path class="st95" d="M124 22.3c-.2-5.3.9-10.5 2.2-15.6 2.4.1 4.8 4.5 6.1 6 3.2 3.6 8.3 3.3 12 6.1-2.8 1.4-5.7 1.6-8.7.6 1.7 1 3.3 2.2 4.8 3.7-5.1-1.1-4-3.3-3.6 1.4-5.9-.2-10.4-11.5-9.1-2.3-1.8-2.7-2.7-2.4-2.8.9.4-2.6.5-5.2.2-7.9"/><path class="st80" d="M176.1 247.8c3.1 1.9 7.3 5.1 8.1 8.9-4.4.7-7.4-6.8-9.9-9.2m39.3-20.3c3 2.1 6.3 4.6 8.2 7.9-3.4 1.3-6.5-5.3-8.2-7.1m-30.8-73.9c1.8 1.7 4.6 6.4 7.7 5.6-.1-3.7-5.5-4.3-8.1-5.2m25.2 4.7c1 .1 10.6 3.2 8 3.9-2.3.6-5.4-2.5-7.3-3.6m49.3 73c1 0 11.8 2.2 10 4.4-1 1.3-6.6-1.9-7.5-2.6M109.2 145c-1.4 4-3.3 8.8-6.7 11.6 1.1-3 3-5.7 5.4-7.9m-.4-85.8c-3.3 1.9-6.6 5.5-7.5 9.3 3.6-1.6 6.3-4.7 7.1-8.5M72 184.6c-.9 3-2.8 5-5.7 6.1 1.7-2.1 3.6-4 5.7-5.7m-9.8 57.5c-.9 2.5-5.6 5.3-8.2 4 .5-4.3 7.4-5.8 10.6-7m42.9-93.7c-2.1 2.7-4.4 5.4-6.8 7.8 1.5-3 3.4-5.8 5.8-8.2M114.4 40c-.4 2.4-1.5 4.2-3.4 5.6.1-2.9 1.5-5 4.1-6.4-.9 2.1-4.3 4.8-6.7 4.9 1.4-2.8 3.7-4.4 6.7-4.9m21.3-12.7c2.3 1.1 4.5 2.5 6.3 4.2-2.5 1.4-4.9-2.5-6.7-3.5m27.6 104c2.8.9 5 2.5 6.7 4.9-3.2-.3-5.6-1.8-7.4-4.5m40.2 130.8c2.6 1.2 6.3 3.8 7 6.8-3.8 2.1-6.3-3.2-7.4-5.7m-62-71.8c2.7 1.2 4.4 6.3 4.7 8.9-1.6-1.4-2.7-3.2-3.2-5.3m40.8-32.8c2.9.5 6.7 1.9 8 4.9-2.4.7-4.5.2-6.3-1.6m-48.9 66.7c.2-.1-3.6 9.9-4.8 11.2-1.4-3.5 2-7.9 3.4-10.8"/><g class="st96"><linearGradient id="SVGID_87_" gradientUnits="userSpaceOnUse" x1="-2875.534" y1="-406.415" x2="-2893.539" y2="-390.41" gradientTransform="matrix(-.9997 .0239 -.0239 -.9997 -2767.128 -7.41)"><stop offset=".038" stop-color="#4d829f"/><stop offset=".215" stop-color="#72a7c0"/><stop offset=".989" stop-color="#c6c7e4"/></linearGradient><path class="st97" d="M166.3 313.8c4.7 13.5-23.4 8.5-28.6 7.1-5.5-1.5-9.6-3.9-15.3-4.9-2.5-.4-18.3.9-11.6-3.2-12.1-.5-6.9-5.9-.8-10.2-3.5 4.8-3.5 6.7 3.7 5 2.2-.6 4.5-1 6.8-1.3 6.8-.9 4.3-.4 3.9 3.4 1 .7 11.7 1.6 12.7.2-1.9 5.5 8.2 14.7 14.5 10.3 4.7-3.3 2.1-1.7 7.1-.5 6.6 1.6 3.3-7.2 8.4-6.1"/></g><path class="st0" d="M92.7 111.4c12.9-.1 18.1-.1 18.1 13.6 0-13.4 6.2-13.9 18.4-14.2-14.5.2-17.7 1-18.1-13.6.2 15-5 13.7-18.4 14.2m55.5 109.4c12.9 0 18.1-.1 18.1 13.6 0-13.4 6.2-13.9 18.4-14.2-14.5.2-17.7 1-18.1-13.6.1 14.9-5.1 13.6-18.4 14.2m73.6 20.3c12.9-.1 18.1-.1 18.1 13.6 0-13.4 6.2-13.9 18.4-14.2-14.5.2-17.7 1-18.1-13.6.1 15-5.1 13.7-18.4 14.2M134.4 14.8c1.1-2.1-2.7-9.5-3.5-11.6-2.3-6-5.7-2.3-9.5.6-2.5 1.9-12.9 8.9-10.1 13.2 4 6.1 14-1.9 17.9-4.2.4 1.9 3.6 5.2 5.2 2"/><linearGradient id="SVGID_88_" gradientUnits="userSpaceOnUse" x1="86.158" y1="-236.548" x2="85.865" y2="-254.591" gradientTransform="scale(1 -1) rotate(7.279 -1687.123 159.639)"><stop offset=".472" stop-color="#c4e7ee"/><stop offset="1" stop-color="#57c2b0"/></linearGradient><path class="st98" d="M111.2 15.7c7.3-.7 13.4-5.2 18.7-10-1.1 5 .3 6.5 4 4.5-.7 5.3-3.8 8.7-6.9 1.9 0 5.3-14 8.2-15.9 2.9"/><path class="st0" d="M156.5 209c-1.7-2.6-14.6-18.4-15.5-8.7.3-3.2-6-17-10-15.3-5.3 2.3-13.2 22.9-4.3 20 6.7-2.1 6-2.2 8.4 4.5 1.1 3.2 7.5 8.6 8.5 2.5 0 .2 23.6 13.2 12.9-3"/><linearGradient id="SVGID_89_" gradientUnits="userSpaceOnUse" x1="77.21" y1="-425.972" x2="76.492" y2="-470.194" gradientTransform="scale(1 -1) rotate(7.279 -1687.123 159.639)"><stop offset=".472" stop-color="#c4e7ee"/><stop offset="1" stop-color="#57c2b0"/></linearGradient><path class="st99" d="M123.3 194.2c-1.1 2.5-1.2 5.1-.3 7.8 3.3.1 5.2-2.8 8.2-3.3 5-.9 4.6 6.7 6.6 9.2 4.2 5.4 4.1-4.4 9.1 0 3 2.6 4.5 6.8 7.6 9.3-4.3 1.2-5.2-3.8-8.7-4.7-4-.9-7.4 4.5-10.5-1.1-1.5-2.7-2-9.1-6.4-8.2-3.5.7-7.1 2.4-6.3-3.3"/></svg>